SplineFontDB: 3.2
FontName: PlayfairRoman-MicroSemiCondensedSemiLight
FullName: Playfair Micro SemiCondensed SemiLight
FamilyName: Playfair Micro SmCond SmLight
Weight: Book
Copyright: Copyright 2005-2023 The Playfair Project Authors (https://github.com/clauseggers/Playfair)
Version: 2.101;Glyphs 3.2 (3227)
ItalicAngle: 0
UnderlinePosition: -135
UnderlineWidth: 70
Ascent: 992
Descent: 248
InvalidEm: 0
sfntRevision: 0x000219db
LayerCount: 2
Layer: 0 1 "Atr+AOEA-s" 1
Layer: 1 1 "Fore" 0
XUID: [1021 875 -1182648321 23017]
StyleMap: 0x0040
FSType: 0
OS2Version: 4
OS2_WeightWidthSlopeOnly: 0
OS2_UseTypoMetrics: 1
CreationTime: 1701078446
ModificationTime: 1701158752
PfmFamily: 81
TTFWeight: 360
TTFWidth: 4
LineGap: 0
VLineGap: 0
Panose: 0 0 0 0 0 0 0 0 0 0
OS2TypoAscent: 1098
OS2TypoAOffset: 0
OS2TypoDescent: -390
OS2TypoDOffset: 0
OS2TypoLinegap: 0
OS2WinAscent: 1076
OS2WinAOffset: 0
OS2WinDescent: 271
OS2WinDOffset: 0
HheadAscent: 1098
HheadAOffset: 0
HheadDescent: -390
HheadDOffset: 0
OS2SubXSize: 805
OS2SubYSize: 745
OS2SubXOff: 0
OS2SubYOff: 95
OS2SupXSize: 805
OS2SupYSize: 745
OS2SupXOff: 0
OS2SupYOff: 435
OS2StrikeYSize: 60
OS2StrikeYPos: 255
OS2CapHeight: 708
OS2XHeight: 514
OS2Vendor: 'FTH '
OS2CodePages: 20000197.00000000
OS2UnicodeRanges: a10002ff.4000207b.00000000.00000000
Lookup: 3 0 0 "'aalt' Activar todas las variantes b+APoA-squeda 0" { "'aalt' Activar todas las variantes b+APoA-squeda 0 subtabla"  } ['aalt' ('DFLT' <'dflt' > 'cyrl' <'BGR ' 'SRB ' 'UKR ' 'dflt' > 'latn' <'AZE ' 'CAT ' 'CRT ' 'KAZ ' 'MOL ' 'NLD ' 'PLK ' 'ROM ' 'TAT ' 'TRK ' 'dflt' > ) ]

StartChar: A
Encoding: 65 65 2
Width: 803
GlyphClass: 1
Flags: W
AnchorPoint: "Anclaje-42" 650 0 basechar 0
AnchorPoint: "Anclaje-34" 390 708 basechar 0
AnchorPoint: "Anclaje-33" 391 0 basechar 0
LayerCount: 2
Fore
SplineSet
77.5 80.5 m 128,-1,1
 104 91 104 91 123 115.5 c 128,-1,2
 142 140 142 140 159 184 c 2,3,-1
 359 708 l 1,4,-1
 425 708 l 1,5,-1
 630 170 l 2,6,7
 651 115 651 115 685 92.5 c 128,-1,8
 719 70 719 70 783 70 c 1,9,-1
 783 0 l 1,10,-1
 743 2 l 2,11,12
 711 3 711 3 616 3 c 0,13,14
 485 3 485 3 434 0 c 1,15,-1
 434 70 l 1,16,17
 492 70 492 70 518.5 77 c 128,-1,18
 545 84 545 84 549.5 101.5 c 128,-1,19
 554 119 554 119 541 154 c 2,20,-1
 373 594 l 1,21,-1
 393 609 l 1,22,-1
 241 212 l 2,23,24
 218 153 218 153 218.5 124 c 128,-1,25
 219 95 219 95 244.5 83 c 128,-1,26
 270 71 270 71 330 70 c 1,27,-1
 330 0 l 1,28,29
 222 3 222 3 145 3 c 0,30,31
 79 3 79 3 10 0 c 1,32,-1
 10 70 l 1,33,0
 51 70 51 70 77.5 80.5 c 128,-1,1
233 293 m 1,34,-1
 541 293 l 1,35,-1
 566 223 l 1,36,-1
 205 223 l 1,37,-1
 233 293 l 1,34,-1
EndSplineSet
Substitution2: "Single Substitution b+APoA-squeda 93 subtabla" ordfeminine
Substitution2: "'c2sc' May+APoA-sculas a min+APoA-sculas b+APoA-squeda 35 subtabla" a.smcp
AlternateSubs2: "'aalt' Activar todas las variantes b+APoA-squeda 0 subtabla" ordfeminine a.smcp
Position2: "'cpsp' Espaciado de may+APoA-sculas b+APoA-squeda 55 subtabla" dx=40 dy=0 dh=40 dv=0
EndChar

StartChar: Aacute
Encoding: 193 193 3
Width: 803
GlyphClass: 1
Flags: W
AnchorPoint: "Anclaje-42" 650 0 basechar 0
AnchorPoint: "Anclaje-34" 390 928 basechar 0
AnchorPoint: "Anclaje-33" 391 0 basechar 0
LayerCount: 2
Fore
SplineSet
404 792 m 0
 437 804 437 804 464 813 c 0
 482 820 482 820 498 826 c 0
 514 832 514 832 522 837 c 0
 550 855 550 855 559 879.5 c 0
 568 904 568 904 555 925 c 0
 541 947 541 947 515 950 c 0
 489 953 489 953 461 936 c 0
 452 931 452 931 439 918.5 c 0
 426 906 426 906 411 892 c 0
 391 871 391 871 367.5 849 c 0
 344 827 344 827 314 803 c 1
 337 764 l 1
 371 780 371 780 404 792 c 0
EndSplineSet
Refer: 2 65 N 1 0 0 1 0 0 0
Substitution2: "'c2sc' May+APoA-sculas a min+APoA-sculas b+APoA-squeda 35 subtabla" aacute.smcp
AlternateSubs2: "'aalt' Activar todas las variantes b+APoA-squeda 0 subtabla" aacute.smcp
Position2: "'cpsp' Espaciado de may+APoA-sculas b+APoA-squeda 55 subtabla" dx=40 dy=0 dh=40 dv=0
EndChar

StartChar: Abreve
Encoding: 258 258 4
Width: 803
GlyphClass: 1
Flags: W
AnchorPoint: "Anclaje-42" 650 0 basechar 0
AnchorPoint: "Anclaje-37" 390 858 basechar 0
AnchorPoint: "Anclaje-34" 390 858 basechar 0
AnchorPoint: "Anclaje-33" 391 0 basechar 0
LayerCount: 2
Fore
SplineSet
264.5 801 m 0
 206 830 206 830 171 880 c 1
 216 924 l 1
 254 887 254 887 296 869.5 c 0
 338 852 338 852 390 852 c 256
 442 852 442 852 484 869.5 c 0
 526 887 526 887 564 924 c 1
 609 880 l 1
 574 830 574 830 515.5 801 c 0
 457 772 457 772 390 772 c 256
 323 772 323 772 264.5 801 c 0
EndSplineSet
Refer: 2 65 N 1 0 0 1 0 0 0
Substitution2: "'c2sc' May+APoA-sculas a min+APoA-sculas b+APoA-squeda 35 subtabla" abreve.smcp
AlternateSubs2: "'aalt' Activar todas las variantes b+APoA-squeda 0 subtabla" abreve.smcp
Position2: "'cpsp' Espaciado de may+APoA-sculas b+APoA-squeda 55 subtabla" dx=40 dy=0 dh=40 dv=0
EndChar

StartChar: uni1EAE
Encoding: 7854 7854 5
Width: 803
GlyphClass: 1
Flags: W
AnchorPoint: "Anclaje-42" 650 0 basechar 0
AnchorPoint: "Anclaje-37" 390 858 basechar 0
AnchorPoint: "Anclaje-34" 390 844 basechar 0
AnchorPoint: "Anclaje-33" 391 0 basechar 0
LayerCount: 2
Fore
SplineSet
275 767.5 m 0
 222 793 222 793 191 838 c 1
 236 882 l 1
 269 848 269 848 306.5 832.5 c 0
 344 817 344 817 390 817 c 256
 436 817 436 817 473.5 832.5 c 0
 511 848 511 848 544 882 c 1
 589 838 l 1
 558 793 558 793 505 767.5 c 0
 452 742 452 742 390 742 c 256
 328 742 328 742 275 767.5 c 0
423.5 905.5 m 0
 442 919 442 919 458 929 c 0
 473 938 473 938 485 947 c 0
 497 956 497 956 504 965 c 0
 524 991 524 991 525 1017 c 0
 526 1043 526 1043 507 1059 c 0
 487 1075 487 1075 459.5 1070.5 c 0
 432 1066 432 1066 415 1040 c 0
 409 1030 409 1030 403 1017.5 c 0
 397 1005 397 1005 391 991 c 0
 384 973 384 973 374 951 c 0
 364 929 364 929 350 904 c 1
 384 874 l 1
 405 892 405 892 423.5 905.5 c 0
EndSplineSet
Refer: 2 65 N 1 0 0 1 0 0 0
Substitution2: "'c2sc' May+APoA-sculas a min+APoA-sculas b+APoA-squeda 35 subtabla" uni1EAF.smcp
AlternateSubs2: "'aalt' Activar todas las variantes b+APoA-squeda 0 subtabla" uni1EAF.smcp
Position2: "'cpsp' Espaciado de may+APoA-sculas b+APoA-squeda 55 subtabla" dx=40 dy=0 dh=40 dv=0
EndChar

StartChar: uni1EB6
Encoding: 7862 7862 6
Width: 803
GlyphClass: 1
Flags: W
AnchorPoint: "Anclaje-42" 650 0 basechar 0
AnchorPoint: "Anclaje-37" 390 858 basechar 0
AnchorPoint: "Anclaje-34" 390 858 basechar 0
AnchorPoint: "Anclaje-33" 391 -204 basechar 0
LayerCount: 2
Fore
SplineSet
264.5 801 m 0
 206 830 206 830 171 880 c 1
 216 924 l 1
 254 887 254 887 296 869.5 c 0
 338 852 338 852 390 852 c 256
 442 852 442 852 484 869.5 c 0
 526 887 526 887 564 924 c 1
 609 880 l 1
 574 830 574 830 515.5 801 c 0
 457 772 457 772 390 772 c 256
 323 772 323 772 264.5 801 c 0
EndSplineSet
Refer: 2 65 N 1 0 0 1 0 0 0
Refer: 535 803 N 1 0 0 1 244 0 0
Substitution2: "'c2sc' May+APoA-sculas a min+APoA-sculas b+APoA-squeda 35 subtabla" uni1EB7.smcp
AlternateSubs2: "'aalt' Activar todas las variantes b+APoA-squeda 0 subtabla" uni1EB7.smcp
Position2: "'cpsp' Espaciado de may+APoA-sculas b+APoA-squeda 55 subtabla" dx=40 dy=0 dh=40 dv=0
EndChar

StartChar: uni1EB0
Encoding: 7856 7856 7
Width: 803
GlyphClass: 1
Flags: W
AnchorPoint: "Anclaje-42" 650 0 basechar 0
AnchorPoint: "Anclaje-37" 390 858 basechar 0
AnchorPoint: "Anclaje-34" 390 844 basechar 0
AnchorPoint: "Anclaje-33" 391 0 basechar 0
LayerCount: 2
Fore
SplineSet
275 767.5 m 0
 222 793 222 793 191 838 c 1
 236 882 l 1
 269 848 269 848 306.5 832.5 c 0
 344 817 344 817 390 817 c 256
 436 817 436 817 473.5 832.5 c 0
 511 848 511 848 544 882 c 1
 589 838 l 1
 558 793 558 793 505 767.5 c 0
 452 742 452 742 390 742 c 256
 328 742 328 742 275 767.5 c 0
357.5 905.5 m 0
 339 919 339 919 323 929 c 0
 308 938 308 938 296 947 c 0
 284 956 284 956 277 965 c 0
 257 991 257 991 256 1017 c 0
 255 1043 255 1043 274 1059 c 0
 294 1075 294 1075 321.5 1070.5 c 0
 349 1066 349 1066 366 1040 c 0
 372 1030 372 1030 378 1017.5 c 0
 384 1005 384 1005 390 991 c 0
 397 973 397 973 407 951 c 0
 417 929 417 929 431 904 c 1
 397 874 l 1
 376 892 376 892 357.5 905.5 c 0
EndSplineSet
Refer: 2 65 N 1 0 0 1 0 0 0
Substitution2: "'c2sc' May+APoA-sculas a min+APoA-sculas b+APoA-squeda 35 subtabla" uni1EB1.smcp
AlternateSubs2: "'aalt' Activar todas las variantes b+APoA-squeda 0 subtabla" uni1EB1.smcp
Position2: "'cpsp' Espaciado de may+APoA-sculas b+APoA-squeda 55 subtabla" dx=40 dy=0 dh=40 dv=0
EndChar

StartChar: uni1EB2
Encoding: 7858 7858 8
Width: 803
GlyphClass: 1
Flags: W
AnchorPoint: "Anclaje-42" 650 0 basechar 0
AnchorPoint: "Anclaje-37" 390 858 basechar 0
AnchorPoint: "Anclaje-34" 390 844 basechar 0
AnchorPoint: "Anclaje-33" 391 0 basechar 0
LayerCount: 2
Fore
SplineSet
275 767.5 m 0
 222 793 222 793 191 838 c 1
 236 882 l 1
 269 848 269 848 306.5 832.5 c 0
 344 817 344 817 390 817 c 256
 436 817 436 817 473.5 832.5 c 0
 511 848 511 848 544 882 c 1
 589 838 l 1
 558 793 558 793 505 767.5 c 0
 452 742 452 742 390 742 c 256
 328 742 328 742 275 767.5 c 0
419 929 m 0
 434 947 434 947 434 976 c 0
 434 999 434 999 422 1012 c 0
 410 1025 410 1025 388 1025 c 0
 374 1025 374 1025 365 1019.5 c 0
 356 1014 356 1014 356 1005 c 0
 356 1001 356 1001 357 996.5 c 0
 358 992 358 992 360 988 c 0
 362 983 362 983 363.5 977 c 0
 365 971 365 971 365 966 c 0
 365 952 365 952 354 943 c 0
 343 934 343 934 325 934 c 0
 303 934 303 934 289.5 948.5 c 0
 276 963 276 963 276 987 c 0
 276 1025 276 1025 308.5 1048.5 c 0
 341 1072 341 1072 394 1072 c 256
 447 1072 447 1072 480 1046 c 0
 513 1020 513 1020 513 978 c 256
 513 936 513 936 480 904 c 0
 447 872 447 872 386 854 c 1
 367 896 l 1
 404 911 404 911 419 929 c 0
EndSplineSet
Refer: 2 65 N 1 0 0 1 0 0 0
Substitution2: "'c2sc' May+APoA-sculas a min+APoA-sculas b+APoA-squeda 35 subtabla" uni1EB3.smcp
AlternateSubs2: "'aalt' Activar todas las variantes b+APoA-squeda 0 subtabla" uni1EB3.smcp
Position2: "'cpsp' Espaciado de may+APoA-sculas b+APoA-squeda 55 subtabla" dx=40 dy=0 dh=40 dv=0
EndChar

StartChar: uni1EB4
Encoding: 7860 7860 9
Width: 803
GlyphClass: 1
Flags: W
AnchorPoint: "Anclaje-42" 650 0 basechar 0
AnchorPoint: "Anclaje-37" 390 858 basechar 0
AnchorPoint: "Anclaje-34" 390 1118 basechar 0
AnchorPoint: "Anclaje-33" 391 0 basechar 0
LayerCount: 2
Fore
SplineSet
228 1041 m 0
 260 1072 260 1072 305 1072 c 0
 328 1072 328 1072 350 1064 c 0
 372 1056 372 1056 401 1041 c 0
 424 1028 424 1028 440.5 1021.5 c 0
 457 1015 457 1015 473 1015 c 0
 494 1015 494 1015 507.5 1027.5 c 0
 521 1040 521 1040 529 1066 c 1
 589 1048 l 1
 584 1001 584 1001 552 970 c 0
 520 939 520 939 475 939 c 0
 452 939 452 939 430 947 c 0
 408 955 408 955 379 970 c 0
 355 983 355 983 338.5 989.5 c 0
 322 996 322 996 306 996 c 0
 286 996 286 996 272 983.5 c 0
 258 971 258 971 251 945 c 1
 191 963 l 1
 196 1010 196 1010 228 1041 c 0
275 767.5 m 0
 222 793 222 793 191 838 c 1
 236 882 l 1
 269 848 269 848 306.5 832.5 c 0
 344 817 344 817 390 817 c 256
 436 817 436 817 473.5 832.5 c 0
 511 848 511 848 544 882 c 1
 589 838 l 1
 558 793 558 793 505 767.5 c 0
 452 742 452 742 390 742 c 256
 328 742 328 742 275 767.5 c 0
EndSplineSet
Refer: 2 65 N 1 0 0 1 0 0 0
Substitution2: "'c2sc' May+APoA-sculas a min+APoA-sculas b+APoA-squeda 35 subtabla" uni1EB5.smcp
AlternateSubs2: "'aalt' Activar todas las variantes b+APoA-squeda 0 subtabla" uni1EB5.smcp
Position2: "'cpsp' Espaciado de may+APoA-sculas b+APoA-squeda 55 subtabla" dx=40 dy=0 dh=40 dv=0
EndChar

StartChar: Acircumflex
Encoding: 194 194 10
Width: 803
GlyphClass: 1
Flags: W
AnchorPoint: "Anclaje-43" 538 856 basechar 0
AnchorPoint: "Anclaje-42" 650 0 basechar 0
AnchorPoint: "Anclaje-34" 390 928 basechar 0
AnchorPoint: "Anclaje-33" 391 0 basechar 0
LayerCount: 2
Fore
SplineSet
174 832 m 1
 330 950 l 1
 450 950 l 1
 591 834 l 1
 551 782 l 1
 330 908 l 1
 397 908 l 1
 209 783 l 1
 174 832 l 1
EndSplineSet
Refer: 2 65 N 1 0 0 1 0 0 0
Substitution2: "'c2sc' May+APoA-sculas a min+APoA-sculas b+APoA-squeda 35 subtabla" acircumflex.smcp
AlternateSubs2: "'aalt' Activar todas las variantes b+APoA-squeda 0 subtabla" acircumflex.smcp
Position2: "'cpsp' Espaciado de may+APoA-sculas b+APoA-squeda 55 subtabla" dx=40 dy=0 dh=40 dv=0
EndChar

StartChar: uni1EA4
Encoding: 7844 7844 11
Width: 803
GlyphClass: 1
Flags: W
AnchorPoint: "Anclaje-43" 518 826 basechar 0
AnchorPoint: "Anclaje-42" 650 0 basechar 0
AnchorPoint: "Anclaje-41" 262 826 basechar 0
AnchorPoint: "Anclaje-40" 511 854 basechar 0
AnchorPoint: "Anclaje-34" 390 898 basechar 0
AnchorPoint: "Anclaje-33" 391 0 basechar 0
LayerCount: 2
Fore
SplineSet
361 896 m 1
 419 896 l 1
 462 868 462 868 502.5 845 c 0
 543 822 543 822 589 799 c 1
 563 742 l 1
 513 759 513 759 473 775.5 c 0
 433 792 433 792 383 815 c 1
 325 783 325 783 215 738 c 1
 191 789 l 1
 262 826 262 826 361 896 c 1
557.5 905.5 m 0
 576 919 576 919 592 929 c 0
 607 938 607 938 619 947 c 0
 631 956 631 956 638 965 c 0
 658 991 658 991 659 1017 c 0
 660 1043 660 1043 641 1059 c 0
 621 1075 621 1075 593.5 1070.5 c 0
 566 1066 566 1066 549 1040 c 0
 543 1030 543 1030 537 1017.5 c 0
 531 1005 531 1005 525 991 c 0
 518 973 518 973 508 951 c 0
 498 929 498 929 484 904 c 1
 518 874 l 1
 539 892 539 892 557.5 905.5 c 0
EndSplineSet
Refer: 2 65 N 1 0 0 1 0 0 0
Substitution2: "'c2sc' May+APoA-sculas a min+APoA-sculas b+APoA-squeda 35 subtabla" uni1EA5.smcp
AlternateSubs2: "'aalt' Activar todas las variantes b+APoA-squeda 0 subtabla" uni1EA5.smcp
Position2: "'cpsp' Espaciado de may+APoA-sculas b+APoA-squeda 55 subtabla" dx=40 dy=0 dh=40 dv=0
EndChar

StartChar: uni1EAC
Encoding: 7852 7852 12
Width: 803
GlyphClass: 1
Flags: W
AnchorPoint: "Anclaje-43" 538 856 basechar 0
AnchorPoint: "Anclaje-42" 650 0 basechar 0
AnchorPoint: "Anclaje-34" 390 928 basechar 0
AnchorPoint: "Anclaje-33" 391 -204 basechar 0
LayerCount: 2
Fore
SplineSet
174 832 m 1
 330 950 l 1
 450 950 l 1
 591 834 l 1
 551 782 l 1
 330 908 l 1
 397 908 l 1
 209 783 l 1
 174 832 l 1
EndSplineSet
Refer: 2 65 N 1 0 0 1 0 0 0
Refer: 535 803 N 1 0 0 1 244 0 0
Substitution2: "'c2sc' May+APoA-sculas a min+APoA-sculas b+APoA-squeda 35 subtabla" uni1EAD.smcp
AlternateSubs2: "'aalt' Activar todas las variantes b+APoA-squeda 0 subtabla" uni1EAD.smcp
Position2: "'cpsp' Espaciado de may+APoA-sculas b+APoA-squeda 55 subtabla" dx=40 dy=0 dh=40 dv=0
EndChar

StartChar: uni1EA6
Encoding: 7846 7846 13
Width: 803
GlyphClass: 1
Flags: W
AnchorPoint: "Anclaje-43" 518 826 basechar 0
AnchorPoint: "Anclaje-42" 650 0 basechar 0
AnchorPoint: "Anclaje-41" 262 826 basechar 0
AnchorPoint: "Anclaje-40" 511 854 basechar 0
AnchorPoint: "Anclaje-34" 390 898 basechar 0
AnchorPoint: "Anclaje-33" 391 0 basechar 0
LayerCount: 2
Fore
SplineSet
361 896 m 1
 419 896 l 1
 462 868 462 868 502.5 845 c 0
 543 822 543 822 589 799 c 1
 563 742 l 1
 513 759 513 759 473 775.5 c 0
 433 792 433 792 383 815 c 1
 325 783 325 783 215 738 c 1
 191 789 l 1
 262 826 262 826 361 896 c 1
219.5 905.5 m 0
 201 919 201 919 185 929 c 0
 170 938 170 938 158 947 c 0
 146 956 146 956 139 965 c 0
 119 991 119 991 118 1017 c 0
 117 1043 117 1043 136 1059 c 0
 156 1075 156 1075 183.5 1070.5 c 0
 211 1066 211 1066 228 1040 c 0
 234 1030 234 1030 240 1017.5 c 0
 246 1005 246 1005 252 991 c 0
 259 973 259 973 269 951 c 0
 279 929 279 929 293 904 c 1
 259 874 l 1
 238 892 238 892 219.5 905.5 c 0
EndSplineSet
Refer: 2 65 N 1 0 0 1 0 0 0
Substitution2: "'c2sc' May+APoA-sculas a min+APoA-sculas b+APoA-squeda 35 subtabla" uni1EA7.smcp
AlternateSubs2: "'aalt' Activar todas las variantes b+APoA-squeda 0 subtabla" uni1EA7.smcp
Position2: "'cpsp' Espaciado de may+APoA-sculas b+APoA-squeda 55 subtabla" dx=40 dy=0 dh=40 dv=0
EndChar

StartChar: uni1EA8
Encoding: 7848 7848 14
Width: 803
GlyphClass: 1
Flags: W
AnchorPoint: "Anclaje-43" 518 826 basechar 0
AnchorPoint: "Anclaje-42" 650 0 basechar 0
AnchorPoint: "Anclaje-41" 262 826 basechar 0
AnchorPoint: "Anclaje-40" 511 854 basechar 0
AnchorPoint: "Anclaje-34" 390 898 basechar 0
AnchorPoint: "Anclaje-33" 391 0 basechar 0
LayerCount: 2
Fore
SplineSet
361 896 m 1
 419 896 l 1
 462 868 462 868 502.5 845 c 0
 543 822 543 822 589 799 c 1
 563 742 l 1
 513 759 513 759 473 775.5 c 0
 433 792 433 792 383 815 c 1
 325 783 325 783 215 738 c 1
 191 789 l 1
 262 826 262 826 361 896 c 1
582 929 m 0
 597 947 597 947 597 976 c 0
 597 999 597 999 585 1012 c 0
 573 1025 573 1025 551 1025 c 0
 537 1025 537 1025 528 1019.5 c 0
 519 1014 519 1014 519 1005 c 0
 519 1001 519 1001 520 996.5 c 0
 521 992 521 992 523 988 c 0
 525 983 525 983 526.5 977 c 0
 528 971 528 971 528 966 c 0
 528 952 528 952 517 943 c 0
 506 934 506 934 488 934 c 0
 466 934 466 934 452.5 948.5 c 0
 439 963 439 963 439 987 c 0
 439 1025 439 1025 471.5 1048.5 c 0
 504 1072 504 1072 557 1072 c 256
 610 1072 610 1072 643 1046 c 0
 676 1020 676 1020 676 978 c 256
 676 936 676 936 643 904 c 0
 610 872 610 872 549 854 c 1
 530 896 l 1
 567 911 567 911 582 929 c 0
EndSplineSet
Refer: 2 65 N 1 0 0 1 0 0 0
Substitution2: "'c2sc' May+APoA-sculas a min+APoA-sculas b+APoA-squeda 35 subtabla" uni1EA9.smcp
AlternateSubs2: "'aalt' Activar todas las variantes b+APoA-squeda 0 subtabla" uni1EA9.smcp
Position2: "'cpsp' Espaciado de may+APoA-sculas b+APoA-squeda 55 subtabla" dx=40 dy=0 dh=40 dv=0
EndChar

StartChar: uni1EAA
Encoding: 7850 7850 15
Width: 803
GlyphClass: 1
Flags: W
AnchorPoint: "Anclaje-43" 518 826 basechar 0
AnchorPoint: "Anclaje-42" 650 0 basechar 0
AnchorPoint: "Anclaje-41" 262 826 basechar 0
AnchorPoint: "Anclaje-40" 511 854 basechar 0
AnchorPoint: "Anclaje-34" 390 1118 basechar 0
AnchorPoint: "Anclaje-33" 391 0 basechar 0
LayerCount: 2
Fore
SplineSet
228 1041 m 0
 260 1072 260 1072 305 1072 c 0
 328 1072 328 1072 350 1064 c 0
 372 1056 372 1056 401 1041 c 0
 424 1028 424 1028 440.5 1021.5 c 0
 457 1015 457 1015 473 1015 c 0
 494 1015 494 1015 507.5 1027.5 c 0
 521 1040 521 1040 529 1066 c 1
 589 1048 l 1
 584 1001 584 1001 552 970 c 0
 520 939 520 939 475 939 c 0
 452 939 452 939 430 947 c 0
 408 955 408 955 379 970 c 0
 355 983 355 983 338.5 989.5 c 0
 322 996 322 996 306 996 c 0
 286 996 286 996 272 983.5 c 0
 258 971 258 971 251 945 c 1
 191 963 l 1
 196 1010 196 1010 228 1041 c 0
361 896 m 1
 419 896 l 1
 462 868 462 868 502.5 845 c 0
 543 822 543 822 589 799 c 1
 563 742 l 1
 513 759 513 759 473 775.5 c 0
 433 792 433 792 383 815 c 1
 325 783 325 783 215 738 c 1
 191 789 l 1
 262 826 262 826 361 896 c 1
EndSplineSet
Refer: 2 65 N 1 0 0 1 0 0 0
Substitution2: "'c2sc' May+APoA-sculas a min+APoA-sculas b+APoA-squeda 35 subtabla" uni1EAB.smcp
AlternateSubs2: "'aalt' Activar todas las variantes b+APoA-squeda 0 subtabla" uni1EAB.smcp
Position2: "'cpsp' Espaciado de may+APoA-sculas b+APoA-squeda 55 subtabla" dx=40 dy=0 dh=40 dv=0
EndChar

StartChar: Adieresis
Encoding: 196 196 16
Width: 803
GlyphClass: 1
Flags: W
AnchorPoint: "Anclaje-42" 650 0 basechar 0
AnchorPoint: "Anclaje-34" 390 928 basechar 0
AnchorPoint: "Anclaje-33" 391 0 basechar 0
LayerCount: 2
Fore
SplineSet
445.5 781.5 m 0
 426 801 426 801 426 831 c 0
 426 860 426 860 445.5 879.5 c 0
 465 899 465 899 496 899 c 256
 527 899 527 899 546.5 879.5 c 0
 566 860 566 860 566 831 c 0
 566 801 566 801 546.5 781.5 c 0
 527 762 527 762 496 762 c 256
 465 762 465 762 445.5 781.5 c 0
233.5 781.5 m 0
 214 801 214 801 214 831 c 0
 214 860 214 860 233.5 879.5 c 0
 253 899 253 899 284 899 c 256
 315 899 315 899 334.5 879.5 c 0
 354 860 354 860 354 831 c 0
 354 801 354 801 334.5 781.5 c 0
 315 762 315 762 284 762 c 256
 253 762 253 762 233.5 781.5 c 0
EndSplineSet
Refer: 2 65 N 1 0 0 1 0 0 0
Substitution2: "'c2sc' May+APoA-sculas a min+APoA-sculas b+APoA-squeda 35 subtabla" adieresis.smcp
AlternateSubs2: "'aalt' Activar todas las variantes b+APoA-squeda 0 subtabla" adieresis.smcp
Position2: "'cpsp' Espaciado de may+APoA-sculas b+APoA-squeda 55 subtabla" dx=40 dy=0 dh=40 dv=0
EndChar

StartChar: Agrave
Encoding: 192 192 18
Width: 803
GlyphClass: 1
Flags: W
AnchorPoint: "Anclaje-42" 650 0 basechar 0
AnchorPoint: "Anclaje-34" 390 928 basechar 0
AnchorPoint: "Anclaje-33" 391 0 basechar 0
LayerCount: 2
Fore
SplineSet
376 792 m 0
 343 804 343 804 316 813 c 0
 298 820 298 820 282 826 c 0
 266 832 266 832 258 837 c 0
 230 855 230 855 221 879.5 c 0
 212 904 212 904 225 925 c 0
 239 947 239 947 265 950 c 0
 291 953 291 953 319 936 c 0
 328 931 328 931 341 918.5 c 0
 354 906 354 906 369 892 c 0
 389 871 389 871 412.5 849 c 0
 436 827 436 827 466 803 c 1
 443 764 l 1
 409 780 409 780 376 792 c 0
EndSplineSet
Refer: 2 65 N 1 0 0 1 0 0 0
Substitution2: "'c2sc' May+APoA-sculas a min+APoA-sculas b+APoA-squeda 35 subtabla" agrave.smcp
AlternateSubs2: "'aalt' Activar todas las variantes b+APoA-squeda 0 subtabla" agrave.smcp
Position2: "'cpsp' Espaciado de may+APoA-sculas b+APoA-squeda 55 subtabla" dx=40 dy=0 dh=40 dv=0
EndChar

StartChar: uni1EA2
Encoding: 7842 7842 19
Width: 803
GlyphClass: 1
Flags: W
AnchorPoint: "Anclaje-42" 650 0 basechar 0
AnchorPoint: "Anclaje-34" 390 708 basechar 0
AnchorPoint: "Anclaje-33" 391 0 basechar 0
LayerCount: 2
Fore
SplineSet
419 829 m 0
 434 847 434 847 434 876 c 0
 434 899 434 899 422 912 c 0
 410 925 410 925 388 925 c 0
 374 925 374 925 365 919.5 c 0
 356 914 356 914 356 905 c 0
 356 901 356 901 357 896.5 c 0
 358 892 358 892 360 888 c 0
 362 883 362 883 363.5 877 c 0
 365 871 365 871 365 866 c 0
 365 852 365 852 354 843 c 0
 343 834 343 834 325 834 c 0
 303 834 303 834 289.5 848.5 c 0
 276 863 276 863 276 887 c 0
 276 925 276 925 308.5 948.5 c 0
 341 972 341 972 394 972 c 256
 447 972 447 972 480 946 c 0
 513 920 513 920 513 878 c 256
 513 836 513 836 480 804 c 0
 447 772 447 772 386 754 c 1
 367 796 l 1
 404 811 404 811 419 829 c 0
EndSplineSet
Refer: 2 65 N 1 0 0 1 0 0 0
Substitution2: "'c2sc' May+APoA-sculas a min+APoA-sculas b+APoA-squeda 35 subtabla" uni1EA3.smcp
AlternateSubs2: "'aalt' Activar todas las variantes b+APoA-squeda 0 subtabla" uni1EA3.smcp
Position2: "'cpsp' Espaciado de may+APoA-sculas b+APoA-squeda 55 subtabla" dx=40 dy=0 dh=40 dv=0
EndChar

StartChar: Amacron
Encoding: 256 256 20
Width: 803
GlyphClass: 1
Flags: W
AnchorPoint: "Anclaje-42" 650 0 basechar 0
AnchorPoint: "Anclaje-34" 391 928 basechar 0
AnchorPoint: "Anclaje-33" 391 0 basechar 0
LayerCount: 2
Fore
SplineSet
214 869 m 1
 566 869 l 1
 566 794 l 1
 214 794 l 1
 214 869 l 1
EndSplineSet
Refer: 2 65 N 1 0 0 1 0 0 0
Substitution2: "'c2sc' May+APoA-sculas a min+APoA-sculas b+APoA-squeda 35 subtabla" amacron.smcp
AlternateSubs2: "'aalt' Activar todas las variantes b+APoA-squeda 0 subtabla" amacron.smcp
Position2: "'cpsp' Espaciado de may+APoA-sculas b+APoA-squeda 55 subtabla" dx=40 dy=0 dh=40 dv=0
EndChar

StartChar: Aogonek
Encoding: 260 260 21
Width: 803
GlyphClass: 1
Flags: W
AnchorPoint: "Anclaje-34" 391 708 basechar 0
LayerCount: 2
Fore
SplineSet
446 -221.5 m 128,-1,1
 420 -198 420 -198 420 -159 c 0,2,3
 420 -133 420 -133 434.5 -106 c 128,-1,4
 449 -79 449 -79 480 -48 c 0,5,6
 493 -36 493 -36 509 -22 c 0,7,8
 545 8 545 8 558 27.5 c 128,-1,9
 571 47 571 47 570 63.5 c 128,-1,10
 569 80 569 80 558 109 c 2,11,-1
 373 594 l 1,12,-1
 393 609 l 1,13,-1
 241 212 l 2,14,15
 218 153 218 153 218.5 124 c 128,-1,16
 219 95 219 95 244.5 83 c 128,-1,17
 270 71 270 71 330 70 c 1,18,-1
 330 0 l 1,19,20
 222 3 222 3 145 3 c 0,21,22
 79 3 79 3 10 0 c 1,23,-1
 10 70 l 1,24,25
 51 70 51 70 77.5 80.5 c 128,-1,26
 104 91 104 91 123 115.5 c 128,-1,27
 142 140 142 140 159 184 c 2,28,-1
 359 708 l 1,29,-1
 425 708 l 1,30,-1
 630 170 l 2,31,32
 651 115 651 115 685 92.5 c 128,-1,33
 719 70 719 70 783 70 c 1,34,-1
 783 0 l 1,35,36
 702 4 702 4 640.5 -14.5 c 128,-1,37
 579 -33 579 -33 546 -65 c 128,-1,38
 513 -97 513 -97 513 -133 c 0,39,40
 513 -152 513 -152 522 -161 c 128,-1,41
 531 -170 531 -170 549 -170 c 0,42,43
 563 -170 563 -170 575.5 -166 c 128,-1,44
 588 -162 588 -162 597 -154 c 1,45,-1
 622 -209 l 1,46,47
 603 -225 603 -225 574 -235 c 128,-1,48
 545 -245 545 -245 516 -245 c 0,49,0
 472 -245 472 -245 446 -221.5 c 128,-1,1
233 293 m 1,50,-1
 541 293 l 1,51,-1
 566 223 l 1,52,-1
 205 223 l 1,53,-1
 233 293 l 1,50,-1
EndSplineSet
Substitution2: "'c2sc' May+APoA-sculas a min+APoA-sculas b+APoA-squeda 35 subtabla" aogonek.smcp
AlternateSubs2: "'aalt' Activar todas las variantes b+APoA-squeda 0 subtabla" aogonek.smcp
Position2: "'cpsp' Espaciado de may+APoA-sculas b+APoA-squeda 55 subtabla" dx=40 dy=0 dh=40 dv=0
EndChar

StartChar: Aring
Encoding: 197 197 22
Width: 803
GlyphClass: 1
Flags: W
AnchorPoint: "Anclaje-42" 650 0 basechar 0
AnchorPoint: "Anclaje-34" 390 927 basechar 0
AnchorPoint: "Anclaje-33" 391 0 basechar 0
LayerCount: 2
Fore
SplineSet
296.5 772.5 m 0
 258 804 258 804 258 855 c 256
 258 906 258 906 296.5 937 c 0
 335 968 335 968 390 968 c 256
 445 968 445 968 484 937 c 0
 523 906 523 906 523 855 c 0
 523 803 523 803 484 772 c 0
 445 741 445 741 390 741 c 256
 335 741 335 741 296.5 772.5 c 0
450 801.5 m 0
 474 820 474 820 474 854 c 256
 474 888 474 888 450 907 c 0
 426 926 426 926 390 926 c 0
 355 926 355 926 331 907 c 0
 307 888 307 888 307 854 c 256
 307 820 307 820 330.5 801.5 c 0
 354 783 354 783 390 783 c 256
 426 783 426 783 450 801.5 c 0
EndSplineSet
Refer: 2 65 N 1 0 0 1 0 0 0
Substitution2: "'c2sc' May+APoA-sculas a min+APoA-sculas b+APoA-squeda 35 subtabla" aring.smcp
AlternateSubs2: "'aalt' Activar todas las variantes b+APoA-squeda 0 subtabla" aring.smcp
Position2: "'cpsp' Espaciado de may+APoA-sculas b+APoA-squeda 55 subtabla" dx=40 dy=0 dh=40 dv=0
EndChar

StartChar: Atilde
Encoding: 195 195 23
Width: 803
GlyphClass: 1
Flags: W
AnchorPoint: "Anclaje-42" 650 0 basechar 0
AnchorPoint: "Anclaje-34" 390 928 basechar 0
AnchorPoint: "Anclaje-33" 391 0 basechar 0
LayerCount: 2
Fore
SplineSet
428.5 780.5 m 0
 405 789 405 789 377 804 c 0
 352 817 352 817 335.5 823 c 0
 319 829 319 829 303 829 c 0
 283 829 283 829 269 816.5 c 0
 255 804 255 804 248 778 c 1
 188 796 l 1
 193 843 193 843 225 874 c 0
 257 905 257 905 302 905 c 0
 326 905 326 905 349.5 896.5 c 0
 373 888 373 888 400 873 c 0
 426 860 426 860 442 854 c 0
 458 848 458 848 474 848 c 0
 495 848 495 848 508.5 860.5 c 0
 522 873 522 873 530 899 c 1
 590 881 l 1
 585 834 585 834 553 803 c 0
 521 772 521 772 476 772 c 0
 452 772 452 772 428.5 780.5 c 0
EndSplineSet
Refer: 2 65 N 1 0 0 1 0 0 0
Substitution2: "'c2sc' May+APoA-sculas a min+APoA-sculas b+APoA-squeda 35 subtabla" atilde.smcp
AlternateSubs2: "'aalt' Activar todas las variantes b+APoA-squeda 0 subtabla" atilde.smcp
Position2: "'cpsp' Espaciado de may+APoA-sculas b+APoA-squeda 55 subtabla" dx=40 dy=0 dh=40 dv=0
EndChar

StartChar: AE
Encoding: 198 198 24
Width: 944
GlyphClass: 1
Flags: W
AnchorPoint: "Anclaje-34" 457 708 basechar 0
AnchorPoint: "Anclaje-33" 442 0 basechar 0
LayerCount: 2
Fore
SplineSet
52 86 m 0,1,2
 73 99 73 99 92.5 122.5 c 128,-1,3
 112 146 112 146 135 185 c 2,4,-1
 481 772 l 1,5,-1
 555 772 l 1,6,-1
 218 199 l 2,7,8
 194 158 194 158 191.5 129 c 128,-1,9
 189 100 189 100 209.5 85 c 128,-1,10
 230 70 230 70 271 70 c 1,11,-1
 271 0 l 1,12,13
 203 2 203 2 135 3 c 0,14,15
 29 3 29 3 -10 0 c 1,16,-1
 -10 70 l 1,17,0
 24 70 24 70 52 86 c 0,1,2
296 391 m 1,18,-1
 624 391 l 1,19,-1
 624 321 l 1,20,-1
 255 321 l 1,21,-1
 296 391 l 1,18,-1
409.5 78.5 m 128,-1,23
 432 85 432 85 440 102 c 128,-1,24
 448 119 448 119 448 156 c 2,25,-1
 448 552 l 2,26,27
 448 589 448 589 440 606 c 128,-1,28
 432 623 432 623 409.5 629.5 c 128,-1,29
 387 636 387 636 337 638 c 1,30,-1
 337 708 l 1,31,32
 393 706 393 706 440 706 c 0,33,34
 494 705 494 705 637 705 c 0,35,36
 675 705 675 705 720 705.5 c 128,-1,37
 765 706 765 706 796 708 c 1,38,39
 797 604 797 604 812 508 c 1,40,-1
 739 508 l 1,41,42
 733 554 733 554 719.5 581.5 c 128,-1,43
 706 609 706 609 683 622 c 128,-1,44
 660 635 660 635 625 635 c 2,45,-1
 541 635 l 1,46,-1
 541 156 l 2,47,48
 541 119 541 119 547 102 c 128,-1,49
 553 85 553 85 569.5 79 c 128,-1,50
 586 73 586 73 622 73 c 2,51,-1
 625 73 l 2,52,53
 674 73 674 73 701 87 c 128,-1,54
 728 101 728 101 745 137.5 c 128,-1,55
 762 174 762 174 779 250 c 1,56,-1
 852 250 l 1,57,58
 838 146 838 146 836 0 c 1,59,60
 796 2 796 2 746.5 2.5 c 128,-1,61
 697 3 697 3 637 3 c 0,62,63
 495 3 495 3 369 1 c 2,64,-1
 337 0 l 1,65,-1
 337 70 l 1,66,22
 387 72 387 72 409.5 78.5 c 128,-1,23
627 278 m 128,-1,68
 619 301 619 301 603.5 311 c 128,-1,69
 588 321 588 321 562 321 c 1,70,-1
 562 391 l 1,71,72
 584 391 584 391 598 399.5 c 128,-1,73
 612 408 612 408 620.5 427 c 128,-1,74
 629 446 629 446 633 478 c 0,75,76
 634 488 634 488 635 498 c 1,77,-1
 698 498 l 1,78,79
 695 456 695 456 694.5 427.5 c 128,-1,80
 694 399 694 399 695 377 c 2,81,-1
 695 356 l 2,82,83
 695 288 695 288 701 214 c 1,84,-1
 638 214 l 1,85,67
 635 255 635 255 627 278 c 128,-1,68
EndSplineSet
Substitution2: "'c2sc' May+APoA-sculas a min+APoA-sculas b+APoA-squeda 35 subtabla" ae.smcp
AlternateSubs2: "'aalt' Activar todas las variantes b+APoA-squeda 0 subtabla" ae.smcp
Position2: "'cpsp' Espaciado de may+APoA-sculas b+APoA-squeda 55 subtabla" dx=40 dy=0 dh=40 dv=0
EndChar

StartChar: B
Encoding: 66 66 25
Width: 733
GlyphClass: 1
Flags: W
AnchorPoint: "Anclaje-34" 402 708 basechar 0
AnchorPoint: "Anclaje-33" 402 0 basechar 0
LayerCount: 2
Fore
SplineSet
164.5 78.5 m 128,-1,1
 193 85 193 85 203 102 c 128,-1,2
 213 119 213 119 213 156 c 2,3,-1
 213 552 l 2,4,5
 213 589 213 589 203 606 c 128,-1,6
 193 623 193 623 164.5 629.5 c 128,-1,7
 136 636 136 636 72 638 c 1,8,-1
 72 708 l 1,9,10
 117 705 117 705 250 705 c 0,11,12
 305 705 305 705 365 707 c 0,13,14
 385 708 385 708 405 708 c 0,15,16
 504 708 504 708 560 663 c 128,-1,17
 616 618 616 618 616 539 c 0,18,19
 616 484 616 484 589.5 443 c 128,-1,20
 563 402 563 402 514 383 c 1,21,-1
 514 381 l 1,22,23
 588 366 588 366 628 319.5 c 128,-1,24
 668 273 668 273 668 202 c 0,25,26
 668 141 668 141 638.5 95 c 128,-1,27
 609 49 609 49 554.5 24.5 c 128,-1,28
 500 0 500 0 427 0 c 0,29,30
 406 1 406 1 384 1 c 0,31,32
 320 3 320 3 252 3 c 0,33,34
 117 3 117 3 72 0 c 1,35,-1
 72 70 l 1,36,0
 136 72 136 72 164.5 78.5 c 128,-1,1
521.5 107 m 128,-1,38
 568 141 568 141 568 208 c 0,39,40
 568 271 568 271 524 302 c 128,-1,41
 480 333 480 333 390 333 c 2,42,-1
 287 333 l 1,43,-1
 287 402 l 1,44,-1
 373 402 l 2,45,46
 446 402 446 402 483 433.5 c 128,-1,47
 520 465 520 465 520 526 c 0,48,49
 520 584 520 584 486.5 611 c 128,-1,50
 453 638 453 638 382 638 c 2,51,-1
 306 638 l 1,52,-1
 306 156 l 2,53,54
 306 120 306 120 312 103 c 128,-1,55
 318 86 318 86 333.5 79.5 c 128,-1,56
 349 73 349 73 383 73 c 0,57,37
 475 73 475 73 521.5 107 c 128,-1,38
EndSplineSet
Substitution2: "'c2sc' May+APoA-sculas a min+APoA-sculas b+APoA-squeda 35 subtabla" b.smcp
AlternateSubs2: "'aalt' Activar todas las variantes b+APoA-squeda 0 subtabla" b.smcp
Position2: "'cpsp' Espaciado de may+APoA-sculas b+APoA-squeda 55 subtabla" dx=40 dy=0 dh=40 dv=0
EndChar

StartChar: C
Encoding: 67 67 26
Width: 773
GlyphClass: 1
Flags: W
AnchorPoint: "Anclaje-34" 370 708 basechar 0
AnchorPoint: "Anclaje-33" 394 0 basechar 0
LayerCount: 2
Fore
SplineSet
219 30.5 m 128,-1,1
 154 75 154 75 118.5 156.5 c 128,-1,2
 83 238 83 238 83 344 c 0,3,4
 83 453 83 453 121 539 c 128,-1,5
 159 625 159 625 226.5 673.5 c 128,-1,6
 294 722 294 722 380 722 c 0,7,8
 434 722 434 722 469 706 c 128,-1,9
 504 690 504 690 537 665 c 0,10,11
 546 658 546 658 553.5 653 c 128,-1,12
 561 648 561 648 566 648 c 0,13,14
 575 648 575 648 581 663.5 c 128,-1,15
 587 679 587 679 590 712 c 1,16,-1
 663 712 l 1,17,18
 661 678 661 678 660.5 634 c 128,-1,19
 660 590 660 590 659 530 c 2,20,-1
 659 448 l 1,21,-1
 586 448 l 1,22,23
 577 510 577 510 549 556.5 c 128,-1,24
 521 603 521 603 478 628.5 c 128,-1,25
 435 654 435 654 383 654 c 0,26,27
 322 654 322 654 277 617.5 c 128,-1,28
 232 581 232 581 207.5 513.5 c 128,-1,29
 183 446 183 446 183 355 c 256,30,31
 183 264 183 264 207.5 196 c 128,-1,32
 232 128 232 128 276.5 91 c 128,-1,33
 321 54 321 54 381 54 c 0,34,35
 434 54 434 54 477.5 80.5 c 128,-1,36
 521 107 521 107 549.5 154 c 128,-1,37
 578 201 578 201 586 260 c 1,38,-1
 659 260 l 1,39,-1
 659 180 l 2,40,41
 660 121 660 121 660.5 76 c 128,-1,42
 661 31 661 31 663 -4 c 1,43,-1
 590 -4 l 1,44,45
 587 30 587 30 581.5 44.5 c 128,-1,46
 576 59 576 59 566 59 c 0,47,48
 560 59 560 59 550.5 53.5 c 128,-1,49
 541 48 541 48 530 41 c 0,50,51
 495 16 495 16 459.5 1 c 128,-1,52
 424 -14 424 -14 369 -14 c 0,53,0
 284 -14 284 -14 219 30.5 c 128,-1,1
EndSplineSet
Substitution2: "'c2sc' May+APoA-sculas a min+APoA-sculas b+APoA-squeda 35 subtabla" c.smcp
AlternateSubs2: "'aalt' Activar todas las variantes b+APoA-squeda 0 subtabla" c.smcp
Position2: "'cpsp' Espaciado de may+APoA-sculas b+APoA-squeda 55 subtabla" dx=40 dy=0 dh=40 dv=0
EndChar

StartChar: Cacute
Encoding: 262 262 27
Width: 773
GlyphClass: 1
Flags: W
AnchorPoint: "Anclaje-34" 370 928 basechar 0
AnchorPoint: "Anclaje-33" 394 0 basechar 0
LayerCount: 2
Fore
SplineSet
384 792 m 0
 417 804 417 804 444 813 c 0
 462 820 462 820 478 826 c 0
 494 832 494 832 502 837 c 0
 530 855 530 855 539 879.5 c 0
 548 904 548 904 535 925 c 0
 521 947 521 947 495 950 c 0
 469 953 469 953 441 936 c 0
 432 931 432 931 419 918.5 c 0
 406 906 406 906 391 892 c 0
 371 871 371 871 347.5 849 c 0
 324 827 324 827 294 803 c 1
 317 764 l 1
 351 780 351 780 384 792 c 0
EndSplineSet
Refer: 26 67 N 1 0 0 1 0 0 0
Substitution2: "'c2sc' May+APoA-sculas a min+APoA-sculas b+APoA-squeda 35 subtabla" cacute.smcp
Substitution2: "'locl' Formas localizadas en Latin b+APoA-squeda 7 subtabla" Cacute.loclPLK
AlternateSubs2: "'aalt' Activar todas las variantes b+APoA-squeda 0 subtabla" Cacute.loclPLK cacute.smcp
Position2: "'cpsp' Espaciado de may+APoA-sculas b+APoA-squeda 55 subtabla" dx=40 dy=0 dh=40 dv=0
EndChar

StartChar: Ccaron
Encoding: 268 268 28
Width: 773
GlyphClass: 1
Flags: W
AnchorPoint: "Anclaje-34" 370 928 basechar 0
AnchorPoint: "Anclaje-33" 394 0 basechar 0
LayerCount: 2
Fore
SplineSet
573 900 m 1
 417 782 l 1
 297 782 l 1
 156 898 l 1
 196 950 l 1
 417 824 l 1
 350 824 l 1
 538 949 l 1
 573 900 l 1
EndSplineSet
Refer: 26 67 N 1 0 0 1 0 0 0
Substitution2: "'c2sc' May+APoA-sculas a min+APoA-sculas b+APoA-squeda 35 subtabla" ccaron.smcp
AlternateSubs2: "'aalt' Activar todas las variantes b+APoA-squeda 0 subtabla" ccaron.smcp
Position2: "'cpsp' Espaciado de may+APoA-sculas b+APoA-squeda 55 subtabla" dx=40 dy=0 dh=40 dv=0
EndChar

StartChar: Ccircumflex
Encoding: 264 264 30
Width: 773
GlyphClass: 1
Flags: W
AnchorPoint: "Anclaje-43" 518 856 basechar 0
AnchorPoint: "Anclaje-34" 370 928 basechar 0
AnchorPoint: "Anclaje-33" 394 0 basechar 0
LayerCount: 2
Fore
SplineSet
154 832 m 1
 310 950 l 1
 430 950 l 1
 571 834 l 1
 531 782 l 1
 310 908 l 1
 377 908 l 1
 189 783 l 1
 154 832 l 1
EndSplineSet
Refer: 26 67 N 1 0 0 1 0 0 0
Substitution2: "'c2sc' May+APoA-sculas a min+APoA-sculas b+APoA-squeda 35 subtabla" ccircumflex.smcp
AlternateSubs2: "'aalt' Activar todas las variantes b+APoA-squeda 0 subtabla" ccircumflex.smcp
Position2: "'cpsp' Espaciado de may+APoA-sculas b+APoA-squeda 55 subtabla" dx=40 dy=0 dh=40 dv=0
EndChar

StartChar: Cdotaccent
Encoding: 266 266 31
Width: 773
GlyphClass: 1
Flags: W
AnchorPoint: "Anclaje-34" 370 928 basechar 0
AnchorPoint: "Anclaje-33" 394 0 basechar 0
LayerCount: 2
Fore
SplineSet
317 796 m 0
 295 818 295 818 295 849 c 256
 295 880 295 880 317 902 c 0
 339 924 339 924 370 924 c 256
 401 924 401 924 423 902 c 0
 445 880 445 880 445 849 c 256
 445 818 445 818 423 796 c 0
 401 774 401 774 370 774 c 256
 339 774 339 774 317 796 c 0
EndSplineSet
Refer: 26 67 N 1 0 0 1 0 0 0
Substitution2: "'c2sc' May+APoA-sculas a min+APoA-sculas b+APoA-squeda 35 subtabla" cdotaccent.smcp
AlternateSubs2: "'aalt' Activar todas las variantes b+APoA-squeda 0 subtabla" cdotaccent.smcp
Position2: "'cpsp' Espaciado de may+APoA-sculas b+APoA-squeda 55 subtabla" dx=40 dy=0 dh=40 dv=0
EndChar

StartChar: D
Encoding: 68 68 32
Width: 841
GlyphClass: 1
Flags: W
AnchorPoint: "Anclaje-38" 260 356 basechar 0
AnchorPoint: "Anclaje-34" 448 708 basechar 0
AnchorPoint: "Anclaje-33" 432 0 basechar 0
LayerCount: 2
Fore
SplineSet
164.5 78.5 m 128,-1,1
 193 85 193 85 203 102 c 128,-1,2
 213 119 213 119 213 156 c 2,3,-1
 213 552 l 2,4,5
 213 589 213 589 203 606 c 128,-1,6
 193 623 193 623 164.5 629.5 c 128,-1,7
 136 636 136 636 72 638 c 1,8,-1
 72 708 l 1,9,10
 135 705 135 705 254 705 c 0,11,12
 291 705 291 705 347 707 c 2,13,-1
 400 708 l 2,14,15
 576 708 576 708 667 622 c 128,-1,16
 758 536 758 536 758 369 c 0,17,18
 758 254 758 254 715 171 c 128,-1,19
 672 88 672 88 590.5 44 c 128,-1,20
 509 0 509 0 396 0 c 0,21,22
 372 1 372 1 347 1 c 0,23,24
 295 3 295 3 255 3 c 0,25,26
 171 3 171 3 72 0 c 1,27,-1
 72 70 l 1,28,0
 136 72 136 72 164.5 78.5 c 128,-1,1
539 98.5 m 128,-1,30
 599 129 599 129 628.5 192.5 c 128,-1,31
 658 256 658 256 658 354 c 0,32,33
 658 455 658 455 630 518 c 128,-1,34
 602 581 602 581 542.5 610.5 c 128,-1,35
 483 640 483 640 386 640 c 2,36,-1
 306 640 l 1,37,-1
 306 154 l 2,38,39
 306 116 306 116 312 98.5 c 128,-1,40
 318 81 318 81 334 74.5 c 128,-1,41
 350 68 350 68 385 68 c 0,42,29
 479 68 479 68 539 98.5 c 128,-1,30
EndSplineSet
Substitution2: "'c2sc' May+APoA-sculas a min+APoA-sculas b+APoA-squeda 35 subtabla" d.smcp
AlternateSubs2: "'aalt' Activar todas las variantes b+APoA-squeda 0 subtabla" d.smcp
Position2: "'cpsp' Espaciado de may+APoA-sculas b+APoA-squeda 55 subtabla" dx=40 dy=0 dh=40 dv=0
EndChar

StartChar: Dcaron
Encoding: 270 270 33
Width: 841
GlyphClass: 1
Flags: W
AnchorPoint: "Anclaje-38" 260 356 basechar 0
AnchorPoint: "Anclaje-34" 448 928 basechar 0
AnchorPoint: "Anclaje-33" 432 0 basechar 0
LayerCount: 2
Fore
SplineSet
651 900 m 1
 495 782 l 1
 375 782 l 1
 234 898 l 1
 274 950 l 1
 495 824 l 1
 428 824 l 1
 616 949 l 1
 651 900 l 1
EndSplineSet
Refer: 32 68 N 1 0 0 1 0 0 0
Substitution2: "'c2sc' May+APoA-sculas a min+APoA-sculas b+APoA-squeda 35 subtabla" dcaron.smcp
AlternateSubs2: "'aalt' Activar todas las variantes b+APoA-squeda 0 subtabla" dcaron.smcp
Position2: "'cpsp' Espaciado de may+APoA-sculas b+APoA-squeda 55 subtabla" dx=40 dy=0 dh=40 dv=0
EndChar

StartChar: Eth
Encoding: 208 208 35
Width: 841
GlyphClass: 1
Flags: W
AnchorPoint: "Anclaje-38" 260 356 basechar 0
AnchorPoint: "Anclaje-34" 448 708 basechar 0
AnchorPoint: "Anclaje-33" 432 0 basechar 0
LayerCount: 2
Fore
SplineSet
164.5 78.5 m 128,-1,1
 193 85 193 85 203 102 c 128,-1,2
 213 119 213 119 213 156 c 2,3,-1
 213 552 l 2,4,5
 213 589 213 589 203 606 c 128,-1,6
 193 623 193 623 164.5 629.5 c 128,-1,7
 136 636 136 636 72 638 c 1,8,-1
 72 708 l 1,9,10
 135 705 135 705 254 705 c 0,11,12
 291 705 291 705 347 707 c 2,13,-1
 400 708 l 2,14,15
 576 708 576 708 667 622 c 128,-1,16
 758 536 758 536 758 369 c 0,17,18
 758 254 758 254 715 171 c 128,-1,19
 672 88 672 88 590.5 44 c 128,-1,20
 509 0 509 0 396 0 c 0,21,22
 372 1 372 1 347 1 c 0,23,24
 295 3 295 3 255 3 c 0,25,26
 171 3 171 3 72 0 c 1,27,-1
 72 70 l 1,28,0
 136 72 136 72 164.5 78.5 c 128,-1,1
539 98.5 m 128,-1,30
 599 129 599 129 628.5 192.5 c 128,-1,31
 658 256 658 256 658 354 c 0,32,33
 658 455 658 455 630 518 c 128,-1,34
 602 581 602 581 542.5 610.5 c 128,-1,35
 483 640 483 640 386 640 c 2,36,-1
 306 640 l 1,37,-1
 306 154 l 2,38,39
 306 116 306 116 312 98.5 c 128,-1,40
 318 81 318 81 334 74.5 c 128,-1,41
 350 68 350 68 385 68 c 0,42,29
 479 68 479 68 539 98.5 c 128,-1,30
50 391 m 1,43,-1
 469 391 l 1,44,-1
 469 321 l 1,45,-1
 50 321 l 1,46,-1
 50 391 l 1,43,-1
EndSplineSet
Substitution2: "'c2sc' May+APoA-sculas a min+APoA-sculas b+APoA-squeda 35 subtabla" eth.smcp
AlternateSubs2: "'aalt' Activar todas las variantes b+APoA-squeda 0 subtabla" eth.smcp
Position2: "'cpsp' Espaciado de may+APoA-sculas b+APoA-squeda 55 subtabla" dx=40 dy=0 dh=40 dv=0
EndChar

StartChar: E
Encoding: 69 69 36
Width: 759
GlyphClass: 1
Flags: W
AnchorPoint: "Anclaje-42" 611 0 basechar 0
AnchorPoint: "Anclaje-34" 346 708 basechar 0
AnchorPoint: "Anclaje-33" 415 0 basechar 0
LayerCount: 2
Fore
SplineSet
164.5 78.5 m 128,-1,1
 193 85 193 85 203 102 c 128,-1,2
 213 119 213 119 213 156 c 2,3,-1
 213 552 l 2,4,5
 213 589 213 589 203 606 c 128,-1,6
 193 623 193 623 164.5 629.5 c 128,-1,7
 136 636 136 636 72 638 c 1,8,-1
 72 708 l 1,9,10
 180 705 180 705 422 705 c 0,11,12
 548 705 548 705 611 708 c 1,13,14
 612 604 612 604 627 508 c 1,15,-1
 554 508 l 1,16,17
 547 554 547 554 531 581.5 c 128,-1,18
 515 609 515 609 488 622 c 128,-1,19
 461 635 461 635 420 635 c 2,20,-1
 306 635 l 1,21,-1
 306 156 l 2,22,23
 306 119 306 119 312 102 c 128,-1,24
 318 85 318 85 334.5 79 c 128,-1,25
 351 73 351 73 387 73 c 2,26,-1
 410 73 l 2,27,28
 469 73 469 73 501 87 c 128,-1,29
 533 101 533 101 553.5 137.5 c 128,-1,30
 574 174 574 174 594 250 c 1,31,-1
 667 250 l 1,32,33
 653 146 653 146 651 0 c 1,34,35
 566 3 566 3 422 3 c 0,36,37
 180 3 180 3 72 0 c 1,38,-1
 72 70 l 1,39,0
 136 72 136 72 164.5 78.5 c 128,-1,1
276 391 m 1,40,-1
 409 391 l 1,41,-1
 409 321 l 1,42,-1
 276 321 l 1,43,-1
 276 391 l 1,40,-1
434 278 m 128,-1,45
 426 301 426 301 410.5 311 c 128,-1,46
 395 321 395 321 369 321 c 1,47,-1
 369 391 l 1,48,49
 393 391 393 391 408 401.5 c 128,-1,50
 423 412 423 412 431 435 c 128,-1,51
 439 458 439 458 442 498 c 1,52,-1
 505 498 l 1,53,54
 502 456 502 456 501.5 427.5 c 128,-1,55
 501 399 501 399 502 377 c 2,56,-1
 502 356 l 2,57,58
 502 288 502 288 508 214 c 1,59,-1
 445 214 l 1,60,44
 442 255 442 255 434 278 c 128,-1,45
EndSplineSet
Substitution2: "'c2sc' May+APoA-sculas a min+APoA-sculas b+APoA-squeda 35 subtabla" e.smcp
AlternateSubs2: "'aalt' Activar todas las variantes b+APoA-squeda 0 subtabla" e.smcp
Position2: "'cpsp' Espaciado de may+APoA-sculas b+APoA-squeda 55 subtabla" dx=40 dy=0 dh=40 dv=0
EndChar

StartChar: Eacute
Encoding: 201 201 37
Width: 759
GlyphClass: 1
Flags: W
AnchorPoint: "Anclaje-42" 611 0 basechar 0
AnchorPoint: "Anclaje-34" 346 928 basechar 0
AnchorPoint: "Anclaje-33" 415 0 basechar 0
LayerCount: 2
Fore
SplineSet
360 792 m 0
 393 804 393 804 420 813 c 0
 438 820 438 820 454 826 c 0
 470 832 470 832 478 837 c 0
 506 855 506 855 515 879.5 c 0
 524 904 524 904 511 925 c 0
 497 947 497 947 471 950 c 0
 445 953 445 953 417 936 c 0
 408 931 408 931 395 918.5 c 0
 382 906 382 906 367 892 c 0
 347 871 347 871 323.5 849 c 0
 300 827 300 827 270 803 c 1
 293 764 l 1
 327 780 327 780 360 792 c 0
EndSplineSet
Refer: 36 69 N 1 0 0 1 0 0 0
Substitution2: "'c2sc' May+APoA-sculas a min+APoA-sculas b+APoA-squeda 35 subtabla" eacute.smcp
AlternateSubs2: "'aalt' Activar todas las variantes b+APoA-squeda 0 subtabla" eacute.smcp
Position2: "'cpsp' Espaciado de may+APoA-sculas b+APoA-squeda 55 subtabla" dx=40 dy=0 dh=40 dv=0
EndChar

StartChar: Ebreve
Encoding: 276 276 38
Width: 759
GlyphClass: 1
Flags: W
AnchorPoint: "Anclaje-42" 611 0 basechar 0
AnchorPoint: "Anclaje-37" 346 858 basechar 0
AnchorPoint: "Anclaje-34" 346 858 basechar 0
AnchorPoint: "Anclaje-33" 415 0 basechar 0
LayerCount: 2
Fore
SplineSet
220.5 801 m 0
 162 830 162 830 127 880 c 1
 172 924 l 1
 210 887 210 887 252 869.5 c 0
 294 852 294 852 346 852 c 256
 398 852 398 852 440 869.5 c 0
 482 887 482 887 520 924 c 1
 565 880 l 1
 530 830 530 830 471.5 801 c 0
 413 772 413 772 346 772 c 256
 279 772 279 772 220.5 801 c 0
EndSplineSet
Refer: 36 69 N 1 0 0 1 0 0 0
Substitution2: "'c2sc' May+APoA-sculas a min+APoA-sculas b+APoA-squeda 35 subtabla" ebreve.smcp
AlternateSubs2: "'aalt' Activar todas las variantes b+APoA-squeda 0 subtabla" ebreve.smcp
Position2: "'cpsp' Espaciado de may+APoA-sculas b+APoA-squeda 55 subtabla" dx=40 dy=0 dh=40 dv=0
EndChar

StartChar: Ecaron
Encoding: 282 282 39
Width: 759
GlyphClass: 1
Flags: W
AnchorPoint: "Anclaje-42" 611 0 basechar 0
AnchorPoint: "Anclaje-34" 346 928 basechar 0
AnchorPoint: "Anclaje-33" 415 0 basechar 0
LayerCount: 2
Fore
SplineSet
549 900 m 1
 393 782 l 1
 273 782 l 1
 132 898 l 1
 172 950 l 1
 393 824 l 1
 326 824 l 1
 514 949 l 1
 549 900 l 1
EndSplineSet
Refer: 36 69 N 1 0 0 1 0 0 0
Substitution2: "'c2sc' May+APoA-sculas a min+APoA-sculas b+APoA-squeda 35 subtabla" ecaron.smcp
AlternateSubs2: "'aalt' Activar todas las variantes b+APoA-squeda 0 subtabla" ecaron.smcp
Position2: "'cpsp' Espaciado de may+APoA-sculas b+APoA-squeda 55 subtabla" dx=40 dy=0 dh=40 dv=0
EndChar

StartChar: Ecircumflex
Encoding: 202 202 40
Width: 759
GlyphClass: 1
Flags: W
AnchorPoint: "Anclaje-43" 494 856 basechar 0
AnchorPoint: "Anclaje-42" 611 0 basechar 0
AnchorPoint: "Anclaje-34" 346 928 basechar 0
AnchorPoint: "Anclaje-33" 415 0 basechar 0
LayerCount: 2
Fore
SplineSet
130 832 m 1
 286 950 l 1
 406 950 l 1
 547 834 l 1
 507 782 l 1
 286 908 l 1
 353 908 l 1
 165 783 l 1
 130 832 l 1
EndSplineSet
Refer: 36 69 N 1 0 0 1 0 0 0
Substitution2: "'c2sc' May+APoA-sculas a min+APoA-sculas b+APoA-squeda 35 subtabla" ecircumflex.smcp
AlternateSubs2: "'aalt' Activar todas las variantes b+APoA-squeda 0 subtabla" ecircumflex.smcp
Position2: "'cpsp' Espaciado de may+APoA-sculas b+APoA-squeda 55 subtabla" dx=40 dy=0 dh=40 dv=0
EndChar

StartChar: uni1EBE
Encoding: 7870 7870 41
Width: 759
GlyphClass: 1
Flags: W
AnchorPoint: "Anclaje-43" 474 826 basechar 0
AnchorPoint: "Anclaje-42" 611 0 basechar 0
AnchorPoint: "Anclaje-41" 218 826 basechar 0
AnchorPoint: "Anclaje-40" 467 854 basechar 0
AnchorPoint: "Anclaje-34" 346 898 basechar 0
AnchorPoint: "Anclaje-33" 415 0 basechar 0
LayerCount: 2
Fore
SplineSet
317 896 m 1
 375 896 l 1
 418 868 418 868 458.5 845 c 0
 499 822 499 822 545 799 c 1
 519 742 l 1
 469 759 469 759 429 775.5 c 0
 389 792 389 792 339 815 c 1
 281 783 281 783 171 738 c 1
 147 789 l 1
 218 826 218 826 317 896 c 1
513.5 905.5 m 0
 532 919 532 919 548 929 c 0
 563 938 563 938 575 947 c 0
 587 956 587 956 594 965 c 0
 614 991 614 991 615 1017 c 0
 616 1043 616 1043 597 1059 c 0
 577 1075 577 1075 549.5 1070.5 c 0
 522 1066 522 1066 505 1040 c 0
 499 1030 499 1030 493 1017.5 c 0
 487 1005 487 1005 481 991 c 0
 474 973 474 973 464 951 c 0
 454 929 454 929 440 904 c 1
 474 874 l 1
 495 892 495 892 513.5 905.5 c 0
EndSplineSet
Refer: 36 69 N 1 0 0 1 0 0 0
Substitution2: "'c2sc' May+APoA-sculas a min+APoA-sculas b+APoA-squeda 35 subtabla" uni1EBF.smcp
AlternateSubs2: "'aalt' Activar todas las variantes b+APoA-squeda 0 subtabla" uni1EBF.smcp
Position2: "'cpsp' Espaciado de may+APoA-sculas b+APoA-squeda 55 subtabla" dx=40 dy=0 dh=40 dv=0
EndChar

StartChar: uni1EC6
Encoding: 7878 7878 42
Width: 759
GlyphClass: 1
Flags: W
AnchorPoint: "Anclaje-43" 494 856 basechar 0
AnchorPoint: "Anclaje-42" 611 0 basechar 0
AnchorPoint: "Anclaje-34" 346 928 basechar 0
AnchorPoint: "Anclaje-33" 415 -204 basechar 0
LayerCount: 2
Fore
SplineSet
130 832 m 1
 286 950 l 1
 406 950 l 1
 547 834 l 1
 507 782 l 1
 286 908 l 1
 353 908 l 1
 165 783 l 1
 130 832 l 1
EndSplineSet
Refer: 36 69 N 1 0 0 1 0 0 0
Refer: 535 803 N 1 0 0 1 268 0 0
Substitution2: "'c2sc' May+APoA-sculas a min+APoA-sculas b+APoA-squeda 35 subtabla" uni1EC7.smcp
AlternateSubs2: "'aalt' Activar todas las variantes b+APoA-squeda 0 subtabla" uni1EC7.smcp
Position2: "'cpsp' Espaciado de may+APoA-sculas b+APoA-squeda 55 subtabla" dx=40 dy=0 dh=40 dv=0
EndChar

StartChar: uni1EC0
Encoding: 7872 7872 43
Width: 759
GlyphClass: 1
Flags: W
AnchorPoint: "Anclaje-43" 474 826 basechar 0
AnchorPoint: "Anclaje-42" 611 0 basechar 0
AnchorPoint: "Anclaje-41" 218 826 basechar 0
AnchorPoint: "Anclaje-40" 467 854 basechar 0
AnchorPoint: "Anclaje-34" 346 898 basechar 0
AnchorPoint: "Anclaje-33" 415 0 basechar 0
LayerCount: 2
Fore
SplineSet
317 896 m 1
 375 896 l 1
 418 868 418 868 458.5 845 c 0
 499 822 499 822 545 799 c 1
 519 742 l 1
 469 759 469 759 429 775.5 c 0
 389 792 389 792 339 815 c 1
 281 783 281 783 171 738 c 1
 147 789 l 1
 218 826 218 826 317 896 c 1
175.5 905.5 m 0
 157 919 157 919 141 929 c 0
 126 938 126 938 114 947 c 0
 102 956 102 956 95 965 c 0
 75 991 75 991 74 1017 c 0
 73 1043 73 1043 92 1059 c 0
 112 1075 112 1075 139.5 1070.5 c 0
 167 1066 167 1066 184 1040 c 0
 190 1030 190 1030 196 1017.5 c 0
 202 1005 202 1005 208 991 c 0
 215 973 215 973 225 951 c 0
 235 929 235 929 249 904 c 1
 215 874 l 1
 194 892 194 892 175.5 905.5 c 0
EndSplineSet
Refer: 36 69 N 1 0 0 1 0 0 0
Substitution2: "'c2sc' May+APoA-sculas a min+APoA-sculas b+APoA-squeda 35 subtabla" uni1EC1.smcp
AlternateSubs2: "'aalt' Activar todas las variantes b+APoA-squeda 0 subtabla" uni1EC1.smcp
Position2: "'cpsp' Espaciado de may+APoA-sculas b+APoA-squeda 55 subtabla" dx=40 dy=0 dh=40 dv=0
EndChar

StartChar: uni1EC2
Encoding: 7874 7874 44
Width: 759
GlyphClass: 1
Flags: W
AnchorPoint: "Anclaje-43" 474 826 basechar 0
AnchorPoint: "Anclaje-42" 611 0 basechar 0
AnchorPoint: "Anclaje-41" 218 826 basechar 0
AnchorPoint: "Anclaje-40" 467 854 basechar 0
AnchorPoint: "Anclaje-34" 346 898 basechar 0
AnchorPoint: "Anclaje-33" 415 0 basechar 0
LayerCount: 2
Fore
SplineSet
317 896 m 1
 375 896 l 1
 418 868 418 868 458.5 845 c 0
 499 822 499 822 545 799 c 1
 519 742 l 1
 469 759 469 759 429 775.5 c 0
 389 792 389 792 339 815 c 1
 281 783 281 783 171 738 c 1
 147 789 l 1
 218 826 218 826 317 896 c 1
538 929 m 0
 553 947 553 947 553 976 c 0
 553 999 553 999 541 1012 c 0
 529 1025 529 1025 507 1025 c 0
 493 1025 493 1025 484 1019.5 c 0
 475 1014 475 1014 475 1005 c 0
 475 1001 475 1001 476 996.5 c 0
 477 992 477 992 479 988 c 0
 481 983 481 983 482.5 977 c 0
 484 971 484 971 484 966 c 0
 484 952 484 952 473 943 c 0
 462 934 462 934 444 934 c 0
 422 934 422 934 408.5 948.5 c 0
 395 963 395 963 395 987 c 0
 395 1025 395 1025 427.5 1048.5 c 0
 460 1072 460 1072 513 1072 c 256
 566 1072 566 1072 599 1046 c 0
 632 1020 632 1020 632 978 c 256
 632 936 632 936 599 904 c 0
 566 872 566 872 505 854 c 1
 486 896 l 1
 523 911 523 911 538 929 c 0
EndSplineSet
Refer: 36 69 N 1 0 0 1 0 0 0
Substitution2: "'c2sc' May+APoA-sculas a min+APoA-sculas b+APoA-squeda 35 subtabla" uni1EC3.smcp
AlternateSubs2: "'aalt' Activar todas las variantes b+APoA-squeda 0 subtabla" uni1EC3.smcp
Position2: "'cpsp' Espaciado de may+APoA-sculas b+APoA-squeda 55 subtabla" dx=40 dy=0 dh=40 dv=0
EndChar

StartChar: uni1EC4
Encoding: 7876 7876 45
Width: 759
GlyphClass: 1
Flags: W
AnchorPoint: "Anclaje-43" 474 826 basechar 0
AnchorPoint: "Anclaje-42" 611 0 basechar 0
AnchorPoint: "Anclaje-41" 218 826 basechar 0
AnchorPoint: "Anclaje-40" 467 854 basechar 0
AnchorPoint: "Anclaje-34" 346 1118 basechar 0
AnchorPoint: "Anclaje-33" 415 0 basechar 0
LayerCount: 2
Fore
SplineSet
184 1041 m 0
 216 1072 216 1072 261 1072 c 0
 284 1072 284 1072 306 1064 c 0
 328 1056 328 1056 357 1041 c 0
 380 1028 380 1028 396.5 1021.5 c 0
 413 1015 413 1015 429 1015 c 0
 450 1015 450 1015 463.5 1027.5 c 0
 477 1040 477 1040 485 1066 c 1
 545 1048 l 1
 540 1001 540 1001 508 970 c 0
 476 939 476 939 431 939 c 0
 408 939 408 939 386 947 c 0
 364 955 364 955 335 970 c 0
 311 983 311 983 294.5 989.5 c 0
 278 996 278 996 262 996 c 0
 242 996 242 996 228 983.5 c 0
 214 971 214 971 207 945 c 1
 147 963 l 1
 152 1010 152 1010 184 1041 c 0
317 896 m 1
 375 896 l 1
 418 868 418 868 458.5 845 c 0
 499 822 499 822 545 799 c 1
 519 742 l 1
 469 759 469 759 429 775.5 c 0
 389 792 389 792 339 815 c 1
 281 783 281 783 171 738 c 1
 147 789 l 1
 218 826 218 826 317 896 c 1
EndSplineSet
Refer: 36 69 N 1 0 0 1 0 0 0
Substitution2: "'c2sc' May+APoA-sculas a min+APoA-sculas b+APoA-squeda 35 subtabla" uni1EC5.smcp
AlternateSubs2: "'aalt' Activar todas las variantes b+APoA-squeda 0 subtabla" uni1EC5.smcp
Position2: "'cpsp' Espaciado de may+APoA-sculas b+APoA-squeda 55 subtabla" dx=40 dy=0 dh=40 dv=0
EndChar

StartChar: Edieresis
Encoding: 203 203 46
Width: 759
GlyphClass: 1
Flags: W
AnchorPoint: "Anclaje-42" 611 0 basechar 0
AnchorPoint: "Anclaje-34" 346 928 basechar 0
AnchorPoint: "Anclaje-33" 415 0 basechar 0
LayerCount: 2
Fore
SplineSet
401.5 781.5 m 0
 382 801 382 801 382 831 c 0
 382 860 382 860 401.5 879.5 c 0
 421 899 421 899 452 899 c 256
 483 899 483 899 502.5 879.5 c 0
 522 860 522 860 522 831 c 0
 522 801 522 801 502.5 781.5 c 0
 483 762 483 762 452 762 c 256
 421 762 421 762 401.5 781.5 c 0
189.5 781.5 m 0
 170 801 170 801 170 831 c 0
 170 860 170 860 189.5 879.5 c 0
 209 899 209 899 240 899 c 256
 271 899 271 899 290.5 879.5 c 0
 310 860 310 860 310 831 c 0
 310 801 310 801 290.5 781.5 c 0
 271 762 271 762 240 762 c 256
 209 762 209 762 189.5 781.5 c 0
EndSplineSet
Refer: 36 69 N 1 0 0 1 0 0 0
Substitution2: "'c2sc' May+APoA-sculas a min+APoA-sculas b+APoA-squeda 35 subtabla" edieresis.smcp
AlternateSubs2: "'aalt' Activar todas las variantes b+APoA-squeda 0 subtabla" edieresis.smcp
Position2: "'cpsp' Espaciado de may+APoA-sculas b+APoA-squeda 55 subtabla" dx=40 dy=0 dh=40 dv=0
EndChar

StartChar: Edotaccent
Encoding: 278 278 47
Width: 759
GlyphClass: 1
Flags: W
AnchorPoint: "Anclaje-42" 611 0 basechar 0
AnchorPoint: "Anclaje-34" 346 928 basechar 0
AnchorPoint: "Anclaje-33" 415 0 basechar 0
LayerCount: 2
Fore
SplineSet
293 796 m 0
 271 818 271 818 271 849 c 256
 271 880 271 880 293 902 c 0
 315 924 315 924 346 924 c 256
 377 924 377 924 399 902 c 0
 421 880 421 880 421 849 c 256
 421 818 421 818 399 796 c 0
 377 774 377 774 346 774 c 256
 315 774 315 774 293 796 c 0
EndSplineSet
Refer: 36 69 N 1 0 0 1 0 0 0
Substitution2: "'c2sc' May+APoA-sculas a min+APoA-sculas b+APoA-squeda 35 subtabla" edotaccent.smcp
AlternateSubs2: "'aalt' Activar todas las variantes b+APoA-squeda 0 subtabla" edotaccent.smcp
Position2: "'cpsp' Espaciado de may+APoA-sculas b+APoA-squeda 55 subtabla" dx=40 dy=0 dh=40 dv=0
EndChar

StartChar: Egrave
Encoding: 200 200 49
Width: 759
GlyphClass: 1
Flags: W
AnchorPoint: "Anclaje-42" 611 0 basechar 0
AnchorPoint: "Anclaje-34" 346 928 basechar 0
AnchorPoint: "Anclaje-33" 415 0 basechar 0
LayerCount: 2
Fore
SplineSet
332 792 m 0
 299 804 299 804 272 813 c 0
 254 820 254 820 238 826 c 0
 222 832 222 832 214 837 c 0
 186 855 186 855 177 879.5 c 0
 168 904 168 904 181 925 c 0
 195 947 195 947 221 950 c 0
 247 953 247 953 275 936 c 0
 284 931 284 931 297 918.5 c 0
 310 906 310 906 325 892 c 0
 345 871 345 871 368.5 849 c 0
 392 827 392 827 422 803 c 1
 399 764 l 1
 365 780 365 780 332 792 c 0
EndSplineSet
Refer: 36 69 N 1 0 0 1 0 0 0
Substitution2: "'c2sc' May+APoA-sculas a min+APoA-sculas b+APoA-squeda 35 subtabla" egrave.smcp
AlternateSubs2: "'aalt' Activar todas las variantes b+APoA-squeda 0 subtabla" egrave.smcp
Position2: "'cpsp' Espaciado de may+APoA-sculas b+APoA-squeda 55 subtabla" dx=40 dy=0 dh=40 dv=0
EndChar

StartChar: uni1EBA
Encoding: 7866 7866 50
Width: 759
GlyphClass: 1
Flags: W
AnchorPoint: "Anclaje-42" 611 0 basechar 0
AnchorPoint: "Anclaje-34" 346 708 basechar 0
AnchorPoint: "Anclaje-33" 415 0 basechar 0
LayerCount: 2
Fore
SplineSet
375 829 m 0
 390 847 390 847 390 876 c 0
 390 899 390 899 378 912 c 0
 366 925 366 925 344 925 c 0
 330 925 330 925 321 919.5 c 0
 312 914 312 914 312 905 c 0
 312 901 312 901 313 896.5 c 0
 314 892 314 892 316 888 c 0
 318 883 318 883 319.5 877 c 0
 321 871 321 871 321 866 c 0
 321 852 321 852 310 843 c 0
 299 834 299 834 281 834 c 0
 259 834 259 834 245.5 848.5 c 0
 232 863 232 863 232 887 c 0
 232 925 232 925 264.5 948.5 c 0
 297 972 297 972 350 972 c 256
 403 972 403 972 436 946 c 0
 469 920 469 920 469 878 c 256
 469 836 469 836 436 804 c 0
 403 772 403 772 342 754 c 1
 323 796 l 1
 360 811 360 811 375 829 c 0
EndSplineSet
Refer: 36 69 N 1 0 0 1 0 0 0
Substitution2: "'c2sc' May+APoA-sculas a min+APoA-sculas b+APoA-squeda 35 subtabla" uni1EBB.smcp
AlternateSubs2: "'aalt' Activar todas las variantes b+APoA-squeda 0 subtabla" uni1EBB.smcp
Position2: "'cpsp' Espaciado de may+APoA-sculas b+APoA-squeda 55 subtabla" dx=40 dy=0 dh=40 dv=0
EndChar

StartChar: Emacron
Encoding: 274 274 51
Width: 759
GlyphClass: 1
Flags: W
AnchorPoint: "Anclaje-42" 611 0 basechar 0
AnchorPoint: "Anclaje-34" 347 928 basechar 0
AnchorPoint: "Anclaje-33" 415 0 basechar 0
LayerCount: 2
Fore
SplineSet
170 869 m 1
 522 869 l 1
 522 794 l 1
 170 794 l 1
 170 869 l 1
EndSplineSet
Refer: 36 69 N 1 0 0 1 0 0 0
Substitution2: "'c2sc' May+APoA-sculas a min+APoA-sculas b+APoA-squeda 35 subtabla" emacron.smcp
AlternateSubs2: "'aalt' Activar todas las variantes b+APoA-squeda 0 subtabla" emacron.smcp
Position2: "'cpsp' Espaciado de may+APoA-sculas b+APoA-squeda 55 subtabla" dx=40 dy=0 dh=40 dv=0
EndChar

StartChar: Eogonek
Encoding: 280 280 52
Width: 759
GlyphClass: 1
Flags: W
AnchorPoint: "Anclaje-42" 611 0 basechar 0
AnchorPoint: "Anclaje-34" 346 708 basechar 0
AnchorPoint: "Anclaje-33" 415 0 basechar 0
LayerCount: 2
Fore
SplineSet
466 -221.5 m 0
 440 -198 440 -198 440 -159 c 0
 440 -115 440 -115 476.5 -69.5 c 0
 513 -24 513 -24 579 15 c 1
 622 15 l 1
 573 -32 573 -32 553 -64 c 0
 533 -96 533 -96 533 -127 c 0
 533 -147 533 -147 542.5 -158.5 c 0
 552 -170 552 -170 570 -170 c 0
 582 -170 582 -170 595 -165.5 c 0
 608 -161 608 -161 617 -154 c 1
 642 -209 l 1
 623 -225 623 -225 594 -235 c 0
 565 -245 565 -245 536 -245 c 0
 492 -245 492 -245 466 -221.5 c 0
EndSplineSet
Refer: 36 69 N 1 0 0 1 0 0 0
Substitution2: "'c2sc' May+APoA-sculas a min+APoA-sculas b+APoA-squeda 35 subtabla" eogonek.smcp
AlternateSubs2: "'aalt' Activar todas las variantes b+APoA-squeda 0 subtabla" eogonek.smcp
Position2: "'cpsp' Espaciado de may+APoA-sculas b+APoA-squeda 55 subtabla" dx=40 dy=0 dh=40 dv=0
EndChar

StartChar: uni1EBC
Encoding: 7868 7868 53
Width: 759
GlyphClass: 1
Flags: W
AnchorPoint: "Anclaje-42" 611 0 basechar 0
AnchorPoint: "Anclaje-34" 346 928 basechar 0
AnchorPoint: "Anclaje-33" 415 0 basechar 0
LayerCount: 2
Fore
SplineSet
384.5 780.5 m 0
 361 789 361 789 333 804 c 0
 308 817 308 817 291.5 823 c 0
 275 829 275 829 259 829 c 0
 239 829 239 829 225 816.5 c 0
 211 804 211 804 204 778 c 1
 144 796 l 1
 149 843 149 843 181 874 c 0
 213 905 213 905 258 905 c 0
 282 905 282 905 305.5 896.5 c 0
 329 888 329 888 356 873 c 0
 382 860 382 860 398 854 c 0
 414 848 414 848 430 848 c 0
 451 848 451 848 464.5 860.5 c 0
 478 873 478 873 486 899 c 1
 546 881 l 1
 541 834 541 834 509 803 c 0
 477 772 477 772 432 772 c 0
 408 772 408 772 384.5 780.5 c 0
EndSplineSet
Refer: 36 69 N 1 0 0 1 0 0 0
Substitution2: "'c2sc' May+APoA-sculas a min+APoA-sculas b+APoA-squeda 35 subtabla" uni1EBD.smcp
AlternateSubs2: "'aalt' Activar todas las variantes b+APoA-squeda 0 subtabla" uni1EBD.smcp
Position2: "'cpsp' Espaciado de may+APoA-sculas b+APoA-squeda 55 subtabla" dx=40 dy=0 dh=40 dv=0
EndChar

StartChar: uni018F
Encoding: 399 399 54
Width: 795
GlyphClass: 1
Flags: W
AnchorPoint: "Anclaje-34" 414 708 basechar 0
AnchorPoint: "Anclaje-33" 414 0 basechar 0
LayerCount: 2
Fore
SplineSet
222 28.5 m 128,-1,1
 152 71 152 71 116.5 151 c 128,-1,2
 81 231 81 231 83 341 c 1,3,-1
 650 341 l 1,4,-1
 651 271 l 1,5,-1
 183 271 l 1,6,7
 179 211 179 211 206.5 161.5 c 128,-1,8
 234 112 234 112 284.5 83.5 c 128,-1,9
 335 55 335 55 398 55 c 0,10,11
 463 55 463 55 511.5 90.5 c 128,-1,12
 560 126 560 126 586 192 c 128,-1,13
 612 258 612 258 612 347 c 0,14,15
 612 440 612 440 584 506.5 c 128,-1,16
 556 573 556 573 503 608 c 128,-1,17
 450 643 450 643 376 643 c 0,18,19
 307 643 307 643 260.5 610 c 128,-1,20
 214 577 214 577 183 506 c 1,21,-1
 114 533 l 1,22,23
 144 621 144 621 220.5 671.5 c 128,-1,24
 297 722 297 722 399 722 c 0,25,26
 494 722 494 722 565 677 c 128,-1,27
 636 632 636 632 674 548 c 128,-1,28
 712 464 712 464 712 351 c 256,29,30
 712 238 712 238 673.5 155.5 c 128,-1,31
 635 73 635 73 562.5 29.5 c 128,-1,32
 490 -14 490 -14 390 -14 c 0,33,0
 292 -14 292 -14 222 28.5 c 128,-1,1
EndSplineSet
Substitution2: "'c2sc' May+APoA-sculas a min+APoA-sculas b+APoA-squeda 35 subtabla" uni0259.smcp
AlternateSubs2: "'aalt' Activar todas las variantes b+APoA-squeda 0 subtabla" uni0259.smcp
Position2: "'cpsp' Espaciado de may+APoA-sculas b+APoA-squeda 55 subtabla" dx=40 dy=0 dh=40 dv=0
EndChar

StartChar: F
Encoding: 70 70 55
Width: 699
GlyphClass: 1
Flags: W
AnchorPoint: "Anclaje-38" 277 150 basechar 0
AnchorPoint: "Anclaje-34" 385 708 basechar 0
AnchorPoint: "Anclaje-33" 260 0 basechar 0
LayerCount: 2
Fore
SplineSet
164.5 78.5 m 128,-1,1
 193 85 193 85 203 102 c 128,-1,2
 213 119 213 119 213 156 c 2,3,-1
 213 552 l 2,4,5
 213 589 213 589 203 606 c 128,-1,6
 193 623 193 623 164.5 629.5 c 128,-1,7
 136 636 136 636 72 638 c 1,8,-1
 72 708 l 1,9,10
 180 705 180 705 422 705 c 0,11,12
 548 705 548 705 611 708 c 1,13,14
 612 592 612 592 630 488 c 1,15,-1
 557 488 l 1,16,17
 549 541 549 541 532.5 573 c 128,-1,18
 516 605 516 605 488.5 620 c 128,-1,19
 461 635 461 635 420 635 c 2,20,-1
 306 635 l 1,21,-1
 306 156 l 2,22,23
 306 119 306 119 319 102 c 128,-1,24
 332 85 332 85 368.5 78.5 c 128,-1,25
 405 72 405 72 487 70 c 1,26,-1
 487 0 l 1,27,28
 451 2 451 2 414 2 c 0,29,30
 373 3 373 3 260 3 c 0,31,32
 128 3 128 3 72 0 c 1,33,-1
 72 70 l 1,34,0
 136 72 136 72 164.5 78.5 c 128,-1,1
276 381 m 1,35,-1
 426 381 l 1,36,-1
 426 311 l 1,37,-1
 276 311 l 1,38,-1
 276 381 l 1,35,-1
434 259.5 m 128,-1,40
 426 287 426 287 410.5 299 c 128,-1,41
 395 311 395 311 369 311 c 1,42,-1
 369 381 l 1,43,44
 393 381 393 381 408 391.5 c 128,-1,45
 423 402 423 402 431 425 c 128,-1,46
 439 448 439 448 442 488 c 1,47,-1
 505 488 l 1,48,49
 502 446 502 446 501.5 417.5 c 128,-1,50
 501 389 501 389 502 367 c 2,51,-1
 502 346 l 2,52,53
 502 285 502 285 508 184 c 1,54,-1
 445 184 l 1,55,39
 442 232 442 232 434 259.5 c 128,-1,40
EndSplineSet
Substitution2: "'c2sc' May+APoA-sculas a min+APoA-sculas b+APoA-squeda 35 subtabla" f.smcp
AlternateSubs2: "'aalt' Activar todas las variantes b+APoA-squeda 0 subtabla" f.smcp
Position2: "'cpsp' Espaciado de may+APoA-sculas b+APoA-squeda 55 subtabla" dx=40 dy=0 dh=40 dv=0
EndChar

StartChar: G
Encoding: 71 71 56
Width: 822
GlyphClass: 1
Flags: W
AnchorPoint: "Anclaje-34" 380 708 basechar 0
AnchorPoint: "Anclaje-33" 406 0 basechar 0
LayerCount: 2
Fore
SplineSet
220 30.5 m 128,-1,1
 155 75 155 75 119 156 c 128,-1,2
 83 237 83 237 83 344 c 0,3,4
 83 453 83 453 121 539 c 128,-1,5
 159 625 159 625 226.5 673.5 c 128,-1,6
 294 722 294 722 380 722 c 0,7,8
 434 722 434 722 469 706 c 128,-1,9
 504 690 504 690 538 664 c 0,10,11
 546 658 546 658 553.5 653 c 128,-1,12
 561 648 561 648 566 648 c 0,13,14
 575 648 575 648 581 664 c 128,-1,15
 587 680 587 680 590 712 c 1,16,-1
 663 712 l 1,17,18
 661 678 661 678 660.5 634 c 128,-1,19
 660 590 660 590 659 530 c 2,20,-1
 659 448 l 1,21,-1
 586 448 l 1,22,23
 577 510 577 510 549 556.5 c 128,-1,24
 521 603 521 603 478 628.5 c 128,-1,25
 435 654 435 654 383 654 c 0,26,27
 321 654 321 654 276 617.5 c 128,-1,28
 231 581 231 581 207 513 c 128,-1,29
 183 445 183 445 183 353 c 0,30,31
 183 259 183 259 208 192 c 128,-1,32
 233 125 233 125 280 89.5 c 128,-1,33
 327 54 327 54 393 54 c 0,34,35
 441 54 441 54 480.5 70 c 128,-1,36
 520 86 520 86 543 113.5 c 128,-1,37
 566 141 566 141 566 174 c 2,38,-1
 566 230 l 2,39,40
 566 250 566 250 553.5 261.5 c 128,-1,41
 541 273 541 273 511 278 c 128,-1,42
 481 283 481 283 425 284 c 1,43,-1
 425 354 l 1,44,45
 461 351 461 351 594 351 c 0,46,47
 691 351 691 351 760 354 c 1,48,-1
 760 284 l 1,49,50
 718 282 718 282 697 274.5 c 128,-1,51
 676 267 676 267 667.5 249.5 c 128,-1,52
 659 232 659 232 659 198 c 2,53,-1
 659 10 l 1,54,-1
 589 10 l 1,55,56
 585 25 585 25 580 31 c 128,-1,57
 575 37 575 37 566 37 c 0,58,59
 559 37 559 37 548.5 33 c 128,-1,60
 538 29 538 29 525 23 c 0,61,62
 486 6 486 6 451 -4 c 128,-1,63
 416 -14 416 -14 371 -14 c 0,64,0
 285 -14 285 -14 220 30.5 c 128,-1,1
EndSplineSet
Substitution2: "'c2sc' May+APoA-sculas a min+APoA-sculas b+APoA-squeda 35 subtabla" g.smcp
AlternateSubs2: "'aalt' Activar todas las variantes b+APoA-squeda 0 subtabla" g.smcp
Position2: "'cpsp' Espaciado de may+APoA-sculas b+APoA-squeda 55 subtabla" dx=40 dy=0 dh=40 dv=0
EndChar

StartChar: Gbreve
Encoding: 286 286 57
Width: 822
GlyphClass: 1
Flags: W
AnchorPoint: "Anclaje-37" 380 858 basechar 0
AnchorPoint: "Anclaje-34" 380 858 basechar 0
AnchorPoint: "Anclaje-33" 406 0 basechar 0
LayerCount: 2
Fore
SplineSet
254.5 801 m 0
 196 830 196 830 161 880 c 1
 206 924 l 1
 244 887 244 887 286 869.5 c 0
 328 852 328 852 380 852 c 256
 432 852 432 852 474 869.5 c 0
 516 887 516 887 554 924 c 1
 599 880 l 1
 564 830 564 830 505.5 801 c 0
 447 772 447 772 380 772 c 256
 313 772 313 772 254.5 801 c 0
EndSplineSet
Refer: 56 71 N 1 0 0 1 0 0 0
Substitution2: "'c2sc' May+APoA-sculas a min+APoA-sculas b+APoA-squeda 35 subtabla" gbreve.smcp
AlternateSubs2: "'aalt' Activar todas las variantes b+APoA-squeda 0 subtabla" gbreve.smcp
Position2: "'cpsp' Espaciado de may+APoA-sculas b+APoA-squeda 55 subtabla" dx=40 dy=0 dh=40 dv=0
EndChar

StartChar: Gcircumflex
Encoding: 284 284 58
Width: 822
GlyphClass: 1
Flags: W
AnchorPoint: "Anclaje-43" 528 856 basechar 0
AnchorPoint: "Anclaje-34" 380 928 basechar 0
AnchorPoint: "Anclaje-33" 406 0 basechar 0
LayerCount: 2
Fore
SplineSet
164 832 m 1
 320 950 l 1
 440 950 l 1
 581 834 l 1
 541 782 l 1
 320 908 l 1
 387 908 l 1
 199 783 l 1
 164 832 l 1
EndSplineSet
Refer: 56 71 N 1 0 0 1 0 0 0
Substitution2: "'c2sc' May+APoA-sculas a min+APoA-sculas b+APoA-squeda 35 subtabla" gcircumflex.smcp
AlternateSubs2: "'aalt' Activar todas las variantes b+APoA-squeda 0 subtabla" gcircumflex.smcp
Position2: "'cpsp' Espaciado de may+APoA-sculas b+APoA-squeda 55 subtabla" dx=40 dy=0 dh=40 dv=0
EndChar

StartChar: Gdotaccent
Encoding: 288 288 60
Width: 822
GlyphClass: 1
Flags: W
AnchorPoint: "Anclaje-34" 380 928 basechar 0
AnchorPoint: "Anclaje-33" 406 0 basechar 0
LayerCount: 2
Fore
SplineSet
327 796 m 0
 305 818 305 818 305 849 c 256
 305 880 305 880 327 902 c 0
 349 924 349 924 380 924 c 256
 411 924 411 924 433 902 c 0
 455 880 455 880 455 849 c 256
 455 818 455 818 433 796 c 0
 411 774 411 774 380 774 c 256
 349 774 349 774 327 796 c 0
EndSplineSet
Refer: 56 71 N 1 0 0 1 0 0 0
Substitution2: "'c2sc' May+APoA-sculas a min+APoA-sculas b+APoA-squeda 35 subtabla" gdotaccent.smcp
AlternateSubs2: "'aalt' Activar todas las variantes b+APoA-squeda 0 subtabla" gdotaccent.smcp
Position2: "'cpsp' Espaciado de may+APoA-sculas b+APoA-squeda 55 subtabla" dx=40 dy=0 dh=40 dv=0
EndChar

StartChar: H
Encoding: 72 72 61
Width: 937
GlyphClass: 1
Flags: W
AnchorPoint: "Anclaje-38" 469 514 basechar 0
AnchorPoint: "Anclaje-34" 471 708 basechar 0
AnchorPoint: "Anclaje-33" 469 0 basechar 0
LayerCount: 2
Fore
SplineSet
592.5 78.5 m 128,-1,1
 615 85 615 85 623 102 c 128,-1,2
 631 119 631 119 631 156 c 2,3,-1
 631 552 l 2,4,5
 631 589 631 589 623 606 c 128,-1,6
 615 623 615 623 592.5 629.5 c 128,-1,7
 570 636 570 636 520 638 c 1,8,-1
 520 708 l 1,9,10
 567 705 567 705 677 705 c 0,11,12
 810 705 810 705 865 708 c 1,13,-1
 865 638 l 1,14,15
 801 636 801 636 772.5 629.5 c 128,-1,16
 744 623 744 623 734 606 c 128,-1,17
 724 589 724 589 724 552 c 2,18,-1
 724 156 l 2,19,20
 724 119 724 119 734 102 c 128,-1,21
 744 85 744 85 772.5 78.5 c 128,-1,22
 801 72 801 72 865 70 c 1,23,-1
 865 0 l 1,24,25
 810 3 810 3 677 3 c 0,26,27
 567 3 567 3 520 0 c 1,28,-1
 520 70 l 1,29,0
 570 72 570 72 592.5 78.5 c 128,-1,1
164.5 78.5 m 128,-1,31
 193 85 193 85 203 102 c 128,-1,32
 213 119 213 119 213 156 c 2,33,-1
 213 552 l 2,34,35
 213 589 213 589 203 606 c 128,-1,36
 193 623 193 623 164.5 629.5 c 128,-1,37
 136 636 136 636 72 638 c 1,38,-1
 72 708 l 1,39,40
 128 705 128 705 260 705 c 0,41,42
 371 705 371 705 417 708 c 1,43,-1
 417 638 l 1,44,45
 367 636 367 636 344.5 629.5 c 128,-1,46
 322 623 322 623 314 606 c 128,-1,47
 306 589 306 589 306 552 c 2,48,-1
 306 156 l 2,49,50
 306 119 306 119 314 102 c 128,-1,51
 322 85 322 85 344.5 78.5 c 128,-1,52
 367 72 367 72 417 70 c 1,53,-1
 417 0 l 1,54,55
 371 3 371 3 260 3 c 0,56,57
 128 3 128 3 72 0 c 1,58,-1
 72 70 l 1,59,30
 136 72 136 72 164.5 78.5 c 128,-1,31
271 391 m 1,60,-1
 666 391 l 1,61,-1
 666 321 l 1,62,-1
 271 321 l 1,63,-1
 271 391 l 1,60,-1
EndSplineSet
Substitution2: "'c2sc' May+APoA-sculas a min+APoA-sculas b+APoA-squeda 35 subtabla" h.smcp
AlternateSubs2: "'aalt' Activar todas las variantes b+APoA-squeda 0 subtabla" h.smcp
Position2: "'cpsp' Espaciado de may+APoA-sculas b+APoA-squeda 55 subtabla" dx=40 dy=0 dh=40 dv=0
EndChar

StartChar: Hbar
Encoding: 294 294 62
Width: 937
GlyphClass: 1
Flags: W
AnchorPoint: "Anclaje-38" 469 514 basechar 0
AnchorPoint: "Anclaje-34" 471 708 basechar 0
AnchorPoint: "Anclaje-33" 469 0 basechar 0
LayerCount: 2
Fore
SplineSet
592.5 78.5 m 128,-1,1
 615 85 615 85 623 102 c 128,-1,2
 631 119 631 119 631 156 c 2,3,-1
 631 552 l 2,4,5
 631 589 631 589 623 606 c 128,-1,6
 615 623 615 623 592.5 629.5 c 128,-1,7
 570 636 570 636 520 638 c 1,8,-1
 520 708 l 1,9,10
 567 705 567 705 677 705 c 0,11,12
 810 705 810 705 865 708 c 1,13,-1
 865 638 l 1,14,15
 801 636 801 636 772.5 629.5 c 128,-1,16
 744 623 744 623 734 606 c 128,-1,17
 724 589 724 589 724 552 c 2,18,-1
 724 156 l 2,19,20
 724 119 724 119 734 102 c 128,-1,21
 744 85 744 85 772.5 78.5 c 128,-1,22
 801 72 801 72 865 70 c 1,23,-1
 865 0 l 1,24,25
 810 3 810 3 677 3 c 0,26,27
 567 3 567 3 520 0 c 1,28,-1
 520 70 l 1,29,0
 570 72 570 72 592.5 78.5 c 128,-1,1
164.5 78.5 m 128,-1,31
 193 85 193 85 203 102 c 128,-1,32
 213 119 213 119 213 156 c 2,33,-1
 213 552 l 2,34,35
 213 589 213 589 203 606 c 128,-1,36
 193 623 193 623 164.5 629.5 c 128,-1,37
 136 636 136 636 72 638 c 1,38,-1
 72 708 l 1,39,40
 128 705 128 705 260 705 c 0,41,42
 371 705 371 705 417 708 c 1,43,-1
 417 638 l 1,44,45
 367 636 367 636 344.5 629.5 c 128,-1,46
 322 623 322 623 314 606 c 128,-1,47
 306 589 306 589 306 552 c 2,48,-1
 306 156 l 2,49,50
 306 119 306 119 314 102 c 128,-1,51
 322 85 322 85 344.5 78.5 c 128,-1,52
 367 72 367 72 417 70 c 1,53,-1
 417 0 l 1,54,55
 371 3 371 3 260 3 c 0,56,57
 128 3 128 3 72 0 c 1,58,-1
 72 70 l 1,59,30
 136 72 136 72 164.5 78.5 c 128,-1,31
271 391 m 1,60,-1
 666 391 l 1,61,-1
 666 321 l 1,62,-1
 271 321 l 1,63,-1
 271 391 l 1,60,-1
42 549 m 1,64,-1
 895 549 l 1,65,-1
 895 479 l 1,66,-1
 42 479 l 1,67,-1
 42 549 l 1,64,-1
EndSplineSet
Substitution2: "'c2sc' May+APoA-sculas a min+APoA-sculas b+APoA-squeda 35 subtabla" hbar.smcp
AlternateSubs2: "'aalt' Activar todas las variantes b+APoA-squeda 0 subtabla" hbar.smcp
Position2: "'cpsp' Espaciado de may+APoA-sculas b+APoA-squeda 55 subtabla" dx=40 dy=0 dh=40 dv=0
EndChar

StartChar: Hcircumflex
Encoding: 292 292 63
Width: 937
GlyphClass: 1
Flags: W
AnchorPoint: "Anclaje-43" 619 856 basechar 0
AnchorPoint: "Anclaje-38" 469 514 basechar 0
AnchorPoint: "Anclaje-34" 471 928 basechar 0
AnchorPoint: "Anclaje-33" 469 0 basechar 0
LayerCount: 2
Fore
SplineSet
255 832 m 1
 411 950 l 1
 531 950 l 1
 672 834 l 1
 632 782 l 1
 411 908 l 1
 478 908 l 1
 290 783 l 1
 255 832 l 1
EndSplineSet
Refer: 61 72 N 1 0 0 1 0 0 0
Substitution2: "'c2sc' May+APoA-sculas a min+APoA-sculas b+APoA-squeda 35 subtabla" hcircumflex.smcp
AlternateSubs2: "'aalt' Activar todas las variantes b+APoA-squeda 0 subtabla" hcircumflex.smcp
Position2: "'cpsp' Espaciado de may+APoA-sculas b+APoA-squeda 55 subtabla" dx=40 dy=0 dh=40 dv=0
EndChar

StartChar: I
Encoding: 73 73 64
Width: 519
GlyphClass: 1
Flags: W
AnchorPoint: "Anclaje-42" 393 0 basechar 0
AnchorPoint: "Anclaje-34" 260 708 basechar 0
AnchorPoint: "Anclaje-33" 260 0 basechar 0
AnchorPoint: "Cursive-19" 447 0 exit 0
LayerCount: 2
Fore
SplineSet
164.5 78.5 m 128,-1,1
 193 85 193 85 203 102 c 128,-1,2
 213 119 213 119 213 156 c 2,3,-1
 213 552 l 2,4,5
 213 589 213 589 203 606 c 128,-1,6
 193 623 193 623 164.5 629.5 c 128,-1,7
 136 636 136 636 72 638 c 1,8,-1
 72 708 l 1,9,10
 186 705 186 705 260 705 c 0,11,12
 330 705 330 705 447 708 c 1,13,-1
 447 638 l 1,14,15
 383 636 383 636 354.5 629.5 c 128,-1,16
 326 623 326 623 316 606 c 128,-1,17
 306 589 306 589 306 552 c 2,18,-1
 306 156 l 2,19,20
 306 119 306 119 316 102 c 128,-1,21
 326 85 326 85 354.5 78.5 c 128,-1,22
 383 72 383 72 447 70 c 1,23,-1
 447 0 l 1,24,25
 330 3 330 3 260 3 c 0,26,27
 186 3 186 3 72 0 c 1,28,-1
 72 70 l 1,29,0
 136 72 136 72 164.5 78.5 c 128,-1,1
EndSplineSet
Substitution2: "'c2sc' May+APoA-sculas a min+APoA-sculas b+APoA-squeda 35 subtabla" i.smcp
AlternateSubs2: "'aalt' Activar todas las variantes b+APoA-squeda 0 subtabla" i.smcp
Position2: "'cpsp' Espaciado de may+APoA-sculas b+APoA-squeda 55 subtabla" dx=40 dy=0 dh=40 dv=0
EndChar

StartChar: Iacute
Encoding: 205 205 66
Width: 519
GlyphClass: 1
Flags: W
AnchorPoint: "Anclaje-42" 393 0 basechar 0
AnchorPoint: "Anclaje-34" 260 928 basechar 0
AnchorPoint: "Anclaje-33" 260 0 basechar 0
LayerCount: 2
Fore
SplineSet
274 792 m 0
 307 804 307 804 334 813 c 0
 352 820 352 820 368 826 c 0
 384 832 384 832 392 837 c 0
 420 855 420 855 429 879.5 c 0
 438 904 438 904 425 925 c 0
 411 947 411 947 385 950 c 0
 359 953 359 953 331 936 c 0
 322 931 322 931 309 918.5 c 0
 296 906 296 906 281 892 c 0
 261 871 261 871 237.5 849 c 0
 214 827 214 827 184 803 c 1
 207 764 l 1
 241 780 241 780 274 792 c 0
EndSplineSet
Refer: 64 73 N 1 0 0 1 0 0 0
Substitution2: "'c2sc' May+APoA-sculas a min+APoA-sculas b+APoA-squeda 35 subtabla" iacute.smcp
AlternateSubs2: "'aalt' Activar todas las variantes b+APoA-squeda 0 subtabla" iacute.smcp
Position2: "'cpsp' Espaciado de may+APoA-sculas b+APoA-squeda 55 subtabla" dx=40 dy=0 dh=40 dv=0
EndChar

StartChar: Ibreve
Encoding: 300 300 67
Width: 519
GlyphClass: 1
Flags: W
AnchorPoint: "Anclaje-42" 393 0 basechar 0
AnchorPoint: "Anclaje-37" 260 858 basechar 0
AnchorPoint: "Anclaje-34" 260 858 basechar 0
AnchorPoint: "Anclaje-33" 260 0 basechar 0
LayerCount: 2
Fore
SplineSet
134.5 801 m 0
 76 830 76 830 41 880 c 1
 86 924 l 1
 124 887 124 887 166 869.5 c 0
 208 852 208 852 260 852 c 256
 312 852 312 852 354 869.5 c 0
 396 887 396 887 434 924 c 1
 479 880 l 1
 444 830 444 830 385.5 801 c 0
 327 772 327 772 260 772 c 256
 193 772 193 772 134.5 801 c 0
EndSplineSet
Refer: 64 73 N 1 0 0 1 0 0 0
Substitution2: "'c2sc' May+APoA-sculas a min+APoA-sculas b+APoA-squeda 35 subtabla" ibreve.smcp
AlternateSubs2: "'aalt' Activar todas las variantes b+APoA-squeda 0 subtabla" ibreve.smcp
Position2: "'cpsp' Espaciado de may+APoA-sculas b+APoA-squeda 55 subtabla" dx=40 dy=0 dh=40 dv=0
EndChar

StartChar: Icircumflex
Encoding: 206 206 68
Width: 519
GlyphClass: 1
Flags: W
AnchorPoint: "Anclaje-43" 408 856 basechar 0
AnchorPoint: "Anclaje-42" 393 0 basechar 0
AnchorPoint: "Anclaje-34" 260 928 basechar 0
AnchorPoint: "Anclaje-33" 260 0 basechar 0
LayerCount: 2
Fore
SplineSet
44 832 m 1
 200 950 l 1
 320 950 l 1
 461 834 l 1
 421 782 l 1
 200 908 l 1
 267 908 l 1
 79 783 l 1
 44 832 l 1
EndSplineSet
Refer: 64 73 N 1 0 0 1 0 0 0
Substitution2: "'c2sc' May+APoA-sculas a min+APoA-sculas b+APoA-squeda 35 subtabla" icircumflex.smcp
AlternateSubs2: "'aalt' Activar todas las variantes b+APoA-squeda 0 subtabla" icircumflex.smcp
Position2: "'cpsp' Espaciado de may+APoA-sculas b+APoA-squeda 55 subtabla" dx=40 dy=0 dh=40 dv=0
EndChar

StartChar: Idieresis
Encoding: 207 207 69
Width: 519
GlyphClass: 1
Flags: W
AnchorPoint: "Anclaje-42" 393 0 basechar 0
AnchorPoint: "Anclaje-34" 260 928 basechar 0
AnchorPoint: "Anclaje-33" 260 0 basechar 0
LayerCount: 2
Fore
SplineSet
315.5 781.5 m 0
 296 801 296 801 296 831 c 0
 296 860 296 860 315.5 879.5 c 0
 335 899 335 899 366 899 c 256
 397 899 397 899 416.5 879.5 c 0
 436 860 436 860 436 831 c 0
 436 801 436 801 416.5 781.5 c 0
 397 762 397 762 366 762 c 256
 335 762 335 762 315.5 781.5 c 0
103.5 781.5 m 0
 84 801 84 801 84 831 c 0
 84 860 84 860 103.5 879.5 c 0
 123 899 123 899 154 899 c 256
 185 899 185 899 204.5 879.5 c 0
 224 860 224 860 224 831 c 0
 224 801 224 801 204.5 781.5 c 0
 185 762 185 762 154 762 c 256
 123 762 123 762 103.5 781.5 c 0
EndSplineSet
Refer: 64 73 N 1 0 0 1 0 0 0
Substitution2: "'c2sc' May+APoA-sculas a min+APoA-sculas b+APoA-squeda 35 subtabla" idieresis.smcp
AlternateSubs2: "'aalt' Activar todas las variantes b+APoA-squeda 0 subtabla" idieresis.smcp
Position2: "'cpsp' Espaciado de may+APoA-sculas b+APoA-squeda 55 subtabla" dx=40 dy=0 dh=40 dv=0
EndChar

StartChar: Idotaccent
Encoding: 304 304 70
Width: 519
GlyphClass: 1
Flags: W
AnchorPoint: "Anclaje-42" 393 0 basechar 0
AnchorPoint: "Anclaje-34" 260 928 basechar 0
AnchorPoint: "Anclaje-33" 260 0 basechar 0
LayerCount: 2
Fore
SplineSet
207 796 m 0
 185 818 185 818 185 849 c 256
 185 880 185 880 207 902 c 0
 229 924 229 924 260 924 c 256
 291 924 291 924 313 902 c 0
 335 880 335 880 335 849 c 256
 335 818 335 818 313 796 c 0
 291 774 291 774 260 774 c 256
 229 774 229 774 207 796 c 0
EndSplineSet
Refer: 64 73 N 1 0 0 1 0 0 0
Substitution2: "'c2sc' May+APoA-sculas a min+APoA-sculas b+APoA-squeda 35 subtabla" i.loclTRK.smcp
AlternateSubs2: "'aalt' Activar todas las variantes b+APoA-squeda 0 subtabla" i.loclTRK.smcp
Position2: "'cpsp' Espaciado de may+APoA-sculas b+APoA-squeda 55 subtabla" dx=40 dy=0 dh=40 dv=0
EndChar

StartChar: Igrave
Encoding: 204 204 72
Width: 519
GlyphClass: 1
Flags: W
AnchorPoint: "Anclaje-42" 393 0 basechar 0
AnchorPoint: "Anclaje-34" 260 928 basechar 0
AnchorPoint: "Anclaje-33" 260 0 basechar 0
LayerCount: 2
Fore
SplineSet
246 792 m 0
 213 804 213 804 186 813 c 0
 168 820 168 820 152 826 c 0
 136 832 136 832 128 837 c 0
 100 855 100 855 91 879.5 c 0
 82 904 82 904 95 925 c 0
 109 947 109 947 135 950 c 0
 161 953 161 953 189 936 c 0
 198 931 198 931 211 918.5 c 0
 224 906 224 906 239 892 c 0
 259 871 259 871 282.5 849 c 0
 306 827 306 827 336 803 c 1
 313 764 l 1
 279 780 279 780 246 792 c 0
EndSplineSet
Refer: 64 73 N 1 0 0 1 0 0 0
Substitution2: "'c2sc' May+APoA-sculas a min+APoA-sculas b+APoA-squeda 35 subtabla" igrave.smcp
AlternateSubs2: "'aalt' Activar todas las variantes b+APoA-squeda 0 subtabla" igrave.smcp
Position2: "'cpsp' Espaciado de may+APoA-sculas b+APoA-squeda 55 subtabla" dx=40 dy=0 dh=40 dv=0
EndChar

StartChar: uni1EC8
Encoding: 7880 7880 73
Width: 519
GlyphClass: 1
Flags: W
AnchorPoint: "Anclaje-42" 393 0 basechar 0
AnchorPoint: "Anclaje-34" 260 708 basechar 0
AnchorPoint: "Anclaje-33" 260 0 basechar 0
LayerCount: 2
Fore
SplineSet
289 829 m 0
 304 847 304 847 304 876 c 0
 304 899 304 899 292 912 c 0
 280 925 280 925 258 925 c 0
 244 925 244 925 235 919.5 c 0
 226 914 226 914 226 905 c 0
 226 901 226 901 227 896.5 c 0
 228 892 228 892 230 888 c 0
 232 883 232 883 233.5 877 c 0
 235 871 235 871 235 866 c 0
 235 852 235 852 224 843 c 0
 213 834 213 834 195 834 c 0
 173 834 173 834 159.5 848.5 c 0
 146 863 146 863 146 887 c 0
 146 925 146 925 178.5 948.5 c 0
 211 972 211 972 264 972 c 256
 317 972 317 972 350 946 c 0
 383 920 383 920 383 878 c 256
 383 836 383 836 350 804 c 0
 317 772 317 772 256 754 c 1
 237 796 l 1
 274 811 274 811 289 829 c 0
EndSplineSet
Refer: 64 73 N 1 0 0 1 0 0 0
Substitution2: "'c2sc' May+APoA-sculas a min+APoA-sculas b+APoA-squeda 35 subtabla" uni1EC9.smcp
AlternateSubs2: "'aalt' Activar todas las variantes b+APoA-squeda 0 subtabla" uni1EC9.smcp
Position2: "'cpsp' Espaciado de may+APoA-sculas b+APoA-squeda 55 subtabla" dx=40 dy=0 dh=40 dv=0
EndChar

StartChar: Imacron
Encoding: 298 298 74
Width: 519
GlyphClass: 1
Flags: W
AnchorPoint: "Anclaje-42" 393 0 basechar 0
AnchorPoint: "Anclaje-34" 261 928 basechar 0
AnchorPoint: "Anclaje-33" 260 0 basechar 0
LayerCount: 2
Fore
SplineSet
84 869 m 1
 436 869 l 1
 436 794 l 1
 84 794 l 1
 84 869 l 1
EndSplineSet
Refer: 64 73 N 1 0 0 1 0 0 0
Substitution2: "'c2sc' May+APoA-sculas a min+APoA-sculas b+APoA-squeda 35 subtabla" imacron.smcp
AlternateSubs2: "'aalt' Activar todas las variantes b+APoA-squeda 0 subtabla" imacron.smcp
Position2: "'cpsp' Espaciado de may+APoA-sculas b+APoA-squeda 55 subtabla" dx=40 dy=0 dh=40 dv=0
EndChar

StartChar: Iogonek
Encoding: 302 302 75
Width: 519
GlyphClass: 1
Flags: W
AnchorPoint: "Anclaje-42" 393 0 basechar 0
AnchorPoint: "Anclaje-34" 260 708 basechar 0
AnchorPoint: "Anclaje-33" 260 0 basechar 0
LayerCount: 2
Fore
SplineSet
248 -221.5 m 0
 222 -198 222 -198 222 -159 c 0
 222 -115 222 -115 258.5 -69.5 c 0
 295 -24 295 -24 361 15 c 1
 404 15 l 1
 355 -32 355 -32 335 -64 c 0
 315 -96 315 -96 315 -127 c 0
 315 -147 315 -147 324.5 -158.5 c 0
 334 -170 334 -170 352 -170 c 0
 364 -170 364 -170 377 -165.5 c 0
 390 -161 390 -161 399 -154 c 1
 424 -209 l 1
 405 -225 405 -225 376 -235 c 0
 347 -245 347 -245 318 -245 c 0
 274 -245 274 -245 248 -221.5 c 0
EndSplineSet
Refer: 64 73 N 1 0 0 1 0 0 0
Substitution2: "'c2sc' May+APoA-sculas a min+APoA-sculas b+APoA-squeda 35 subtabla" iogonek.smcp
AlternateSubs2: "'aalt' Activar todas las variantes b+APoA-squeda 0 subtabla" iogonek.smcp
Position2: "'cpsp' Espaciado de may+APoA-sculas b+APoA-squeda 55 subtabla" dx=40 dy=0 dh=40 dv=0
EndChar

StartChar: Itilde
Encoding: 296 296 76
Width: 519
GlyphClass: 1
Flags: W
AnchorPoint: "Anclaje-42" 393 0 basechar 0
AnchorPoint: "Anclaje-34" 260 928 basechar 0
AnchorPoint: "Anclaje-33" 260 0 basechar 0
LayerCount: 2
Fore
SplineSet
298.5 780.5 m 0
 275 789 275 789 247 804 c 0
 222 817 222 817 205.5 823 c 0
 189 829 189 829 173 829 c 0
 153 829 153 829 139 816.5 c 0
 125 804 125 804 118 778 c 1
 58 796 l 1
 63 843 63 843 95 874 c 0
 127 905 127 905 172 905 c 0
 196 905 196 905 219.5 896.5 c 0
 243 888 243 888 270 873 c 0
 296 860 296 860 312 854 c 0
 328 848 328 848 344 848 c 0
 365 848 365 848 378.5 860.5 c 0
 392 873 392 873 400 899 c 1
 460 881 l 1
 455 834 455 834 423 803 c 0
 391 772 391 772 346 772 c 0
 322 772 322 772 298.5 780.5 c 0
EndSplineSet
Refer: 64 73 N 1 0 0 1 0 0 0
Substitution2: "'c2sc' May+APoA-sculas a min+APoA-sculas b+APoA-squeda 35 subtabla" itilde.smcp
AlternateSubs2: "'aalt' Activar todas las variantes b+APoA-squeda 0 subtabla" itilde.smcp
Position2: "'cpsp' Espaciado de may+APoA-sculas b+APoA-squeda 55 subtabla" dx=40 dy=0 dh=40 dv=0
EndChar

StartChar: J
Encoding: 74 74 77
Width: 481
GlyphClass: 1
Flags: W
AnchorPoint: "Anclaje-34" 244 708 basechar 0
AnchorPoint: "Anclaje-33" 243 -231 basechar 0
AnchorPoint: "Cursive-19" 0 0 entry 0
LayerCount: 2
Fore
SplineSet
127.5 -148 m 128,-1,1
 165 -127 165 -127 181 -78 c 128,-1,2
 197 -29 197 -29 197 62 c 2,3,-1
 197 552 l 2,4,5
 197 589 197 589 186 606 c 128,-1,6
 175 623 175 623 144.5 629.5 c 128,-1,7
 114 636 114 636 46 638 c 1,8,-1
 46 708 l 1,9,10
 103 705 103 705 242 705 c 0,11,12
 373 705 373 705 431 708 c 1,13,-1
 431 638 l 1,14,15
 367 636 367 636 338.5 629.5 c 128,-1,16
 310 623 310 623 300 606 c 128,-1,17
 290 589 290 589 290 552 c 2,18,-1
 290 86 l 2,19,20
 290 -37 290 -37 264.5 -107 c 128,-1,21
 239 -177 239 -177 181 -208 c 128,-1,22
 123 -239 123 -239 20 -239 c 1,23,-1
 20 -170 l 1,24,0
 90 -169 90 -169 127.5 -148 c 128,-1,1
EndSplineSet
Substitution2: "'c2sc' May+APoA-sculas a min+APoA-sculas b+APoA-squeda 35 subtabla" j.smcp
AlternateSubs2: "'aalt' Activar todas las variantes b+APoA-squeda 0 subtabla" j.smcp
Position2: "'cpsp' Espaciado de may+APoA-sculas b+APoA-squeda 55 subtabla" dx=40 dy=0 dh=40 dv=0
EndChar

StartChar: Jcircumflex
Encoding: 308 308 78
Width: 481
GlyphClass: 1
Flags: W
AnchorPoint: "Anclaje-43" 392 856 basechar 0
AnchorPoint: "Anclaje-34" 244 928 basechar 0
AnchorPoint: "Anclaje-33" 243 -231 basechar 0
AnchorPoint: "Cursive-19" 0 0 entry 0
LayerCount: 2
Fore
SplineSet
28 832 m 1
 184 950 l 1
 304 950 l 1
 445 834 l 1
 405 782 l 1
 184 908 l 1
 251 908 l 1
 63 783 l 1
 28 832 l 1
EndSplineSet
Refer: 77 74 N 1 0 0 1 0 0 0
Substitution2: "'c2sc' May+APoA-sculas a min+APoA-sculas b+APoA-squeda 35 subtabla" jcircumflex.smcp
AlternateSubs2: "'aalt' Activar todas las variantes b+APoA-squeda 0 subtabla" jcircumflex.smcp
Position2: "'cpsp' Espaciado de may+APoA-sculas b+APoA-squeda 55 subtabla" dx=40 dy=0 dh=40 dv=0
EndChar

StartChar: K
Encoding: 75 75 79
Width: 845
GlyphClass: 1
Flags: W
AnchorPoint: "Anclaje-38" 426 356 basechar 0
AnchorPoint: "Anclaje-34" 425 708 basechar 0
AnchorPoint: "Anclaje-33" 452 0 basechar 0
LayerCount: 2
Fore
SplineSet
565 78 m 128,-1,1
 587 85 587 85 590 99.5 c 128,-1,2
 593 114 593 114 579 139 c 2,3,-1
 527 231 l 2,4,5
 506 268 506 268 485.5 287 c 128,-1,6
 465 306 465 306 436 313.5 c 128,-1,7
 407 321 407 321 358 321 c 2,8,-1
 272 321 l 1,9,-1
 272 391 l 1,10,-1
 358 391 l 2,11,12
 383 391 383 391 400 395.5 c 128,-1,13
 417 400 417 400 432 411.5 c 128,-1,14
 447 423 447 423 466 446 c 2,15,-1
 557 555 l 2,16,17
 577 579 577 579 578 597.5 c 128,-1,18
 579 616 579 616 560 626.5 c 128,-1,19
 541 637 541 637 505 638 c 1,20,-1
 505 708 l 1,21,22
 598 705 598 705 660 705 c 0,23,24
 749 705 749 705 795 708 c 1,25,-1
 795 638 l 1,26,27
 745 631 745 631 714.5 613.5 c 128,-1,28
 684 596 684 596 647 553 c 2,29,-1
 478 351 l 1,30,-1
 462 391 l 1,31,32
 497 384 497 384 520.5 372 c 128,-1,33
 544 360 544 360 563.5 338 c 128,-1,34
 583 316 583 316 605 277 c 2,35,-1
 679 147 l 2,36,37
 702 107 702 107 728.5 92 c 128,-1,38
 755 77 755 77 816 70 c 1,39,-1
 816 0 l 1,40,41
 671 3 671 3 656 3 c 0,42,43
 606 3 606 3 556 2 c 2,44,-1
 498 0 l 1,45,-1
 498 70 l 1,46,0
 543 71 543 71 565 78 c 128,-1,1
164.5 78.5 m 128,-1,48
 193 85 193 85 203 102 c 128,-1,49
 213 119 213 119 213 156 c 2,50,-1
 213 552 l 2,51,52
 213 589 213 589 203 606 c 128,-1,53
 193 623 193 623 164.5 629.5 c 128,-1,54
 136 636 136 636 72 638 c 1,55,-1
 72 708 l 1,56,57
 126 705 126 705 260 705 c 0,58,59
 375 705 375 705 417 708 c 1,60,-1
 417 638 l 1,61,62
 367 636 367 636 344.5 629.5 c 128,-1,63
 322 623 322 623 314 606 c 128,-1,64
 306 589 306 589 306 552 c 2,65,-1
 306 156 l 2,66,67
 306 119 306 119 314 102 c 128,-1,68
 322 85 322 85 344.5 78.5 c 128,-1,69
 367 72 367 72 417 70 c 1,70,-1
 417 0 l 1,71,72
 375 3 375 3 260 3 c 0,73,74
 126 3 126 3 72 0 c 1,75,-1
 72 70 l 1,76,47
 136 72 136 72 164.5 78.5 c 128,-1,48
EndSplineSet
Substitution2: "Single Substitution b+APoA-squeda 57 subtabla" K.varAlt01
Substitution2: "'c2sc' May+APoA-sculas a min+APoA-sculas b+APoA-squeda 35 subtabla" k.smcp
AlternateSubs2: "'aalt' Activar todas las variantes b+APoA-squeda 0 subtabla" k.smcp
Position2: "'cpsp' Espaciado de may+APoA-sculas b+APoA-squeda 55 subtabla" dx=40 dy=0 dh=40 dv=0
EndChar

StartChar: L
Encoding: 76 76 81
Width: 694
GlyphClass: 1
Flags: W
AnchorPoint: "Anclaje-43" 507 708 basechar 0
AnchorPoint: "Anclaje-38" 261 354 basechar 0
AnchorPoint: "Anclaje-34" 260 708 basechar 0
AnchorPoint: "Anclaje-33" 402 0 basechar 0
LayerCount: 2
Fore
SplineSet
164.5 78.5 m 128,-1,1
 193 85 193 85 203 102 c 128,-1,2
 213 119 213 119 213 156 c 2,3,-1
 213 552 l 2,4,5
 213 589 213 589 203 606 c 128,-1,6
 193 623 193 623 164.5 629.5 c 128,-1,7
 136 636 136 636 72 638 c 1,8,-1
 72 708 l 1,9,10
 128 705 128 705 260 705 c 0,11,12
 373 705 373 705 414 706 c 0,13,14
 451 706 451 706 487 708 c 1,15,-1
 487 638 l 1,16,17
 405 636 405 636 368.5 629.5 c 128,-1,18
 332 623 332 623 319 606 c 128,-1,19
 306 589 306 589 306 552 c 2,20,-1
 306 156 l 2,21,22
 306 119 306 119 312 102 c 128,-1,23
 318 85 318 85 334.5 79 c 128,-1,24
 351 73 351 73 387 73 c 2,25,-1
 410 73 l 2,26,27
 469 73 469 73 501 87 c 128,-1,28
 533 101 533 101 553.5 137.5 c 128,-1,29
 574 174 574 174 594 250 c 1,30,-1
 667 250 l 1,31,32
 653 140 653 140 651 0 c 1,33,34
 569 3 569 3 422 3 c 0,35,36
 183 3 183 3 72 0 c 1,37,-1
 72 70 l 1,38,0
 136 72 136 72 164.5 78.5 c 128,-1,1
EndSplineSet
Substitution2: "'c2sc' May+APoA-sculas a min+APoA-sculas b+APoA-squeda 35 subtabla" l.smcp
AlternateSubs2: "'aalt' Activar todas las variantes b+APoA-squeda 0 subtabla" l.smcp
Position2: "'cpsp' Espaciado de may+APoA-sculas b+APoA-squeda 55 subtabla" dx=40 dy=0 dh=40 dv=0
EndChar

StartChar: Lacute
Encoding: 313 313 82
Width: 694
GlyphClass: 1
Flags: W
AnchorPoint: "Anclaje-43" 507 708 basechar 0
AnchorPoint: "Anclaje-38" 261 354 basechar 0
AnchorPoint: "Anclaje-34" 260 928 basechar 0
AnchorPoint: "Anclaje-33" 402 0 basechar 0
LayerCount: 2
Fore
SplineSet
274 792 m 0
 307 804 307 804 334 813 c 0
 352 820 352 820 368 826 c 0
 384 832 384 832 392 837 c 0
 420 855 420 855 429 879.5 c 0
 438 904 438 904 425 925 c 0
 411 947 411 947 385 950 c 0
 359 953 359 953 331 936 c 0
 322 931 322 931 309 918.5 c 0
 296 906 296 906 281 892 c 0
 261 871 261 871 237.5 849 c 0
 214 827 214 827 184 803 c 1
 207 764 l 1
 241 780 241 780 274 792 c 0
EndSplineSet
Refer: 81 76 N 1 0 0 1 0 0 0
Substitution2: "'c2sc' May+APoA-sculas a min+APoA-sculas b+APoA-squeda 35 subtabla" lacute.smcp
AlternateSubs2: "'aalt' Activar todas las variantes b+APoA-squeda 0 subtabla" lacute.smcp
Position2: "'cpsp' Espaciado de may+APoA-sculas b+APoA-squeda 55 subtabla" dx=40 dy=0 dh=40 dv=0
EndChar

StartChar: Lcaron
Encoding: 317 317 83
Width: 694
GlyphClass: 1
Flags: W
AnchorPoint: "Anclaje-43" 507 708 basechar 0
AnchorPoint: "Anclaje-38" 261 354 basechar 0
AnchorPoint: "Anclaje-34" 260 708 basechar 0
AnchorPoint: "Anclaje-33" 402 0 basechar 0
LayerCount: 2
Fore
SplineSet
164.5 78.5 m 128,-1,1
 193 85 193 85 203 102 c 128,-1,2
 213 119 213 119 213 156 c 2,3,-1
 213 552 l 2,4,5
 213 589 213 589 203 606 c 128,-1,6
 193 623 193 623 164.5 629.5 c 128,-1,7
 136 636 136 636 72 638 c 1,8,-1
 72 708 l 1,9,10
 128 705 128 705 260 705 c 0,11,12
 373 705 373 705 414 706 c 0,13,14
 451 706 451 706 487 708 c 1,15,-1
 487 638 l 1,16,17
 405 636 405 636 368.5 629.5 c 128,-1,18
 332 623 332 623 319 606 c 128,-1,19
 306 589 306 589 306 552 c 2,20,-1
 306 156 l 2,21,22
 306 119 306 119 312 102 c 128,-1,23
 318 85 318 85 334.5 79 c 128,-1,24
 351 73 351 73 387 73 c 2,25,-1
 410 73 l 2,26,27
 469 73 469 73 501 87 c 128,-1,28
 533 101 533 101 553.5 137.5 c 128,-1,29
 574 174 574 174 594 250 c 1,30,-1
 667 250 l 1,31,32
 653 140 653 140 651 0 c 1,33,34
 569 3 569 3 422 3 c 0,35,36
 183 3 183 3 72 0 c 1,37,-1
 72 70 l 1,38,0
 136 72 136 72 164.5 78.5 c 128,-1,1
571.5 538 m 128,-1,40
 578 584 578 584 578 607 c 0,41,42
 578 624 578 624 570.5 630.5 c 128,-1,43
 563 637 563 637 542 637 c 1,44,-1
 542 708 l 1,45,46
 574 706 574 706 602 709 c 128,-1,47
 630 712 630 712 663 719 c 1,48,49
 665 714 665 714 666.5 695.5 c 128,-1,50
 668 677 668 677 668 658 c 0,51,52
 668 617 668 617 655 554 c 128,-1,53
 642 491 642 491 610 406 c 1,54,-1
 552 422 l 1,55,39
 565 492 565 492 571.5 538 c 128,-1,40
EndSplineSet
Substitution2: "'c2sc' May+APoA-sculas a min+APoA-sculas b+APoA-squeda 35 subtabla" lcaron.smcp
AlternateSubs2: "'aalt' Activar todas las variantes b+APoA-squeda 0 subtabla" lcaron.smcp
Position2: "'cpsp' Espaciado de may+APoA-sculas b+APoA-squeda 55 subtabla" dx=40 dy=0 dh=40 dv=0
EndChar

StartChar: Lslash
Encoding: 321 321 86
Width: 694
GlyphClass: 1
Flags: W
AnchorPoint: "Anclaje-43" 507 708 basechar 0
AnchorPoint: "Anclaje-38" 261 354 basechar 0
AnchorPoint: "Anclaje-34" 260 708 basechar 0
AnchorPoint: "Anclaje-33" 402 0 basechar 0
LayerCount: 2
Fore
SplineSet
164.5 78.5 m 128,-1,1
 193 85 193 85 203 102 c 128,-1,2
 213 119 213 119 213 156 c 2,3,-1
 213 552 l 2,4,5
 213 589 213 589 203 606 c 128,-1,6
 193 623 193 623 164.5 629.5 c 128,-1,7
 136 636 136 636 72 638 c 1,8,-1
 72 708 l 1,9,10
 128 705 128 705 260 705 c 0,11,12
 373 705 373 705 414 706 c 0,13,14
 451 706 451 706 487 708 c 1,15,-1
 487 638 l 1,16,17
 405 636 405 636 368.5 629.5 c 128,-1,18
 332 623 332 623 319 606 c 128,-1,19
 306 589 306 589 306 552 c 2,20,-1
 306 156 l 2,21,22
 306 119 306 119 312 102 c 128,-1,23
 318 85 318 85 334.5 79 c 128,-1,24
 351 73 351 73 387 73 c 2,25,-1
 410 73 l 2,26,27
 469 73 469 73 501 87 c 128,-1,28
 533 101 533 101 553.5 137.5 c 128,-1,29
 574 174 574 174 594 250 c 1,30,-1
 667 250 l 1,31,32
 653 140 653 140 651 0 c 1,33,34
 569 3 569 3 422 3 c 0,35,36
 183 3 183 3 72 0 c 1,37,-1
 72 70 l 1,38,0
 136 72 136 72 164.5 78.5 c 128,-1,1
259 333 m 1,39,-1
 543 498 l 1,40,-1
 543 425 l 1,41,-1
 259 260 l 1,42,-1
 259 333 l 1,39,-1
112 258 m 1,43,-1
 259 343 l 1,44,-1
 259 270 l 1,45,-1
 112 185 l 1,46,-1
 112 258 l 1,43,-1
EndSplineSet
Substitution2: "'c2sc' May+APoA-sculas a min+APoA-sculas b+APoA-squeda 35 subtabla" lslash.smcp
AlternateSubs2: "'aalt' Activar todas las variantes b+APoA-squeda 0 subtabla" lslash.smcp
Position2: "'cpsp' Espaciado de may+APoA-sculas b+APoA-squeda 55 subtabla" dx=40 dy=0 dh=40 dv=0
EndChar

StartChar: M
Encoding: 77 77 87
Width: 1051
GlyphClass: 1
Flags: W
AnchorPoint: "Anclaje-34" 526 708 basechar 0
AnchorPoint: "Anclaje-33" 526 0 basechar 0
LayerCount: 2
Fore
SplineSet
317 628 m 1,0,-1
 286 628 l 1,1,-1
 286 166 l 2,2,3
 286 127 286 127 295.5 107.5 c 128,-1,4
 305 88 305 88 330 80 c 128,-1,5
 355 72 355 72 407 70 c 1,6,-1
 407 0 l 1,7,8
 368 3 368 3 255 3 c 0,9,10
 125 3 125 3 72 0 c 1,11,-1
 72 70 l 1,12,13
 131 72 131 72 160.5 80 c 128,-1,14
 190 88 190 88 201.5 107.5 c 128,-1,15
 213 127 213 127 213 166 c 2,16,-1
 213 552 l 2,17,18
 213 589 213 589 203 606 c 128,-1,19
 193 623 193 623 164.5 629.5 c 128,-1,20
 136 636 136 636 72 638 c 1,21,-1
 72 708 l 1,22,23
 122 705 122 705 245 705 c 0,24,25
 346 705 346 705 389 708 c 1,26,-1
 558 86 l 1,27,-1
 503 85 l 1,28,-1
 663 708 l 1,29,30
 722 705 722 705 802 705 c 0,31,32
 931 705 931 705 979 708 c 1,33,-1
 979 638 l 1,34,35
 915 636 915 636 886.5 629.5 c 128,-1,36
 858 623 858 623 848 606 c 128,-1,37
 838 589 838 589 838 552 c 2,38,-1
 838 156 l 2,39,40
 838 119 838 119 848 102 c 128,-1,41
 858 85 858 85 886.5 78.5 c 128,-1,42
 915 72 915 72 979 70 c 1,43,-1
 979 0 l 1,44,45
 925 3 925 3 797 3 c 0,46,47
 681 3 681 3 634 0 c 1,48,-1
 634 70 l 1,49,50
 684 72 684 72 706.5 78.5 c 128,-1,51
 729 85 729 85 737 102 c 128,-1,52
 745 119 745 119 745 156 c 2,53,-1
 745 625 l 1,54,-1
 714 625 l 1,55,-1
 554 0 l 1,56,-1
 488 0 l 1,57,-1
 317 628 l 1,0,-1
EndSplineSet
Substitution2: "'c2sc' May+APoA-sculas a min+APoA-sculas b+APoA-squeda 35 subtabla" m.smcp
AlternateSubs2: "'aalt' Activar todas las variantes b+APoA-squeda 0 subtabla" m.smcp
Position2: "'cpsp' Espaciado de may+APoA-sculas b+APoA-squeda 55 subtabla" dx=40 dy=0 dh=40 dv=0
EndChar

StartChar: N
Encoding: 78 78 88
Width: 892
GlyphClass: 1
Flags: W
AnchorPoint: "Anclaje-38" 461 356 basechar 0
AnchorPoint: "Anclaje-34" 464 708 basechar 0
AnchorPoint: "Anclaje-33" 457 0 basechar 0
LayerCount: 2
Fore
SplineSet
317 599 m 1,0,-1
 286 599 l 1,1,-1
 286 166 l 2,2,3
 286 127 286 127 295.5 107.5 c 128,-1,4
 305 88 305 88 330 80 c 128,-1,5
 355 72 355 72 407 70 c 1,6,-1
 407 0 l 1,7,8
 368 3 368 3 255 3 c 0,9,10
 125 3 125 3 72 0 c 1,11,-1
 72 70 l 1,12,13
 131 72 131 72 160.5 80 c 128,-1,14
 190 88 190 88 201.5 107.5 c 128,-1,15
 213 127 213 127 213 166 c 2,16,-1
 213 552 l 2,17,18
 213 589 213 589 203 606 c 128,-1,19
 193 623 193 623 164.5 629.5 c 128,-1,20
 136 636 136 636 72 638 c 1,21,-1
 72 708 l 1,22,23
 122 705 122 705 245 705 c 0,24,25
 328 705 328 705 364 708 c 1,26,-1
 575 238 l 1,27,-1
 606 238 l 1,28,-1
 606 542 l 2,29,30
 606 581 606 581 596.5 600.5 c 128,-1,31
 587 620 587 620 562 628 c 128,-1,32
 537 636 537 636 485 638 c 1,33,-1
 485 708 l 1,34,35
 524 705 524 705 637 705 c 0,36,37
 768 705 768 705 820 708 c 1,38,-1
 820 638 l 1,39,40
 761 636 761 636 731.5 628 c 128,-1,41
 702 620 702 620 690.5 600.5 c 128,-1,42
 679 581 679 581 679 542 c 2,43,-1
 679 0 l 1,44,-1
 586 0 l 1,45,-1
 317 599 l 1,0,-1
EndSplineSet
Substitution2: "'c2sc' May+APoA-sculas a min+APoA-sculas b+APoA-squeda 35 subtabla" n.smcp
AlternateSubs2: "'aalt' Activar todas las variantes b+APoA-squeda 0 subtabla" n.smcp
Position2: "'cpsp' Espaciado de may+APoA-sculas b+APoA-squeda 55 subtabla" dx=40 dy=0 dh=40 dv=0
EndChar

StartChar: Nacute
Encoding: 323 323 89
Width: 892
GlyphClass: 1
Flags: W
AnchorPoint: "Anclaje-38" 461 356 basechar 0
AnchorPoint: "Anclaje-34" 464 928 basechar 0
AnchorPoint: "Anclaje-33" 457 0 basechar 0
LayerCount: 2
Fore
SplineSet
478 792 m 0
 511 804 511 804 538 813 c 0
 556 820 556 820 572 826 c 0
 588 832 588 832 596 837 c 0
 624 855 624 855 633 879.5 c 0
 642 904 642 904 629 925 c 0
 615 947 615 947 589 950 c 0
 563 953 563 953 535 936 c 0
 526 931 526 931 513 918.5 c 0
 500 906 500 906 485 892 c 0
 465 871 465 871 441.5 849 c 0
 418 827 418 827 388 803 c 1
 411 764 l 1
 445 780 445 780 478 792 c 0
EndSplineSet
Refer: 88 78 N 1 0 0 1 0 0 0
Substitution2: "'c2sc' May+APoA-sculas a min+APoA-sculas b+APoA-squeda 35 subtabla" nacute.smcp
Substitution2: "'locl' Formas localizadas en Latin b+APoA-squeda 7 subtabla" Nacute.loclPLK
AlternateSubs2: "'aalt' Activar todas las variantes b+APoA-squeda 0 subtabla" Nacute.loclPLK nacute.smcp
Position2: "'cpsp' Espaciado de may+APoA-sculas b+APoA-squeda 55 subtabla" dx=40 dy=0 dh=40 dv=0
EndChar

StartChar: Ncaron
Encoding: 327 327 90
Width: 892
GlyphClass: 1
Flags: W
AnchorPoint: "Anclaje-38" 461 356 basechar 0
AnchorPoint: "Anclaje-34" 464 928 basechar 0
AnchorPoint: "Anclaje-33" 457 0 basechar 0
LayerCount: 2
Fore
SplineSet
667 900 m 1
 511 782 l 1
 391 782 l 1
 250 898 l 1
 290 950 l 1
 511 824 l 1
 444 824 l 1
 632 949 l 1
 667 900 l 1
EndSplineSet
Refer: 88 78 N 1 0 0 1 0 0 0
Substitution2: "'c2sc' May+APoA-sculas a min+APoA-sculas b+APoA-squeda 35 subtabla" ncaron.smcp
AlternateSubs2: "'aalt' Activar todas las variantes b+APoA-squeda 0 subtabla" ncaron.smcp
Position2: "'cpsp' Espaciado de may+APoA-sculas b+APoA-squeda 55 subtabla" dx=40 dy=0 dh=40 dv=0
EndChar

StartChar: Ntilde
Encoding: 209 209 92
Width: 892
GlyphClass: 1
Flags: W
AnchorPoint: "Anclaje-38" 461 356 basechar 0
AnchorPoint: "Anclaje-34" 464 928 basechar 0
AnchorPoint: "Anclaje-33" 457 0 basechar 0
LayerCount: 2
Fore
SplineSet
502.5 780.5 m 0
 479 789 479 789 451 804 c 0
 426 817 426 817 409.5 823 c 0
 393 829 393 829 377 829 c 0
 357 829 357 829 343 816.5 c 0
 329 804 329 804 322 778 c 1
 262 796 l 1
 267 843 267 843 299 874 c 0
 331 905 331 905 376 905 c 0
 400 905 400 905 423.5 896.5 c 0
 447 888 447 888 474 873 c 0
 500 860 500 860 516 854 c 0
 532 848 532 848 548 848 c 0
 569 848 569 848 582.5 860.5 c 0
 596 873 596 873 604 899 c 1
 664 881 l 1
 659 834 659 834 627 803 c 0
 595 772 595 772 550 772 c 0
 526 772 526 772 502.5 780.5 c 0
EndSplineSet
Refer: 88 78 N 1 0 0 1 0 0 0
Substitution2: "'c2sc' May+APoA-sculas a min+APoA-sculas b+APoA-squeda 35 subtabla" ntilde.smcp
AlternateSubs2: "'aalt' Activar todas las variantes b+APoA-squeda 0 subtabla" ntilde.smcp
Position2: "'cpsp' Espaciado de may+APoA-sculas b+APoA-squeda 55 subtabla" dx=40 dy=0 dh=40 dv=0
EndChar

StartChar: Eng
Encoding: 330 330 93
Width: 892
GlyphClass: 1
Flags: W
AnchorPoint: "Anclaje-38" 461 356 basechar 0
AnchorPoint: "Anclaje-34" 464 708 basechar 0
AnchorPoint: "Anclaje-33" 457 0 basechar 0
LayerCount: 2
Fore
SplineSet
317 599 m 1,0,-1
 286 599 l 1,1,-1
 286 166 l 2,2,3
 286 127 286 127 295.5 107.5 c 128,-1,4
 305 88 305 88 330 80 c 128,-1,5
 355 72 355 72 407 70 c 1,6,-1
 407 0 l 1,7,8
 368 3 368 3 255 3 c 0,9,10
 125 3 125 3 72 0 c 1,11,-1
 72 70 l 1,12,13
 131 72 131 72 160.5 80 c 128,-1,14
 190 88 190 88 201.5 107.5 c 128,-1,15
 213 127 213 127 213 166 c 2,16,-1
 213 552 l 2,17,18
 213 589 213 589 203 606 c 128,-1,19
 193 623 193 623 164.5 629.5 c 128,-1,20
 136 636 136 636 72 638 c 1,21,-1
 72 708 l 1,22,23
 122 705 122 705 245 705 c 0,24,25
 328 705 328 705 364 708 c 1,26,-1
 575 238 l 1,27,-1
 606 238 l 1,28,-1
 606 542 l 2,29,30
 606 581 606 581 596.5 600.5 c 128,-1,31
 587 620 587 620 562 628 c 128,-1,32
 537 636 537 636 485 638 c 1,33,-1
 485 708 l 1,34,35
 524 705 524 705 637 705 c 0,36,37
 768 705 768 705 820 708 c 1,38,-1
 820 638 l 1,39,40
 761 636 761 636 731.5 628 c 128,-1,41
 702 620 702 620 690.5 600.5 c 128,-1,42
 679 581 679 581 679 542 c 2,43,-1
 679 0 l 1,44,-1
 586 0 l 1,45,-1
 317 599 l 1,0,-1
446.5 -207.5 m 128,-1,47
 409 -176 409 -176 409 -125 c 0,48,49
 409 -87 409 -87 431 -64 c 128,-1,50
 453 -41 453 -41 490 -41 c 0,51,52
 516 -41 516 -41 531.5 -53 c 128,-1,53
 547 -65 547 -65 547 -87 c 0,54,55
 547 -99 547 -99 542.5 -108.5 c 128,-1,56
 538 -118 538 -118 530 -129 c 0,57,58
 525 -135 525 -135 521 -142 c 128,-1,59
 517 -149 517 -149 517 -156 c 0,60,61
 517 -165 517 -165 524 -169.5 c 128,-1,62
 531 -174 531 -174 545 -174 c 0,63,64
 577 -174 577 -174 591.5 -153.5 c 128,-1,65
 606 -133 606 -133 606 -89 c 2,66,-1
 606 84 l 1,67,-1
 679 84 l 1,68,-1
 679 -90 l 2,69,70
 679 -162 679 -162 644.5 -200.5 c 128,-1,71
 610 -239 610 -239 545 -239 c 0,72,46
 484 -239 484 -239 446.5 -207.5 c 128,-1,47
EndSplineSet
Substitution2: "'c2sc' May+APoA-sculas a min+APoA-sculas b+APoA-squeda 35 subtabla" eng.smcp
AlternateSubs2: "'aalt' Activar todas las variantes b+APoA-squeda 0 subtabla" eng.smcp
Position2: "'cpsp' Espaciado de may+APoA-sculas b+APoA-squeda 55 subtabla" dx=40 dy=0 dh=40 dv=0
EndChar

StartChar: O
Encoding: 79 79 94
Width: 801
GlyphClass: 1
Flags: W
AnchorPoint: "Anclaje-42" 503 0 basechar 0
AnchorPoint: "Anclaje-38" 401 354 basechar 0
AnchorPoint: "Anclaje-34" 399 708 basechar 0
AnchorPoint: "Anclaje-33" 402 0 basechar 0
LayerCount: 2
Fore
SplineSet
233.5 29 m 128,-1,1
 162 72 162 72 122.5 153.5 c 128,-1,2
 83 235 83 235 83 348 c 0,3,4
 83 458 83 458 123.5 543 c 128,-1,5
 164 628 164 628 236.5 675 c 128,-1,6
 309 722 309 722 401 722 c 0,7,8
 496 722 496 722 567.5 679 c 128,-1,9
 639 636 639 636 678.5 554.5 c 128,-1,10
 718 473 718 473 718 360 c 0,11,12
 718 250 718 250 677.5 165 c 128,-1,13
 637 80 637 80 564.5 33 c 128,-1,14
 492 -14 492 -14 400 -14 c 0,15,0
 305 -14 305 -14 233.5 29 c 128,-1,1
516.5 92 m 128,-1,17
 565 130 565 130 591.5 199 c 128,-1,18
 618 268 618 268 618 356 c 0,19,20
 618 445 618 445 588.5 512.5 c 128,-1,21
 559 580 559 580 509 617 c 128,-1,22
 459 654 459 654 397 654 c 0,23,24
 333 654 333 654 284.5 616 c 128,-1,25
 236 578 236 578 209.5 509 c 128,-1,26
 183 440 183 440 183 352 c 0,27,28
 183 263 183 263 212.5 195.5 c 128,-1,29
 242 128 242 128 292 91 c 128,-1,30
 342 54 342 54 404 54 c 0,31,16
 468 54 468 54 516.5 92 c 128,-1,17
EndSplineSet
Substitution2: "Single Substitution b+APoA-squeda 93 subtabla" ordmasculine
Substitution2: "'c2sc' May+APoA-sculas a min+APoA-sculas b+APoA-squeda 35 subtabla" o.smcp
AlternateSubs2: "'aalt' Activar todas las variantes b+APoA-squeda 0 subtabla" ordmasculine o.smcp
Position2: "'cpsp' Espaciado de may+APoA-sculas b+APoA-squeda 55 subtabla" dx=40 dy=0 dh=40 dv=0
EndChar

StartChar: Oacute
Encoding: 211 211 95
Width: 801
GlyphClass: 1
Flags: W
AnchorPoint: "Anclaje-42" 503 0 basechar 0
AnchorPoint: "Anclaje-38" 401 354 basechar 0
AnchorPoint: "Anclaje-34" 399 928 basechar 0
AnchorPoint: "Anclaje-33" 402 0 basechar 0
LayerCount: 2
Fore
SplineSet
413 792 m 0
 446 804 446 804 473 813 c 0
 491 820 491 820 507 826 c 0
 523 832 523 832 531 837 c 0
 559 855 559 855 568 879.5 c 0
 577 904 577 904 564 925 c 0
 550 947 550 947 524 950 c 0
 498 953 498 953 470 936 c 0
 461 931 461 931 448 918.5 c 0
 435 906 435 906 420 892 c 0
 400 871 400 871 376.5 849 c 0
 353 827 353 827 323 803 c 1
 346 764 l 1
 380 780 380 780 413 792 c 0
EndSplineSet
Refer: 94 79 N 1 0 0 1 0 0 0
Substitution2: "'c2sc' May+APoA-sculas a min+APoA-sculas b+APoA-squeda 35 subtabla" oacute.smcp
Substitution2: "'locl' Formas localizadas en Latin b+APoA-squeda 7 subtabla" Oacute.loclPLK
AlternateSubs2: "'aalt' Activar todas las variantes b+APoA-squeda 0 subtabla" Oacute.loclPLK oacute.smcp
Position2: "'cpsp' Espaciado de may+APoA-sculas b+APoA-squeda 55 subtabla" dx=40 dy=0 dh=40 dv=0
EndChar

StartChar: Obreve
Encoding: 334 334 96
Width: 801
GlyphClass: 1
Flags: W
AnchorPoint: "Anclaje-42" 503 0 basechar 0
AnchorPoint: "Anclaje-38" 401 354 basechar 0
AnchorPoint: "Anclaje-37" 399 858 basechar 0
AnchorPoint: "Anclaje-34" 399 858 basechar 0
AnchorPoint: "Anclaje-33" 402 0 basechar 0
LayerCount: 2
Fore
SplineSet
273.5 801 m 0
 215 830 215 830 180 880 c 1
 225 924 l 1
 263 887 263 887 305 869.5 c 0
 347 852 347 852 399 852 c 256
 451 852 451 852 493 869.5 c 0
 535 887 535 887 573 924 c 1
 618 880 l 1
 583 830 583 830 524.5 801 c 0
 466 772 466 772 399 772 c 256
 332 772 332 772 273.5 801 c 0
EndSplineSet
Refer: 94 79 N 1 0 0 1 0 0 0
Substitution2: "'c2sc' May+APoA-sculas a min+APoA-sculas b+APoA-squeda 35 subtabla" obreve.smcp
AlternateSubs2: "'aalt' Activar todas las variantes b+APoA-squeda 0 subtabla" obreve.smcp
Position2: "'cpsp' Espaciado de may+APoA-sculas b+APoA-squeda 55 subtabla" dx=40 dy=0 dh=40 dv=0
EndChar

StartChar: Ocircumflex
Encoding: 212 212 97
Width: 801
GlyphClass: 1
Flags: W
AnchorPoint: "Anclaje-43" 547 856 basechar 0
AnchorPoint: "Anclaje-42" 503 0 basechar 0
AnchorPoint: "Anclaje-38" 401 354 basechar 0
AnchorPoint: "Anclaje-34" 399 928 basechar 0
AnchorPoint: "Anclaje-33" 402 0 basechar 0
LayerCount: 2
Fore
SplineSet
183 832 m 1
 339 950 l 1
 459 950 l 1
 600 834 l 1
 560 782 l 1
 339 908 l 1
 406 908 l 1
 218 783 l 1
 183 832 l 1
EndSplineSet
Refer: 94 79 N 1 0 0 1 0 0 0
Substitution2: "'c2sc' May+APoA-sculas a min+APoA-sculas b+APoA-squeda 35 subtabla" ocircumflex.smcp
AlternateSubs2: "'aalt' Activar todas las variantes b+APoA-squeda 0 subtabla" ocircumflex.smcp
Position2: "'cpsp' Espaciado de may+APoA-sculas b+APoA-squeda 55 subtabla" dx=40 dy=0 dh=40 dv=0
EndChar

StartChar: uni1ED0
Encoding: 7888 7888 98
Width: 801
GlyphClass: 1
Flags: W
AnchorPoint: "Anclaje-43" 527 826 basechar 0
AnchorPoint: "Anclaje-42" 503 0 basechar 0
AnchorPoint: "Anclaje-41" 271 826 basechar 0
AnchorPoint: "Anclaje-40" 520 854 basechar 0
AnchorPoint: "Anclaje-38" 401 354 basechar 0
AnchorPoint: "Anclaje-34" 399 898 basechar 0
AnchorPoint: "Anclaje-33" 402 0 basechar 0
LayerCount: 2
Fore
SplineSet
370 896 m 1
 428 896 l 1
 471 868 471 868 511.5 845 c 0
 552 822 552 822 598 799 c 1
 572 742 l 1
 522 759 522 759 482 775.5 c 0
 442 792 442 792 392 815 c 1
 334 783 334 783 224 738 c 1
 200 789 l 1
 271 826 271 826 370 896 c 1
566.5 905.5 m 0
 585 919 585 919 601 929 c 0
 616 938 616 938 628 947 c 0
 640 956 640 956 647 965 c 0
 667 991 667 991 668 1017 c 0
 669 1043 669 1043 650 1059 c 0
 630 1075 630 1075 602.5 1070.5 c 0
 575 1066 575 1066 558 1040 c 0
 552 1030 552 1030 546 1017.5 c 0
 540 1005 540 1005 534 991 c 0
 527 973 527 973 517 951 c 0
 507 929 507 929 493 904 c 1
 527 874 l 1
 548 892 548 892 566.5 905.5 c 0
EndSplineSet
Refer: 94 79 N 1 0 0 1 0 0 0
Substitution2: "'c2sc' May+APoA-sculas a min+APoA-sculas b+APoA-squeda 35 subtabla" uni1ED1.smcp
AlternateSubs2: "'aalt' Activar todas las variantes b+APoA-squeda 0 subtabla" uni1ED1.smcp
Position2: "'cpsp' Espaciado de may+APoA-sculas b+APoA-squeda 55 subtabla" dx=40 dy=0 dh=40 dv=0
EndChar

StartChar: uni1ED8
Encoding: 7896 7896 99
Width: 801
GlyphClass: 1
Flags: W
AnchorPoint: "Anclaje-43" 547 856 basechar 0
AnchorPoint: "Anclaje-42" 503 0 basechar 0
AnchorPoint: "Anclaje-38" 401 354 basechar 0
AnchorPoint: "Anclaje-34" 399 928 basechar 0
AnchorPoint: "Anclaje-33" 402 -204 basechar 0
LayerCount: 2
Fore
SplineSet
183 832 m 1
 339 950 l 1
 459 950 l 1
 600 834 l 1
 560 782 l 1
 339 908 l 1
 406 908 l 1
 218 783 l 1
 183 832 l 1
EndSplineSet
Refer: 94 79 N 1 0 0 1 0 0 0
Refer: 535 803 N 1 0 0 1 255 0 0
Substitution2: "'c2sc' May+APoA-sculas a min+APoA-sculas b+APoA-squeda 35 subtabla" uni1ED9.smcp
AlternateSubs2: "'aalt' Activar todas las variantes b+APoA-squeda 0 subtabla" uni1ED9.smcp
Position2: "'cpsp' Espaciado de may+APoA-sculas b+APoA-squeda 55 subtabla" dx=40 dy=0 dh=40 dv=0
EndChar

StartChar: uni1ED2
Encoding: 7890 7890 100
Width: 801
GlyphClass: 1
Flags: W
AnchorPoint: "Anclaje-43" 527 826 basechar 0
AnchorPoint: "Anclaje-42" 503 0 basechar 0
AnchorPoint: "Anclaje-41" 271 826 basechar 0
AnchorPoint: "Anclaje-40" 520 854 basechar 0
AnchorPoint: "Anclaje-38" 401 354 basechar 0
AnchorPoint: "Anclaje-34" 399 898 basechar 0
AnchorPoint: "Anclaje-33" 402 0 basechar 0
LayerCount: 2
Fore
SplineSet
370 896 m 1
 428 896 l 1
 471 868 471 868 511.5 845 c 0
 552 822 552 822 598 799 c 1
 572 742 l 1
 522 759 522 759 482 775.5 c 0
 442 792 442 792 392 815 c 1
 334 783 334 783 224 738 c 1
 200 789 l 1
 271 826 271 826 370 896 c 1
228.5 905.5 m 0
 210 919 210 919 194 929 c 0
 179 938 179 938 167 947 c 0
 155 956 155 956 148 965 c 0
 128 991 128 991 127 1017 c 0
 126 1043 126 1043 145 1059 c 0
 165 1075 165 1075 192.5 1070.5 c 0
 220 1066 220 1066 237 1040 c 0
 243 1030 243 1030 249 1017.5 c 0
 255 1005 255 1005 261 991 c 0
 268 973 268 973 278 951 c 0
 288 929 288 929 302 904 c 1
 268 874 l 1
 247 892 247 892 228.5 905.5 c 0
EndSplineSet
Refer: 94 79 N 1 0 0 1 0 0 0
Substitution2: "'c2sc' May+APoA-sculas a min+APoA-sculas b+APoA-squeda 35 subtabla" uni1ED3.smcp
AlternateSubs2: "'aalt' Activar todas las variantes b+APoA-squeda 0 subtabla" uni1ED3.smcp
Position2: "'cpsp' Espaciado de may+APoA-sculas b+APoA-squeda 55 subtabla" dx=40 dy=0 dh=40 dv=0
EndChar

StartChar: uni1ED4
Encoding: 7892 7892 101
Width: 801
GlyphClass: 1
Flags: W
AnchorPoint: "Anclaje-43" 527 826 basechar 0
AnchorPoint: "Anclaje-42" 503 0 basechar 0
AnchorPoint: "Anclaje-41" 271 826 basechar 0
AnchorPoint: "Anclaje-40" 520 854 basechar 0
AnchorPoint: "Anclaje-38" 401 354 basechar 0
AnchorPoint: "Anclaje-34" 399 898 basechar 0
AnchorPoint: "Anclaje-33" 402 0 basechar 0
LayerCount: 2
Fore
SplineSet
370 896 m 1
 428 896 l 1
 471 868 471 868 511.5 845 c 0
 552 822 552 822 598 799 c 1
 572 742 l 1
 522 759 522 759 482 775.5 c 0
 442 792 442 792 392 815 c 1
 334 783 334 783 224 738 c 1
 200 789 l 1
 271 826 271 826 370 896 c 1
591 929 m 0
 606 947 606 947 606 976 c 0
 606 999 606 999 594 1012 c 0
 582 1025 582 1025 560 1025 c 0
 546 1025 546 1025 537 1019.5 c 0
 528 1014 528 1014 528 1005 c 0
 528 1001 528 1001 529 996.5 c 0
 530 992 530 992 532 988 c 0
 534 983 534 983 535.5 977 c 0
 537 971 537 971 537 966 c 0
 537 952 537 952 526 943 c 0
 515 934 515 934 497 934 c 0
 475 934 475 934 461.5 948.5 c 0
 448 963 448 963 448 987 c 0
 448 1025 448 1025 480.5 1048.5 c 0
 513 1072 513 1072 566 1072 c 256
 619 1072 619 1072 652 1046 c 0
 685 1020 685 1020 685 978 c 256
 685 936 685 936 652 904 c 0
 619 872 619 872 558 854 c 1
 539 896 l 1
 576 911 576 911 591 929 c 0
EndSplineSet
Refer: 94 79 N 1 0 0 1 0 0 0
Substitution2: "'c2sc' May+APoA-sculas a min+APoA-sculas b+APoA-squeda 35 subtabla" uni1ED5.smcp
AlternateSubs2: "'aalt' Activar todas las variantes b+APoA-squeda 0 subtabla" uni1ED5.smcp
Position2: "'cpsp' Espaciado de may+APoA-sculas b+APoA-squeda 55 subtabla" dx=40 dy=0 dh=40 dv=0
EndChar

StartChar: uni1ED6
Encoding: 7894 7894 102
Width: 801
GlyphClass: 1
Flags: W
AnchorPoint: "Anclaje-43" 527 826 basechar 0
AnchorPoint: "Anclaje-42" 503 0 basechar 0
AnchorPoint: "Anclaje-41" 271 826 basechar 0
AnchorPoint: "Anclaje-40" 520 854 basechar 0
AnchorPoint: "Anclaje-38" 401 354 basechar 0
AnchorPoint: "Anclaje-34" 399 1118 basechar 0
AnchorPoint: "Anclaje-33" 402 0 basechar 0
LayerCount: 2
Fore
SplineSet
237 1041 m 0
 269 1072 269 1072 314 1072 c 0
 337 1072 337 1072 359 1064 c 0
 381 1056 381 1056 410 1041 c 0
 433 1028 433 1028 449.5 1021.5 c 0
 466 1015 466 1015 482 1015 c 0
 503 1015 503 1015 516.5 1027.5 c 0
 530 1040 530 1040 538 1066 c 1
 598 1048 l 1
 593 1001 593 1001 561 970 c 0
 529 939 529 939 484 939 c 0
 461 939 461 939 439 947 c 0
 417 955 417 955 388 970 c 0
 364 983 364 983 347.5 989.5 c 0
 331 996 331 996 315 996 c 0
 295 996 295 996 281 983.5 c 0
 267 971 267 971 260 945 c 1
 200 963 l 1
 205 1010 205 1010 237 1041 c 0
370 896 m 1
 428 896 l 1
 471 868 471 868 511.5 845 c 0
 552 822 552 822 598 799 c 1
 572 742 l 1
 522 759 522 759 482 775.5 c 0
 442 792 442 792 392 815 c 1
 334 783 334 783 224 738 c 1
 200 789 l 1
 271 826 271 826 370 896 c 1
EndSplineSet
Refer: 94 79 N 1 0 0 1 0 0 0
Substitution2: "'c2sc' May+APoA-sculas a min+APoA-sculas b+APoA-squeda 35 subtabla" uni1ED7.smcp
AlternateSubs2: "'aalt' Activar todas las variantes b+APoA-squeda 0 subtabla" uni1ED7.smcp
Position2: "'cpsp' Espaciado de may+APoA-sculas b+APoA-squeda 55 subtabla" dx=40 dy=0 dh=40 dv=0
EndChar

StartChar: Odieresis
Encoding: 214 214 103
Width: 801
GlyphClass: 1
Flags: W
AnchorPoint: "Anclaje-42" 503 0 basechar 0
AnchorPoint: "Anclaje-38" 401 354 basechar 0
AnchorPoint: "Anclaje-34" 399 928 basechar 0
AnchorPoint: "Anclaje-33" 402 0 basechar 0
LayerCount: 2
Fore
SplineSet
454.5 781.5 m 0
 435 801 435 801 435 831 c 0
 435 860 435 860 454.5 879.5 c 0
 474 899 474 899 505 899 c 256
 536 899 536 899 555.5 879.5 c 0
 575 860 575 860 575 831 c 0
 575 801 575 801 555.5 781.5 c 0
 536 762 536 762 505 762 c 256
 474 762 474 762 454.5 781.5 c 0
242.5 781.5 m 0
 223 801 223 801 223 831 c 0
 223 860 223 860 242.5 879.5 c 0
 262 899 262 899 293 899 c 256
 324 899 324 899 343.5 879.5 c 0
 363 860 363 860 363 831 c 0
 363 801 363 801 343.5 781.5 c 0
 324 762 324 762 293 762 c 256
 262 762 262 762 242.5 781.5 c 0
EndSplineSet
Refer: 94 79 N 1 0 0 1 0 0 0
Substitution2: "'c2sc' May+APoA-sculas a min+APoA-sculas b+APoA-squeda 35 subtabla" odieresis.smcp
AlternateSubs2: "'aalt' Activar todas las variantes b+APoA-squeda 0 subtabla" odieresis.smcp
Position2: "'cpsp' Espaciado de may+APoA-sculas b+APoA-squeda 55 subtabla" dx=40 dy=0 dh=40 dv=0
EndChar

StartChar: Ograve
Encoding: 210 210 105
Width: 801
GlyphClass: 1
Flags: W
AnchorPoint: "Anclaje-42" 503 0 basechar 0
AnchorPoint: "Anclaje-38" 401 354 basechar 0
AnchorPoint: "Anclaje-34" 399 928 basechar 0
AnchorPoint: "Anclaje-33" 402 0 basechar 0
LayerCount: 2
Fore
SplineSet
385 792 m 0
 352 804 352 804 325 813 c 0
 307 820 307 820 291 826 c 0
 275 832 275 832 267 837 c 0
 239 855 239 855 230 879.5 c 0
 221 904 221 904 234 925 c 0
 248 947 248 947 274 950 c 0
 300 953 300 953 328 936 c 0
 337 931 337 931 350 918.5 c 0
 363 906 363 906 378 892 c 0
 398 871 398 871 421.5 849 c 0
 445 827 445 827 475 803 c 1
 452 764 l 1
 418 780 418 780 385 792 c 0
EndSplineSet
Refer: 94 79 N 1 0 0 1 0 0 0
Substitution2: "'c2sc' May+APoA-sculas a min+APoA-sculas b+APoA-squeda 35 subtabla" ograve.smcp
AlternateSubs2: "'aalt' Activar todas las variantes b+APoA-squeda 0 subtabla" ograve.smcp
Position2: "'cpsp' Espaciado de may+APoA-sculas b+APoA-squeda 55 subtabla" dx=40 dy=0 dh=40 dv=0
EndChar

StartChar: uni1ECE
Encoding: 7886 7886 106
Width: 801
GlyphClass: 1
Flags: W
AnchorPoint: "Anclaje-42" 503 0 basechar 0
AnchorPoint: "Anclaje-38" 401 354 basechar 0
AnchorPoint: "Anclaje-34" 399 708 basechar 0
AnchorPoint: "Anclaje-33" 402 0 basechar 0
LayerCount: 2
Fore
SplineSet
428 829 m 0
 443 847 443 847 443 876 c 0
 443 899 443 899 431 912 c 0
 419 925 419 925 397 925 c 0
 383 925 383 925 374 919.5 c 0
 365 914 365 914 365 905 c 0
 365 901 365 901 366 896.5 c 0
 367 892 367 892 369 888 c 0
 371 883 371 883 372.5 877 c 0
 374 871 374 871 374 866 c 0
 374 852 374 852 363 843 c 0
 352 834 352 834 334 834 c 0
 312 834 312 834 298.5 848.5 c 0
 285 863 285 863 285 887 c 0
 285 925 285 925 317.5 948.5 c 0
 350 972 350 972 403 972 c 256
 456 972 456 972 489 946 c 0
 522 920 522 920 522 878 c 256
 522 836 522 836 489 804 c 0
 456 772 456 772 395 754 c 1
 376 796 l 1
 413 811 413 811 428 829 c 0
EndSplineSet
Refer: 94 79 N 1 0 0 1 0 0 0
Substitution2: "'c2sc' May+APoA-sculas a min+APoA-sculas b+APoA-squeda 35 subtabla" uni1ECF.smcp
AlternateSubs2: "'aalt' Activar todas las variantes b+APoA-squeda 0 subtabla" uni1ECF.smcp
Position2: "'cpsp' Espaciado de may+APoA-sculas b+APoA-squeda 55 subtabla" dx=40 dy=0 dh=40 dv=0
EndChar

StartChar: uni1EDA
Encoding: 7898 7898 107
Width: 801
GlyphClass: 1
Flags: W
AnchorPoint: "Anclaje-42" 503 0 basechar 0
AnchorPoint: "Anclaje-38" 401 354 basechar 0
AnchorPoint: "Anclaje-34" 399 928 basechar 0
AnchorPoint: "Anclaje-33" 402 0 basechar 0
LayerCount: 2
Fore
SplineSet
233.5 29 m 0
 162 72 162 72 122.5 153.5 c 0
 83 235 83 235 83 348 c 0
 83 458 83 458 123.5 543 c 0
 164 628 164 628 236.5 675 c 0
 309 722 309 722 401 722 c 0
 496 722 496 722 567.5 679 c 0
 639 636 639 636 678.5 554.5 c 0
 718 473 718 473 718 360 c 0
 718 250 718 250 677.5 165 c 0
 637 80 637 80 564.5 33 c 0
 492 -14 492 -14 400 -14 c 0
 305 -14 305 -14 233.5 29 c 0
516.5 92 m 0
 565 130 565 130 591.5 199 c 0
 618 268 618 268 618 356 c 0
 618 445 618 445 588.5 512.5 c 0
 559 580 559 580 509 617 c 0
 459 654 459 654 397 654 c 0
 333 654 333 654 284.5 616 c 0
 236 578 236 578 209.5 509 c 0
 183 440 183 440 183 352 c 0
 183 263 183 263 212.5 195.5 c 0
 242 128 242 128 292 91 c 0
 342 54 342 54 404 54 c 0
 468 54 468 54 516.5 92 c 0
583 637 m 0
 568 639 568 639 561 641 c 1
 509 704 l 1
 524 702 524 702 539.5 700.5 c 0
 555 699 555 699 571 699 c 0
 615 699 615 699 642 711.5 c 0
 669 724 669 724 669 741 c 0
 669 747 669 747 665.5 754.5 c 0
 662 762 662 762 657 769 c 0
 649 783 649 783 645 792 c 0
 641 801 641 801 641 813 c 0
 641 836 641 836 656 850 c 0
 671 864 671 864 695 864 c 0
 727 864 727 864 746.5 838.5 c 0
 766 813 766 813 766 773 c 0
 766 734 766 734 745.5 702.5 c 0
 725 671 725 671 689 653 c 0
 653 635 653 635 608 635 c 0
 598 635 598 635 583 637 c 0
413 792 m 0
 446 804 446 804 473 813 c 0
 491 820 491 820 507 826 c 0
 523 832 523 832 531 837 c 0
 559 855 559 855 568 879.5 c 0
 577 904 577 904 564 925 c 0
 550 947 550 947 524 950 c 0
 498 953 498 953 470 936 c 0
 461 931 461 931 448 918.5 c 0
 435 906 435 906 420 892 c 0
 400 871 400 871 376.5 849 c 0
 353 827 353 827 323 803 c 1
 346 764 l 1
 380 780 380 780 413 792 c 0
EndSplineSet
Substitution2: "'c2sc' May+APoA-sculas a min+APoA-sculas b+APoA-squeda 35 subtabla" uni1EDB.smcp
AlternateSubs2: "'aalt' Activar todas las variantes b+APoA-squeda 0 subtabla" uni1EDB.smcp
Position2: "'cpsp' Espaciado de may+APoA-sculas b+APoA-squeda 55 subtabla" dx=40 dy=0 dh=40 dv=0
EndChar

StartChar: uni1EE2
Encoding: 7906 7906 108
Width: 801
GlyphClass: 1
Flags: W
AnchorPoint: "Anclaje-42" 503 0 basechar 0
AnchorPoint: "Anclaje-38" 401 354 basechar 0
AnchorPoint: "Anclaje-34" 399 708 basechar 0
AnchorPoint: "Anclaje-33" 402 -204 basechar 0
LayerCount: 2
Fore
SplineSet
233.5 29 m 0
 162 72 162 72 122.5 153.5 c 0
 83 235 83 235 83 348 c 0
 83 458 83 458 123.5 543 c 0
 164 628 164 628 236.5 675 c 0
 309 722 309 722 401 722 c 0
 496 722 496 722 567.5 679 c 0
 639 636 639 636 678.5 554.5 c 0
 718 473 718 473 718 360 c 0
 718 250 718 250 677.5 165 c 0
 637 80 637 80 564.5 33 c 0
 492 -14 492 -14 400 -14 c 0
 305 -14 305 -14 233.5 29 c 0
516.5 92 m 0
 565 130 565 130 591.5 199 c 0
 618 268 618 268 618 356 c 0
 618 445 618 445 588.5 512.5 c 0
 559 580 559 580 509 617 c 0
 459 654 459 654 397 654 c 0
 333 654 333 654 284.5 616 c 0
 236 578 236 578 209.5 509 c 0
 183 440 183 440 183 352 c 0
 183 263 183 263 212.5 195.5 c 0
 242 128 242 128 292 91 c 0
 342 54 342 54 404 54 c 0
 468 54 468 54 516.5 92 c 0
583 637 m 0
 568 639 568 639 561 641 c 1
 509 704 l 1
 524 702 524 702 539.5 700.5 c 0
 555 699 555 699 571 699 c 0
 615 699 615 699 642 711.5 c 0
 669 724 669 724 669 741 c 0
 669 747 669 747 665.5 754.5 c 0
 662 762 662 762 657 769 c 0
 649 783 649 783 645 792 c 0
 641 801 641 801 641 813 c 0
 641 836 641 836 656 850 c 0
 671 864 671 864 695 864 c 0
 727 864 727 864 746.5 838.5 c 0
 766 813 766 813 766 773 c 0
 766 734 766 734 745.5 702.5 c 0
 725 671 725 671 689 653 c 0
 653 635 653 635 608 635 c 0
 598 635 598 635 583 637 c 0
EndSplineSet
Refer: 535 803 N 1 0 0 1 255 0 0
Substitution2: "'c2sc' May+APoA-sculas a min+APoA-sculas b+APoA-squeda 35 subtabla" uni1EE3.smcp
AlternateSubs2: "'aalt' Activar todas las variantes b+APoA-squeda 0 subtabla" uni1EE3.smcp
Position2: "'cpsp' Espaciado de may+APoA-sculas b+APoA-squeda 55 subtabla" dx=40 dy=0 dh=40 dv=0
EndChar

StartChar: uni1EDC
Encoding: 7900 7900 109
Width: 801
GlyphClass: 1
Flags: W
AnchorPoint: "Anclaje-42" 503 0 basechar 0
AnchorPoint: "Anclaje-38" 401 354 basechar 0
AnchorPoint: "Anclaje-34" 399 928 basechar 0
AnchorPoint: "Anclaje-33" 402 0 basechar 0
LayerCount: 2
Fore
SplineSet
233.5 29 m 0
 162 72 162 72 122.5 153.5 c 0
 83 235 83 235 83 348 c 0
 83 458 83 458 123.5 543 c 0
 164 628 164 628 236.5 675 c 0
 309 722 309 722 401 722 c 0
 496 722 496 722 567.5 679 c 0
 639 636 639 636 678.5 554.5 c 0
 718 473 718 473 718 360 c 0
 718 250 718 250 677.5 165 c 0
 637 80 637 80 564.5 33 c 0
 492 -14 492 -14 400 -14 c 0
 305 -14 305 -14 233.5 29 c 0
516.5 92 m 0
 565 130 565 130 591.5 199 c 0
 618 268 618 268 618 356 c 0
 618 445 618 445 588.5 512.5 c 0
 559 580 559 580 509 617 c 0
 459 654 459 654 397 654 c 0
 333 654 333 654 284.5 616 c 0
 236 578 236 578 209.5 509 c 0
 183 440 183 440 183 352 c 0
 183 263 183 263 212.5 195.5 c 0
 242 128 242 128 292 91 c 0
 342 54 342 54 404 54 c 0
 468 54 468 54 516.5 92 c 0
583 637 m 0
 568 639 568 639 561 641 c 1
 509 704 l 1
 524 702 524 702 539.5 700.5 c 0
 555 699 555 699 571 699 c 0
 615 699 615 699 642 711.5 c 0
 669 724 669 724 669 741 c 0
 669 747 669 747 665.5 754.5 c 0
 662 762 662 762 657 769 c 0
 649 783 649 783 645 792 c 0
 641 801 641 801 641 813 c 0
 641 836 641 836 656 850 c 0
 671 864 671 864 695 864 c 0
 727 864 727 864 746.5 838.5 c 0
 766 813 766 813 766 773 c 0
 766 734 766 734 745.5 702.5 c 0
 725 671 725 671 689 653 c 0
 653 635 653 635 608 635 c 0
 598 635 598 635 583 637 c 0
385 792 m 0
 352 804 352 804 325 813 c 0
 307 820 307 820 291 826 c 0
 275 832 275 832 267 837 c 0
 239 855 239 855 230 879.5 c 0
 221 904 221 904 234 925 c 0
 248 947 248 947 274 950 c 0
 300 953 300 953 328 936 c 0
 337 931 337 931 350 918.5 c 0
 363 906 363 906 378 892 c 0
 398 871 398 871 421.5 849 c 0
 445 827 445 827 475 803 c 1
 452 764 l 1
 418 780 418 780 385 792 c 0
EndSplineSet
Substitution2: "'c2sc' May+APoA-sculas a min+APoA-sculas b+APoA-squeda 35 subtabla" uni1EDD.smcp
AlternateSubs2: "'aalt' Activar todas las variantes b+APoA-squeda 0 subtabla" uni1EDD.smcp
Position2: "'cpsp' Espaciado de may+APoA-sculas b+APoA-squeda 55 subtabla" dx=40 dy=0 dh=40 dv=0
EndChar

StartChar: uni1EDE
Encoding: 7902 7902 110
Width: 801
GlyphClass: 1
Flags: W
AnchorPoint: "Anclaje-42" 503 0 basechar 0
AnchorPoint: "Anclaje-38" 401 354 basechar 0
AnchorPoint: "Anclaje-34" 399 708 basechar 0
AnchorPoint: "Anclaje-33" 402 0 basechar 0
LayerCount: 2
Fore
SplineSet
233.5 29 m 0
 162 72 162 72 122.5 153.5 c 0
 83 235 83 235 83 348 c 0
 83 458 83 458 123.5 543 c 0
 164 628 164 628 236.5 675 c 0
 309 722 309 722 401 722 c 0
 496 722 496 722 567.5 679 c 0
 639 636 639 636 678.5 554.5 c 0
 718 473 718 473 718 360 c 0
 718 250 718 250 677.5 165 c 0
 637 80 637 80 564.5 33 c 0
 492 -14 492 -14 400 -14 c 0
 305 -14 305 -14 233.5 29 c 0
516.5 92 m 0
 565 130 565 130 591.5 199 c 0
 618 268 618 268 618 356 c 0
 618 445 618 445 588.5 512.5 c 0
 559 580 559 580 509 617 c 0
 459 654 459 654 397 654 c 0
 333 654 333 654 284.5 616 c 0
 236 578 236 578 209.5 509 c 0
 183 440 183 440 183 352 c 0
 183 263 183 263 212.5 195.5 c 0
 242 128 242 128 292 91 c 0
 342 54 342 54 404 54 c 0
 468 54 468 54 516.5 92 c 0
583 637 m 0
 568 639 568 639 561 641 c 1
 509 704 l 1
 524 702 524 702 539.5 700.5 c 0
 555 699 555 699 571 699 c 0
 615 699 615 699 642 711.5 c 0
 669 724 669 724 669 741 c 0
 669 747 669 747 665.5 754.5 c 0
 662 762 662 762 657 769 c 0
 649 783 649 783 645 792 c 0
 641 801 641 801 641 813 c 0
 641 836 641 836 656 850 c 0
 671 864 671 864 695 864 c 0
 727 864 727 864 746.5 838.5 c 0
 766 813 766 813 766 773 c 0
 766 734 766 734 745.5 702.5 c 0
 725 671 725 671 689 653 c 0
 653 635 653 635 608 635 c 0
 598 635 598 635 583 637 c 0
428 829 m 0
 443 847 443 847 443 876 c 0
 443 899 443 899 431 912 c 0
 419 925 419 925 397 925 c 0
 383 925 383 925 374 919.5 c 0
 365 914 365 914 365 905 c 0
 365 901 365 901 366 896.5 c 0
 367 892 367 892 369 888 c 0
 371 883 371 883 372.5 877 c 0
 374 871 374 871 374 866 c 0
 374 852 374 852 363 843 c 0
 352 834 352 834 334 834 c 0
 312 834 312 834 298.5 848.5 c 0
 285 863 285 863 285 887 c 0
 285 925 285 925 317.5 948.5 c 0
 350 972 350 972 403 972 c 256
 456 972 456 972 489 946 c 0
 522 920 522 920 522 878 c 256
 522 836 522 836 489 804 c 0
 456 772 456 772 395 754 c 1
 376 796 l 1
 413 811 413 811 428 829 c 0
EndSplineSet
Substitution2: "'c2sc' May+APoA-sculas a min+APoA-sculas b+APoA-squeda 35 subtabla" uni1EDF.smcp
AlternateSubs2: "'aalt' Activar todas las variantes b+APoA-squeda 0 subtabla" uni1EDF.smcp
Position2: "'cpsp' Espaciado de may+APoA-sculas b+APoA-squeda 55 subtabla" dx=40 dy=0 dh=40 dv=0
EndChar

StartChar: uni1EE0
Encoding: 7904 7904 111
Width: 801
GlyphClass: 1
Flags: W
AnchorPoint: "Anclaje-42" 503 0 basechar 0
AnchorPoint: "Anclaje-38" 401 354 basechar 0
AnchorPoint: "Anclaje-34" 399 928 basechar 0
AnchorPoint: "Anclaje-33" 402 0 basechar 0
LayerCount: 2
Fore
SplineSet
233.5 29 m 0
 162 72 162 72 122.5 153.5 c 0
 83 235 83 235 83 348 c 0
 83 458 83 458 123.5 543 c 0
 164 628 164 628 236.5 675 c 0
 309 722 309 722 401 722 c 0
 496 722 496 722 567.5 679 c 0
 639 636 639 636 678.5 554.5 c 0
 718 473 718 473 718 360 c 0
 718 250 718 250 677.5 165 c 0
 637 80 637 80 564.5 33 c 0
 492 -14 492 -14 400 -14 c 0
 305 -14 305 -14 233.5 29 c 0
516.5 92 m 0
 565 130 565 130 591.5 199 c 0
 618 268 618 268 618 356 c 0
 618 445 618 445 588.5 512.5 c 0
 559 580 559 580 509 617 c 0
 459 654 459 654 397 654 c 0
 333 654 333 654 284.5 616 c 0
 236 578 236 578 209.5 509 c 0
 183 440 183 440 183 352 c 0
 183 263 183 263 212.5 195.5 c 0
 242 128 242 128 292 91 c 0
 342 54 342 54 404 54 c 0
 468 54 468 54 516.5 92 c 0
583 637 m 0
 568 639 568 639 561 641 c 1
 509 704 l 1
 524 702 524 702 539.5 700.5 c 0
 555 699 555 699 571 699 c 0
 615 699 615 699 642 711.5 c 0
 669 724 669 724 669 741 c 0
 669 747 669 747 665.5 754.5 c 0
 662 762 662 762 657 769 c 0
 649 783 649 783 645 792 c 0
 641 801 641 801 641 813 c 0
 641 836 641 836 656 850 c 0
 671 864 671 864 695 864 c 0
 727 864 727 864 746.5 838.5 c 0
 766 813 766 813 766 773 c 0
 766 734 766 734 745.5 702.5 c 0
 725 671 725 671 689 653 c 0
 653 635 653 635 608 635 c 0
 598 635 598 635 583 637 c 0
237 851 m 0
 269 882 269 882 314 882 c 0
 337 882 337 882 359 874 c 0
 381 866 381 866 410 851 c 0
 433 838 433 838 449.5 831.5 c 0
 466 825 466 825 482 825 c 0
 503 825 503 825 516.5 837.5 c 0
 530 850 530 850 538 876 c 1
 598 858 l 1
 593 811 593 811 561 780 c 0
 529 749 529 749 484 749 c 0
 461 749 461 749 439 757 c 0
 417 765 417 765 388 780 c 0
 364 793 364 793 347.5 799.5 c 0
 331 806 331 806 315 806 c 0
 295 806 295 806 281 793.5 c 0
 267 781 267 781 260 755 c 1
 200 773 l 1
 205 820 205 820 237 851 c 0
EndSplineSet
Substitution2: "'c2sc' May+APoA-sculas a min+APoA-sculas b+APoA-squeda 35 subtabla" uni1EE1.smcp
AlternateSubs2: "'aalt' Activar todas las variantes b+APoA-squeda 0 subtabla" uni1EE1.smcp
Position2: "'cpsp' Espaciado de may+APoA-sculas b+APoA-squeda 55 subtabla" dx=40 dy=0 dh=40 dv=0
EndChar

StartChar: Ohungarumlaut
Encoding: 336 336 112
Width: 801
GlyphClass: 1
Flags: W
AnchorPoint: "Anclaje-42" 503 0 basechar 0
AnchorPoint: "Anclaje-38" 401 354 basechar 0
AnchorPoint: "Anclaje-34" 400 928 basechar 0
AnchorPoint: "Anclaje-33" 402 0 basechar 0
LayerCount: 2
Fore
SplineSet
484.5 849 m 0
 508 871 508 871 528 892 c 0
 543 906 543 906 556 918.5 c 0
 569 931 569 931 578 936 c 0
 605 953 605 953 632.5 949 c 0
 660 945 660 945 672 925 c 0
 686 904 686 904 676.5 878.5 c 0
 667 853 667 853 639 837 c 0
 628 830 628 830 611 823.5 c 0
 594 817 594 817 575 811 c 0
 550 802 550 802 518 790.5 c 0
 486 779 486 779 454 764 c 1
 431 803 l 1
 461 827 461 827 484.5 849 c 0
264.5 849 m 0
 288 871 288 871 308 892 c 0
 323 906 323 906 336 918.5 c 0
 349 931 349 931 358 936 c 0
 385 953 385 953 412.5 949 c 0
 440 945 440 945 452 925 c 0
 465 904 465 904 455.5 879 c 0
 446 854 446 854 419 837 c 0
 409 831 409 831 393 824.5 c 0
 377 818 377 818 357 812 c 0
 332 803 332 803 299.5 791 c 0
 267 779 267 779 234 764 c 1
 211 803 l 1
 241 827 241 827 264.5 849 c 0
EndSplineSet
Refer: 94 79 N 1 0 0 1 0 0 0
Substitution2: "'c2sc' May+APoA-sculas a min+APoA-sculas b+APoA-squeda 35 subtabla" ohungarumlaut.smcp
AlternateSubs2: "'aalt' Activar todas las variantes b+APoA-squeda 0 subtabla" ohungarumlaut.smcp
Position2: "'cpsp' Espaciado de may+APoA-sculas b+APoA-squeda 55 subtabla" dx=40 dy=0 dh=40 dv=0
EndChar

StartChar: Omacron
Encoding: 332 332 113
Width: 801
GlyphClass: 1
Flags: W
AnchorPoint: "Anclaje-42" 503 0 basechar 0
AnchorPoint: "Anclaje-38" 401 354 basechar 0
AnchorPoint: "Anclaje-34" 400 928 basechar 0
AnchorPoint: "Anclaje-33" 402 0 basechar 0
LayerCount: 2
Fore
SplineSet
223 869 m 1
 575 869 l 1
 575 794 l 1
 223 794 l 1
 223 869 l 1
EndSplineSet
Refer: 94 79 N 1 0 0 1 0 0 0
Substitution2: "'c2sc' May+APoA-sculas a min+APoA-sculas b+APoA-squeda 35 subtabla" omacron.smcp
AlternateSubs2: "'aalt' Activar todas las variantes b+APoA-squeda 0 subtabla" omacron.smcp
Position2: "'cpsp' Espaciado de may+APoA-sculas b+APoA-squeda 55 subtabla" dx=40 dy=0 dh=40 dv=0
EndChar

StartChar: Otilde
Encoding: 213 213 115
Width: 801
GlyphClass: 1
Flags: W
AnchorPoint: "Anclaje-42" 503 0 basechar 0
AnchorPoint: "Anclaje-38" 401 354 basechar 0
AnchorPoint: "Anclaje-34" 399 928 basechar 0
AnchorPoint: "Anclaje-33" 402 0 basechar 0
LayerCount: 2
Fore
SplineSet
437.5 780.5 m 0
 414 789 414 789 386 804 c 0
 361 817 361 817 344.5 823 c 0
 328 829 328 829 312 829 c 0
 292 829 292 829 278 816.5 c 0
 264 804 264 804 257 778 c 1
 197 796 l 1
 202 843 202 843 234 874 c 0
 266 905 266 905 311 905 c 0
 335 905 335 905 358.5 896.5 c 0
 382 888 382 888 409 873 c 0
 435 860 435 860 451 854 c 0
 467 848 467 848 483 848 c 0
 504 848 504 848 517.5 860.5 c 0
 531 873 531 873 539 899 c 1
 599 881 l 1
 594 834 594 834 562 803 c 0
 530 772 530 772 485 772 c 0
 461 772 461 772 437.5 780.5 c 0
EndSplineSet
Refer: 94 79 N 1 0 0 1 0 0 0
Substitution2: "'c2sc' May+APoA-sculas a min+APoA-sculas b+APoA-squeda 35 subtabla" otilde.smcp
AlternateSubs2: "'aalt' Activar todas las variantes b+APoA-squeda 0 subtabla" otilde.smcp
Position2: "'cpsp' Espaciado de may+APoA-sculas b+APoA-squeda 55 subtabla" dx=40 dy=0 dh=40 dv=0
EndChar

StartChar: OE
Encoding: 338 338 116
Width: 1018
GlyphClass: 1
Flags: W
AnchorPoint: "Anclaje-34" 494 708 basechar 0
AnchorPoint: "Anclaje-33" 503 0 basechar 0
LayerCount: 2
Fore
SplineSet
232.5 30 m 128,-1,1
 161 74 161 74 122 155 c 128,-1,2
 83 236 83 236 83 345 c 0,3,4
 83 457 83 457 123 542.5 c 128,-1,5
 163 628 163 628 236 675 c 128,-1,6
 309 722 309 722 404 722 c 0,7,8
 436 722 436 722 474 715 c 0,9,10
 493 712 493 712 516.5 709 c 128,-1,11
 540 706 540 706 568 706 c 2,12,-1
 772 705 l 2,13,14
 798 705 798 705 861 708 c 0,15,16
 866 708 866 708 870 708 c 0,17,18
 871 604 871 604 886 508 c 1,19,-1
 813 508 l 1,20,21
 807 554 807 554 793.5 581.5 c 128,-1,22
 780 609 780 609 757 622 c 128,-1,23
 734 635 734 635 699 635 c 2,24,-1
 615 635 l 1,25,-1
 615 156 l 2,26,27
 615 119 615 119 621 102 c 128,-1,28
 627 85 627 85 643.5 79 c 128,-1,29
 660 73 660 73 696 73 c 2,30,-1
 699 73 l 2,31,32
 748 73 748 73 775 87 c 128,-1,33
 802 101 802 101 819 137.5 c 128,-1,34
 836 174 836 174 853 250 c 1,35,-1
 926 250 l 1,36,37
 912 146 912 146 910 0 c 1,38,39
 845 3 845 3 691 3 c 0,40,41
 659 3 659 3 627 3 c 2,42,-1
 572 3 l 2,43,44
 548 3 548 3 526.5 0.5 c 128,-1,45
 505 -2 505 -2 486 -6 c 0,46,47
 434 -14 434 -14 401 -14 c 0,48,0
 304 -14 304 -14 232.5 30 c 128,-1,1
488 82 m 128,-1,50
 522 110 522 110 522 156 c 2,51,-1
 522 552 l 2,52,53
 522 599 522 599 489.5 626.5 c 128,-1,54
 457 654 457 654 400 654 c 0,55,56
 336 654 336 654 286.5 617 c 128,-1,57
 237 580 237 580 210 512.5 c 128,-1,58
 183 445 183 445 183 357 c 0,59,60
 183 270 183 270 210.5 201 c 128,-1,61
 238 132 238 132 287.5 93 c 128,-1,62
 337 54 337 54 399 54 c 0,63,49
 454 54 454 54 488 82 c 128,-1,50
585 391 m 1,64,-1
 708 391 l 1,65,-1
 708 321 l 1,66,-1
 585 321 l 1,67,-1
 585 391 l 1,64,-1
701 278 m 128,-1,69
 693 301 693 301 677.5 311 c 128,-1,70
 662 321 662 321 636 321 c 1,71,-1
 636 391 l 1,72,73
 660 391 660 391 675 401.5 c 128,-1,74
 690 412 690 412 698 435 c 128,-1,75
 706 458 706 458 709 498 c 1,76,-1
 772 498 l 1,77,78
 769 456 769 456 768.5 427.5 c 128,-1,79
 768 399 768 399 769 377 c 2,80,-1
 769 356 l 2,81,82
 769 288 769 288 775 214 c 1,83,-1
 712 214 l 1,84,68
 709 255 709 255 701 278 c 128,-1,69
EndSplineSet
Substitution2: "'c2sc' May+APoA-sculas a min+APoA-sculas b+APoA-squeda 35 subtabla" oe.smcp
AlternateSubs2: "'aalt' Activar todas las variantes b+APoA-squeda 0 subtabla" oe.smcp
Position2: "'cpsp' Espaciado de may+APoA-sculas b+APoA-squeda 55 subtabla" dx=40 dy=0 dh=40 dv=0
EndChar

StartChar: P
Encoding: 80 80 117
Width: 701
GlyphClass: 1
Flags: W
AnchorPoint: "Anclaje-38" 399 489 basechar 0
AnchorPoint: "Anclaje-34" 399 708 basechar 0
AnchorPoint: "Anclaje-33" 260 0 basechar 0
LayerCount: 2
Fore
SplineSet
164.5 78.5 m 128,-1,1
 193 85 193 85 203 102 c 128,-1,2
 213 119 213 119 213 156 c 2,3,-1
 213 552 l 2,4,5
 213 589 213 589 203 606 c 128,-1,6
 193 623 193 623 164.5 629.5 c 128,-1,7
 136 636 136 636 72 638 c 1,8,-1
 72 708 l 1,9,10
 123 705 123 705 251 705 c 0,11,12
 308 706 308 706 364 706 c 0,13,14
 385 707 385 707 405 707 c 0,15,16
 519 707 519 707 582.5 649.5 c 128,-1,17
 646 592 646 592 646 488 c 0,18,19
 646 417 646 417 614.5 366 c 128,-1,20
 583 315 583 315 524 288 c 128,-1,21
 465 261 465 261 383 261 c 0,22,23
 353 261 353 261 329.5 264 c 128,-1,24
 306 267 306 267 287 274 c 1,25,-1
 287 344 l 1,26,27
 291 343 291 343 295 341 c 0,28,29
 313 336 313 336 331.5 333.5 c 128,-1,30
 350 331 350 331 373 331 c 0,31,32
 457 331 457 331 501.5 371 c 128,-1,33
 546 411 546 411 546 486 c 0,34,35
 546 562 546 562 506 600 c 128,-1,36
 466 638 466 638 387 638 c 2,37,-1
 306 638 l 1,38,-1
 306 156 l 2,39,40
 306 119 306 119 317.5 102 c 128,-1,41
 329 85 329 85 361.5 78.5 c 128,-1,42
 394 72 394 72 467 70 c 1,43,-1
 467 0 l 1,44,-1
 417 2 l 2,45,46
 379 3 379 3 262 3 c 0,47,48
 129 3 129 3 72 0 c 1,49,-1
 72 70 l 1,50,0
 136 72 136 72 164.5 78.5 c 128,-1,1
EndSplineSet
Substitution2: "'c2sc' May+APoA-sculas a min+APoA-sculas b+APoA-squeda 35 subtabla" p.smcp
AlternateSubs2: "'aalt' Activar todas las variantes b+APoA-squeda 0 subtabla" p.smcp
Position2: "'cpsp' Espaciado de may+APoA-sculas b+APoA-squeda 55 subtabla" dx=40 dy=0 dh=40 dv=0
EndChar

StartChar: Thorn
Encoding: 222 222 118
Width: 711
GlyphClass: 1
Flags: W
AnchorPoint: "Anclaje-34" 260 708 basechar 0
AnchorPoint: "Anclaje-33" 260 0 basechar 0
LayerCount: 2
Fore
SplineSet
164.5 78.5 m 128,-1,1
 193 85 193 85 203 102 c 128,-1,2
 213 119 213 119 213 156 c 2,3,-1
 213 552 l 2,4,5
 213 589 213 589 203 606 c 128,-1,6
 193 623 193 623 164.5 629.5 c 128,-1,7
 136 636 136 636 72 638 c 1,8,-1
 72 708 l 1,9,10
 129 705 129 705 262 705 c 0,11,12
 379 705 379 705 417 706 c 2,13,-1
 467 708 l 1,14,-1
 467 638 l 1,15,16
 394 636 394 636 361.5 629.5 c 128,-1,17
 329 623 329 623 317.5 606 c 128,-1,18
 306 589 306 589 306 552 c 2,19,-1
 306 156 l 2,20,21
 306 119 306 119 317.5 102 c 128,-1,22
 329 85 329 85 361.5 78.5 c 128,-1,23
 394 72 394 72 467 70 c 1,24,-1
 467 0 l 1,25,-1
 417 2 l 2,26,27
 379 3 379 3 262 3 c 0,28,29
 129 3 129 3 72 0 c 1,30,-1
 72 70 l 1,31,0
 136 72 136 72 164.5 78.5 c 128,-1,1
339 152 m 128,-1,33
 316 154 316 154 297 158 c 1,34,-1
 297 228 l 1,35,36
 305 227 305 227 313 225 c 0,37,38
 328 222 328 222 346 221 c 128,-1,39
 364 220 364 220 383 220 c 0,40,41
 467 220 467 220 511.5 255 c 128,-1,42
 556 290 556 290 556 355 c 256,43,44
 556 420 556 420 511.5 455 c 128,-1,45
 467 490 467 490 383 490 c 0,46,47
 357 490 357 490 336.5 488 c 128,-1,48
 316 486 316 486 297 482 c 1,49,-1
 297 552 l 1,50,51
 316 556 316 556 339 558 c 128,-1,52
 362 560 362 560 393 560 c 0,53,54
 521 560 521 560 588.5 509 c 128,-1,55
 656 458 656 458 656 360 c 0,56,57
 656 258 656 258 588.5 204 c 128,-1,58
 521 150 521 150 393 150 c 0,59,32
 362 150 362 150 339 152 c 128,-1,33
EndSplineSet
Substitution2: "'c2sc' May+APoA-sculas a min+APoA-sculas b+APoA-squeda 35 subtabla" thorn.smcp
AlternateSubs2: "'aalt' Activar todas las variantes b+APoA-squeda 0 subtabla" thorn.smcp
Position2: "'cpsp' Espaciado de may+APoA-sculas b+APoA-squeda 55 subtabla" dx=40 dy=0 dh=40 dv=0
EndChar

StartChar: Q
Encoding: 81 81 119
Width: 801
GlyphClass: 1
Flags: W
AnchorPoint: "Anclaje-42" 503 0 basechar 0
AnchorPoint: "Anclaje-38" 401 354 basechar 0
AnchorPoint: "Anclaje-34" 399 708 basechar 0
AnchorPoint: "Anclaje-33" 402 0 basechar 0
LayerCount: 2
Fore
SplineSet
233.5 29 m 128,-1,1
 162 72 162 72 122.5 153.5 c 128,-1,2
 83 235 83 235 83 348 c 0,3,4
 83 458 83 458 123.5 543 c 128,-1,5
 164 628 164 628 236.5 675 c 128,-1,6
 309 722 309 722 401 722 c 0,7,8
 496 722 496 722 567.5 679 c 128,-1,9
 639 636 639 636 678.5 554.5 c 128,-1,10
 718 473 718 473 718 360 c 0,11,12
 718 250 718 250 677.5 165 c 128,-1,13
 637 80 637 80 564.5 33 c 128,-1,14
 492 -14 492 -14 400 -14 c 0,15,0
 305 -14 305 -14 233.5 29 c 128,-1,1
516.5 92 m 128,-1,17
 565 130 565 130 591.5 199 c 128,-1,18
 618 268 618 268 618 356 c 0,19,20
 618 445 618 445 588.5 512.5 c 128,-1,21
 559 580 559 580 509 617 c 128,-1,22
 459 654 459 654 397 654 c 0,23,24
 333 654 333 654 284.5 616 c 128,-1,25
 236 578 236 578 209.5 509 c 128,-1,26
 183 440 183 440 183 352 c 0,27,28
 183 263 183 263 212.5 195.5 c 128,-1,29
 242 128 242 128 292 91 c 128,-1,30
 342 54 342 54 404 54 c 0,31,16
 468 54 468 54 516.5 92 c 128,-1,17
138.5 -219.5 m 128,-1,33
 119 -200 119 -200 119 -167 c 0,34,35
 119 -135 119 -135 137.5 -111.5 c 128,-1,36
 156 -88 156 -88 190.5 -74 c 128,-1,37
 225 -60 225 -60 272 -59 c 0,38,39
 323 -57 323 -57 369 -70 c 128,-1,40
 415 -83 415 -83 482 -111 c 0,41,42
 546 -137 546 -137 588.5 -149.5 c 128,-1,43
 631 -162 631 -162 677 -162 c 0,44,45
 722 -162 722 -162 755 -137.5 c 128,-1,46
 788 -113 788 -113 816 -58 c 1,47,-1
 872 -89 l 1,48,49
 838 -167 838 -167 788.5 -203 c 128,-1,50
 739 -239 739 -239 666 -239 c 0,51,52
 622 -239 622 -239 581 -229 c 128,-1,53
 540 -219 540 -219 506.5 -204.5 c 128,-1,54
 473 -190 473 -190 429 -168 c 0,55,56
 374 -141 374 -141 340.5 -128.5 c 128,-1,57
 307 -116 307 -116 273 -116 c 0,58,59
 251 -116 251 -116 236 -122 c 128,-1,60
 221 -128 221 -128 221 -137 c 0,61,62
 221 -141 221 -141 224 -145.5 c 128,-1,63
 227 -150 227 -150 231 -155 c 0,64,65
 240 -166 240 -166 244.5 -174.5 c 128,-1,66
 249 -183 249 -183 249 -194 c 0,67,68
 249 -214 249 -214 232.5 -226.5 c 128,-1,69
 216 -239 216 -239 190 -239 c 0,70,32
 158 -239 158 -239 138.5 -219.5 c 128,-1,33
321.5 -41.5 m 128,-1,72
 344 -28 344 -28 375 -5 c 0,73,74
 413 23 413 23 440.5 38.5 c 128,-1,75
 468 54 468 54 506 61 c 1,76,-1
 507 5 l 1,77,78
 483 -4 483 -4 465 -14 c 128,-1,79
 447 -24 447 -24 418 -43 c 0,80,81
 407 -51 407 -51 394 -59 c 128,-1,82
 381 -67 381 -67 367 -75 c 1,83,-1
 272 -62 l 1,84,71
 299 -55 299 -55 321.5 -41.5 c 128,-1,72
EndSplineSet
Substitution2: "'c2sc' May+APoA-sculas a min+APoA-sculas b+APoA-squeda 35 subtabla" q.smcp
AlternateSubs2: "'aalt' Activar todas las variantes b+APoA-squeda 0 subtabla" q.smcp
Position2: "'cpsp' Espaciado de may+APoA-sculas b+APoA-squeda 55 subtabla" dx=40 dy=0 dh=40 dv=0
EndChar

StartChar: R
Encoding: 82 82 120
Width: 748
GlyphClass: 1
Flags: W
AnchorPoint: "Anclaje-34" 386 708 basechar 0
AnchorPoint: "Anclaje-33" 427 0 basechar 0
LayerCount: 2
Fore
SplineSet
164.5 78.5 m 128,-1,1
 193 85 193 85 203 102 c 128,-1,2
 213 119 213 119 213 156 c 2,3,-1
 213 552 l 2,4,5
 213 589 213 589 203 606 c 128,-1,6
 193 623 193 623 164.5 629.5 c 128,-1,7
 136 636 136 636 72 638 c 1,8,-1
 72 708 l 1,9,10
 125 705 125 705 254 705 c 0,11,12
 302 705 302 705 362 707 c 0,13,14
 384 708 384 708 405 708 c 0,15,16
 479 708 479 708 533.5 685.5 c 128,-1,17
 588 663 588 663 617 621 c 128,-1,18
 646 579 646 579 646 521 c 0,19,20
 646 464 646 464 613 419.5 c 128,-1,21
 580 375 580 375 520 350.5 c 128,-1,22
 460 326 460 326 383 326 c 2,23,-1
 267 326 l 1,24,-1
 267 381 l 1,25,-1
 383 381 l 2,26,27
 467 381 467 381 506.5 412.5 c 128,-1,28
 546 444 546 444 546 510 c 0,29,30
 546 575 546 575 505.5 606.5 c 128,-1,31
 465 638 465 638 380 638 c 2,32,-1
 306 638 l 1,33,-1
 306 156 l 2,34,35
 306 119 306 119 316 102 c 128,-1,36
 326 85 326 85 354.5 78.5 c 128,-1,37
 383 72 383 72 447 70 c 1,38,-1
 447 0 l 1,39,40
 398 3 398 3 260 3 c 0,41,42
 128 3 128 3 72 0 c 1,43,-1
 72 70 l 1,44,0
 136 72 136 72 164.5 78.5 c 128,-1,1
593 -2.5 m 128,-1,46
 572 9 572 9 558 32.5 c 128,-1,47
 544 56 544 56 536 94 c 2,48,-1
 514 196 l 2,49,50
 505 237 505 237 489.5 262 c 128,-1,51
 474 287 474 287 450 299 c 128,-1,52
 426 311 426 311 391 311 c 2,53,-1
 263 311 l 1,54,-1
 263 358 l 1,55,-1
 372 358 l 2,56,57
 454 358 454 358 499.5 343 c 128,-1,58
 545 328 545 328 570.5 291 c 128,-1,59
 596 254 596 254 611 182 c 2,60,-1
 623 126 l 2,61,62
 629 99 629 99 640.5 86 c 128,-1,63
 652 73 652 73 669 73 c 0,64,65
 680 73 680 73 689 77.5 c 128,-1,66
 698 82 698 82 711 94 c 1,67,-1
 750 50 l 1,68,69
 731 18 731 18 704 2 c 128,-1,70
 677 -14 677 -14 643 -14 c 0,71,45
 614 -14 614 -14 593 -2.5 c 128,-1,46
EndSplineSet
Substitution2: "'c2sc' May+APoA-sculas a min+APoA-sculas b+APoA-squeda 35 subtabla" r.smcp
AlternateSubs2: "'aalt' Activar todas las variantes b+APoA-squeda 0 subtabla" r.smcp
Position2: "'cpsp' Espaciado de may+APoA-sculas b+APoA-squeda 55 subtabla" dx=40 dy=0 dh=40 dv=0
EndChar

StartChar: Racute
Encoding: 340 340 121
Width: 748
GlyphClass: 1
Flags: W
AnchorPoint: "Anclaje-34" 386 928 basechar 0
AnchorPoint: "Anclaje-33" 427 0 basechar 0
LayerCount: 2
Fore
SplineSet
400 792 m 0
 433 804 433 804 460 813 c 0
 478 820 478 820 494 826 c 0
 510 832 510 832 518 837 c 0
 546 855 546 855 555 879.5 c 0
 564 904 564 904 551 925 c 0
 537 947 537 947 511 950 c 0
 485 953 485 953 457 936 c 0
 448 931 448 931 435 918.5 c 0
 422 906 422 906 407 892 c 0
 387 871 387 871 363.5 849 c 0
 340 827 340 827 310 803 c 1
 333 764 l 1
 367 780 367 780 400 792 c 0
EndSplineSet
Refer: 120 82 N 1 0 0 1 0 0 0
Substitution2: "'c2sc' May+APoA-sculas a min+APoA-sculas b+APoA-squeda 35 subtabla" racute.smcp
AlternateSubs2: "'aalt' Activar todas las variantes b+APoA-squeda 0 subtabla" racute.smcp
Position2: "'cpsp' Espaciado de may+APoA-sculas b+APoA-squeda 55 subtabla" dx=40 dy=0 dh=40 dv=0
EndChar

StartChar: Rcaron
Encoding: 344 344 122
Width: 748
GlyphClass: 1
Flags: W
AnchorPoint: "Anclaje-34" 386 928 basechar 0
AnchorPoint: "Anclaje-33" 427 0 basechar 0
LayerCount: 2
Fore
SplineSet
589 900 m 1
 433 782 l 1
 313 782 l 1
 172 898 l 1
 212 950 l 1
 433 824 l 1
 366 824 l 1
 554 949 l 1
 589 900 l 1
EndSplineSet
Refer: 120 82 N 1 0 0 1 0 0 0
Substitution2: "'c2sc' May+APoA-sculas a min+APoA-sculas b+APoA-squeda 35 subtabla" rcaron.smcp
AlternateSubs2: "'aalt' Activar todas las variantes b+APoA-squeda 0 subtabla" rcaron.smcp
Position2: "'cpsp' Espaciado de may+APoA-sculas b+APoA-squeda 55 subtabla" dx=40 dy=0 dh=40 dv=0
EndChar

StartChar: S
Encoding: 83 83 124
Width: 633
GlyphClass: 1
Flags: W
AnchorPoint: "Anclaje-34" 326 708 basechar 0
AnchorPoint: "Anclaje-33" 342 0 basechar 0
LayerCount: 2
Fore
SplineSet
263 -3 m 128,-1,1
 226 8 226 8 185 25 c 0,2,3
 174 30 174 30 165 33.5 c 128,-1,4
 156 37 156 37 152 37 c 0,5,6
 143 37 143 37 137 26.5 c 128,-1,7
 131 16 131 16 129 -4 c 1,8,-1
 56 -4 l 1,9,10
 58 28 58 28 59 91.5 c 128,-1,11
 60 155 60 155 60 253 c 1,12,-1
 133 253 l 1,13,14
 135 196 135 196 161 151 c 128,-1,15
 187 106 187 106 231 81 c 128,-1,16
 275 56 275 56 330 56 c 0,17,18
 393 56 393 56 430.5 89.5 c 128,-1,19
 468 123 468 123 468 179 c 0,20,21
 468 216 468 216 448.5 243.5 c 128,-1,22
 429 271 429 271 389 290.5 c 128,-1,23
 349 310 349 310 285 323 c 0,24,25
 180 344 180 344 126 396.5 c 128,-1,26
 72 449 72 449 72 530 c 0,27,28
 72 587 72 587 97 630.5 c 128,-1,29
 122 674 122 674 167.5 698 c 128,-1,30
 213 722 213 722 272 722 c 0,31,32
 315 722 315 722 347 711.5 c 128,-1,33
 379 701 379 701 413 684 c 0,34,35
 423 678 423 678 431.5 674.5 c 128,-1,36
 440 671 440 671 446 671 c 0,37,38
 455 671 455 671 461 681 c 128,-1,39
 467 691 467 691 470 712 c 1,40,-1
 543 712 l 1,41,42
 540 681 540 681 539 629 c 128,-1,43
 538 577 538 577 538 491 c 1,44,-1
 465 491 l 1,45,46
 463 537 463 537 439.5 574 c 128,-1,47
 416 611 416 611 377 632 c 128,-1,48
 338 653 338 653 291 653 c 0,49,50
 236 653 236 653 204 623.5 c 128,-1,51
 172 594 172 594 172 543 c 0,52,53
 172 506 172 506 191 478.5 c 128,-1,54
 210 451 210 451 250 432 c 128,-1,55
 290 413 290 413 352 401 c 0,56,57
 423 387 423 387 472.5 357.5 c 128,-1,58
 522 328 522 328 547.5 285 c 128,-1,59
 573 242 573 242 573 187 c 0,60,61
 573 128 573 128 544.5 82.5 c 128,-1,62
 516 37 516 37 465 11.5 c 128,-1,63
 414 -14 414 -14 348 -14 c 0,64,0
 300 -14 300 -14 263 -3 c 128,-1,1
EndSplineSet
Substitution2: "'c2sc' May+APoA-sculas a min+APoA-sculas b+APoA-squeda 35 subtabla" s.smcp
AlternateSubs2: "'aalt' Activar todas las variantes b+APoA-squeda 0 subtabla" s.smcp
Position2: "'cpsp' Espaciado de may+APoA-sculas b+APoA-squeda 55 subtabla" dx=40 dy=0 dh=40 dv=0
EndChar

StartChar: Sacute
Encoding: 346 346 125
Width: 633
GlyphClass: 1
Flags: W
AnchorPoint: "Anclaje-34" 326 928 basechar 0
AnchorPoint: "Anclaje-33" 342 0 basechar 0
LayerCount: 2
Fore
SplineSet
340 792 m 0
 373 804 373 804 400 813 c 0
 418 820 418 820 434 826 c 0
 450 832 450 832 458 837 c 0
 486 855 486 855 495 879.5 c 0
 504 904 504 904 491 925 c 0
 477 947 477 947 451 950 c 0
 425 953 425 953 397 936 c 0
 388 931 388 931 375 918.5 c 0
 362 906 362 906 347 892 c 0
 327 871 327 871 303.5 849 c 0
 280 827 280 827 250 803 c 1
 273 764 l 1
 307 780 307 780 340 792 c 0
EndSplineSet
Refer: 124 83 N 1 0 0 1 0 0 0
Substitution2: "'c2sc' May+APoA-sculas a min+APoA-sculas b+APoA-squeda 35 subtabla" sacute.smcp
Substitution2: "'locl' Formas localizadas en Latin b+APoA-squeda 7 subtabla" Sacute.loclPLK
AlternateSubs2: "'aalt' Activar todas las variantes b+APoA-squeda 0 subtabla" Sacute.loclPLK sacute.smcp
Position2: "'cpsp' Espaciado de may+APoA-sculas b+APoA-squeda 55 subtabla" dx=40 dy=0 dh=40 dv=0
EndChar

StartChar: Scaron
Encoding: 352 352 126
Width: 633
GlyphClass: 1
Flags: W
AnchorPoint: "Anclaje-34" 326 928 basechar 0
AnchorPoint: "Anclaje-33" 342 0 basechar 0
LayerCount: 2
Fore
SplineSet
529 900 m 1
 373 782 l 1
 253 782 l 1
 112 898 l 1
 152 950 l 1
 373 824 l 1
 306 824 l 1
 494 949 l 1
 529 900 l 1
EndSplineSet
Refer: 124 83 N 1 0 0 1 0 0 0
Substitution2: "'c2sc' May+APoA-sculas a min+APoA-sculas b+APoA-squeda 35 subtabla" scaron.smcp
AlternateSubs2: "'aalt' Activar todas las variantes b+APoA-squeda 0 subtabla" scaron.smcp
Position2: "'cpsp' Espaciado de may+APoA-sculas b+APoA-squeda 55 subtabla" dx=40 dy=0 dh=40 dv=0
EndChar

StartChar: Scircumflex
Encoding: 348 348 128
Width: 633
GlyphClass: 1
Flags: W
AnchorPoint: "Anclaje-43" 474 856 basechar 0
AnchorPoint: "Anclaje-34" 326 928 basechar 0
AnchorPoint: "Anclaje-33" 342 0 basechar 0
LayerCount: 2
Fore
SplineSet
110 832 m 1
 266 950 l 1
 386 950 l 1
 527 834 l 1
 487 782 l 1
 266 908 l 1
 333 908 l 1
 145 783 l 1
 110 832 l 1
EndSplineSet
Refer: 124 83 N 1 0 0 1 0 0 0
Substitution2: "'c2sc' May+APoA-sculas a min+APoA-sculas b+APoA-squeda 35 subtabla" scircumflex.smcp
AlternateSubs2: "'aalt' Activar todas las variantes b+APoA-squeda 0 subtabla" scircumflex.smcp
Position2: "'cpsp' Espaciado de may+APoA-sculas b+APoA-squeda 55 subtabla" dx=40 dy=0 dh=40 dv=0
EndChar

StartChar: uni1E9E
Encoding: 7838 7838 129
Width: 750
GlyphClass: 1
Flags: W
AnchorPoint: "Anclaje-34" 444 708 basechar 0
AnchorPoint: "Anclaje-33" 425 0 basechar 0
LayerCount: 2
Fore
SplineSet
164.5 78.5 m 128,-1,1
 193 85 193 85 203 102 c 128,-1,2
 213 119 213 119 213 156 c 2,3,-1
 213 552 l 2,4,5
 213 589 213 589 203 606 c 128,-1,6
 193 623 193 623 164.5 629.5 c 128,-1,7
 136 636 136 636 72 638 c 1,8,-1
 72 708 l 1,9,10
 164 705 164 705 418 705 c 0,11,12
 466 705 466 705 521 706 c 128,-1,13
 576 707 576 707 650 708 c 1,14,-1
 650 638 l 1,15,-1
 482 375 l 1,16,-1
 479 394 l 1,17,18
 582 375 582 375 633.5 325.5 c 128,-1,19
 685 276 685 276 685 195 c 0,20,21
 685 132 685 132 653 88.5 c 128,-1,22
 621 45 621 45 557.5 22.5 c 128,-1,23
 494 0 494 0 402 0 c 0,24,25
 380 0 380 0 369.5 0.5 c 128,-1,26
 359 1 359 1 338 1 c 0,27,28
 290 3 290 3 264 3 c 0,29,30
 193 3 193 3 140.5 2 c 128,-1,31
 88 1 88 1 72 0 c 1,32,-1
 72 70 l 1,33,0
 136 72 136 72 164.5 78.5 c 128,-1,1
510.5 84 m 128,-1,35
 548 98 548 98 566.5 126.5 c 128,-1,36
 585 155 585 155 585 197 c 0,37,38
 585 261 585 261 541.5 295.5 c 128,-1,39
 498 330 498 330 406 340 c 1,40,-1
 406 410 l 1,41,-1
 550 635 l 1,42,-1
 306 635 l 1,43,-1
 306 156 l 2,44,45
 306 125 306 125 317.5 106.5 c 128,-1,46
 329 88 329 88 353.5 79 c 128,-1,47
 378 70 378 70 418 70 c 0,48,34
 473 70 473 70 510.5 84 c 128,-1,35
EndSplineSet
Substitution2: "'c2sc' May+APoA-sculas a min+APoA-sculas b+APoA-squeda 35 subtabla" germandbls.smcp
AlternateSubs2: "'aalt' Activar todas las variantes b+APoA-squeda 0 subtabla" germandbls.smcp
Position2: "'cpsp' Espaciado de may+APoA-sculas b+APoA-squeda 55 subtabla" dx=40 dy=0 dh=40 dv=0
EndChar

StartChar: T
Encoding: 84 84 130
Width: 621
GlyphClass: 1
Flags: W
AnchorPoint: "Anclaje-38" 311 314 basechar 0
AnchorPoint: "Anclaje-34" 311 708 basechar 0
AnchorPoint: "Anclaje-33" 311 0 basechar 0
LayerCount: 2
Fore
SplineSet
208 79.5 m 128,-1,1
 241 87 241 87 252.5 106 c 128,-1,2
 264 125 264 125 264 166 c 2,3,-1
 264 635 l 1,4,-1
 230 635 l 2,5,6
 192 635 192 635 166 618 c 128,-1,7
 140 601 140 601 124 564.5 c 128,-1,8
 108 528 108 528 100 468 c 1,9,-1
 27 468 l 1,10,11
 48 597 48 597 49 708 c 1,12,13
 126 705 126 705 311 705 c 0,14,15
 495 705 495 705 572 708 c 1,16,17
 573 597 573 597 594 468 c 1,18,-1
 521 468 l 1,19,20
 513 528 513 528 497 564.5 c 128,-1,21
 481 601 481 601 455 618 c 128,-1,22
 429 635 429 635 391 635 c 2,23,-1
 357 635 l 1,24,-1
 357 166 l 2,25,26
 357 125 357 125 368.5 106 c 128,-1,27
 380 87 380 87 413 79.5 c 128,-1,28
 446 72 446 72 518 70 c 1,29,-1
 518 0 l 1,30,31
 454 3 454 3 311 3 c 0,32,33
 165 3 165 3 103 0 c 1,34,-1
 103 70 l 1,35,0
 175 72 175 72 208 79.5 c 128,-1,1
EndSplineSet
Substitution2: "'c2sc' May+APoA-sculas a min+APoA-sculas b+APoA-squeda 35 subtabla" t.smcp
AlternateSubs2: "'aalt' Activar todas las variantes b+APoA-squeda 0 subtabla" t.smcp
Position2: "'cpsp' Espaciado de may+APoA-sculas b+APoA-squeda 55 subtabla" dx=40 dy=0 dh=40 dv=0
EndChar

StartChar: Tbar
Encoding: 358 358 131
Width: 621
GlyphClass: 1
Flags: W
AnchorPoint: "Anclaje-38" 311 314 basechar 0
AnchorPoint: "Anclaje-34" 311 708 basechar 0
AnchorPoint: "Anclaje-33" 311 0 basechar 0
LayerCount: 2
Fore
SplineSet
208 79.5 m 128,-1,1
 241 87 241 87 252.5 106 c 128,-1,2
 264 125 264 125 264 166 c 2,3,-1
 264 635 l 1,4,-1
 230 635 l 2,5,6
 192 635 192 635 166 618 c 128,-1,7
 140 601 140 601 124 564.5 c 128,-1,8
 108 528 108 528 100 468 c 1,9,-1
 27 468 l 1,10,11
 48 597 48 597 49 708 c 1,12,13
 126 705 126 705 311 705 c 0,14,15
 495 705 495 705 572 708 c 1,16,17
 573 597 573 597 594 468 c 1,18,-1
 521 468 l 1,19,20
 513 528 513 528 497 564.5 c 128,-1,21
 481 601 481 601 455 618 c 128,-1,22
 429 635 429 635 391 635 c 2,23,-1
 357 635 l 1,24,-1
 357 166 l 2,25,26
 357 125 357 125 368.5 106 c 128,-1,27
 380 87 380 87 413 79.5 c 128,-1,28
 446 72 446 72 518 70 c 1,29,-1
 518 0 l 1,30,31
 454 3 454 3 311 3 c 0,32,33
 165 3 165 3 103 0 c 1,34,-1
 103 70 l 1,35,0
 175 72 175 72 208 79.5 c 128,-1,1
57 349 m 1,36,-1
 566 349 l 1,37,-1
 566 279 l 1,38,-1
 57 279 l 1,39,-1
 57 349 l 1,36,-1
EndSplineSet
Substitution2: "'c2sc' May+APoA-sculas a min+APoA-sculas b+APoA-squeda 35 subtabla" tbar.smcp
AlternateSubs2: "'aalt' Activar todas las variantes b+APoA-squeda 0 subtabla" tbar.smcp
Position2: "'cpsp' Espaciado de may+APoA-sculas b+APoA-squeda 55 subtabla" dx=40 dy=0 dh=40 dv=0
EndChar

StartChar: Tcaron
Encoding: 356 356 132
Width: 621
GlyphClass: 1
Flags: W
AnchorPoint: "Anclaje-38" 311 314 basechar 0
AnchorPoint: "Anclaje-34" 311 928 basechar 0
AnchorPoint: "Anclaje-33" 311 0 basechar 0
LayerCount: 2
Fore
SplineSet
514 900 m 1
 358 782 l 1
 238 782 l 1
 97 898 l 1
 137 950 l 1
 358 824 l 1
 291 824 l 1
 479 949 l 1
 514 900 l 1
EndSplineSet
Refer: 130 84 N 1 0 0 1 0 0 0
Substitution2: "'c2sc' May+APoA-sculas a min+APoA-sculas b+APoA-squeda 35 subtabla" tcaron.smcp
AlternateSubs2: "'aalt' Activar todas las variantes b+APoA-squeda 0 subtabla" tcaron.smcp
Position2: "'cpsp' Espaciado de may+APoA-sculas b+APoA-squeda 55 subtabla" dx=40 dy=0 dh=40 dv=0
EndChar

StartChar: uni0162
Encoding: 354 354 133
Width: 621
GlyphClass: 1
Flags: W
AnchorPoint: "Anclaje-38" 311 314 basechar 0
AnchorPoint: "Anclaje-34" 311 708 basechar 0
AnchorPoint: "Anclaje-33" 311 0 basechar 0
LayerCount: 2
Fore
SplineSet
208 79.5 m 128,-1,1
 241 87 241 87 252.5 106 c 128,-1,2
 264 125 264 125 264 166 c 2,3,-1
 264 635 l 1,4,-1
 230 635 l 2,5,6
 192 635 192 635 166 618 c 128,-1,7
 140 601 140 601 124 564.5 c 128,-1,8
 108 528 108 528 100 468 c 1,9,-1
 27 468 l 1,10,11
 48 597 48 597 49 708 c 1,12,13
 126 705 126 705 311 705 c 0,14,15
 495 705 495 705 572 708 c 1,16,17
 573 597 573 597 594 468 c 1,18,-1
 521 468 l 1,19,20
 513 528 513 528 497 564.5 c 128,-1,21
 481 601 481 601 455 618 c 128,-1,22
 429 635 429 635 391 635 c 2,23,-1
 357 635 l 1,24,-1
 357 166 l 2,25,26
 357 125 357 125 368.5 106 c 128,-1,27
 380 87 380 87 413 79.5 c 128,-1,28
 446 72 446 72 518 70 c 1,29,-1
 518 0 l 1,30,31
 454 3 454 3 311 3 c 0,32,33
 165 3 165 3 103 0 c 1,34,-1
 103 70 l 1,35,0
 175 72 175 72 208 79.5 c 128,-1,1
237.5 -243 m 128,-1,37
 219 -241 219 -241 204 -237 c 1,38,-1
 213 -194 l 1,39,40
 223 -196 223 -196 236 -197 c 128,-1,41
 249 -198 249 -198 263 -198 c 0,42,43
 296 -198 296 -198 318 -184 c 128,-1,44
 340 -170 340 -170 340 -147 c 0,45,46
 340 -127 340 -127 325.5 -117 c 128,-1,47
 311 -107 311 -107 290 -107 c 0,48,49
 268 -107 268 -107 243 -112 c 1,50,-1
 288 6 l 1,51,-1
 343 6 l 1,52,-1
 316 -66 l 1,53,54
 321 -65 321 -65 326.5 -65 c 128,-1,55
 332 -65 332 -65 338 -65 c 0,56,57
 370 -65 370 -65 392 -86.5 c 128,-1,58
 414 -108 414 -108 414 -144 c 0,59,60
 414 -191 414 -191 376 -218 c 128,-1,61
 338 -245 338 -245 275 -245 c 0,62,36
 256 -245 256 -245 237.5 -243 c 128,-1,37
EndSplineSet
Substitution2: "Single Substitution b+APoA-squeda 57 subtabla" uni0162.varAlt01
Substitution2: "'c2sc' May+APoA-sculas a min+APoA-sculas b+APoA-squeda 35 subtabla" uni0163.smcp
Substitution2: "'locl' Formas localizadas en Latin b+APoA-squeda 6 subtabla" uni021A
AlternateSubs2: "'aalt' Activar todas las variantes b+APoA-squeda 0 subtabla" uni021A uni0163.smcp
Position2: "'cpsp' Espaciado de may+APoA-sculas b+APoA-squeda 55 subtabla" dx=40 dy=0 dh=40 dv=0
EndChar

StartChar: U
Encoding: 85 85 134
Width: 837
GlyphClass: 1
Flags: W
AnchorPoint: "Anclaje-42" 520 0 basechar 0
AnchorPoint: "Anclaje-34" 417 708 basechar 0
AnchorPoint: "Anclaje-33" 425 0 basechar 0
LayerCount: 2
Fore
SplineSet
278.5 15.5 m 128,-1,1
 225 45 225 45 199 105 c 128,-1,2
 173 165 173 165 173 258 c 2,3,-1
 173 552 l 2,4,5
 173 589 173 589 163 606 c 128,-1,6
 153 623 153 623 124.5 629.5 c 128,-1,7
 96 636 96 636 32 638 c 1,8,-1
 32 708 l 1,9,10
 82 705 82 705 219 705 c 0,11,12
 331 705 331 705 377 708 c 1,13,-1
 377 638 l 1,14,15
 327 636 327 636 304.5 629.5 c 128,-1,16
 282 623 282 623 274 606 c 128,-1,17
 266 589 266 589 266 552 c 2,18,-1
 266 292 l 2,19,20
 266 204 266 204 281 152.5 c 128,-1,21
 296 101 296 101 329.5 78 c 128,-1,22
 363 55 363 55 421 55 c 0,23,24
 483 55 483 55 520 79 c 128,-1,25
 557 103 557 103 574 155 c 128,-1,26
 591 207 591 207 591 294 c 2,27,-1
 591 552 l 2,28,29
 591 589 591 589 583 606 c 128,-1,30
 575 623 575 623 552.5 629.5 c 128,-1,31
 530 636 530 636 480 638 c 1,32,-1
 480 708 l 1,33,34
 519 705 519 705 614 705 c 0,35,36
 759 705 759 705 805 708 c 1,37,-1
 805 638 l 1,38,39
 744 636 744 636 715 628.5 c 128,-1,40
 686 621 686 621 675 601.5 c 128,-1,41
 664 582 664 582 664 542 c 2,42,-1
 664 281 l 2,43,44
 664 131 664 131 602.5 58.5 c 128,-1,45
 541 -14 541 -14 414 -14 c 0,46,0
 332 -14 332 -14 278.5 15.5 c 128,-1,1
EndSplineSet
Substitution2: "'c2sc' May+APoA-sculas a min+APoA-sculas b+APoA-squeda 35 subtabla" u.smcp
AlternateSubs2: "'aalt' Activar todas las variantes b+APoA-squeda 0 subtabla" u.smcp
Position2: "'cpsp' Espaciado de may+APoA-sculas b+APoA-squeda 55 subtabla" dx=40 dy=0 dh=40 dv=0
EndChar

StartChar: Uacute
Encoding: 218 218 135
Width: 837
GlyphClass: 1
Flags: W
AnchorPoint: "Anclaje-42" 520 0 basechar 0
AnchorPoint: "Anclaje-34" 417 928 basechar 0
AnchorPoint: "Anclaje-33" 425 0 basechar 0
LayerCount: 2
Fore
SplineSet
431 792 m 0
 464 804 464 804 491 813 c 0
 509 820 509 820 525 826 c 0
 541 832 541 832 549 837 c 0
 577 855 577 855 586 879.5 c 0
 595 904 595 904 582 925 c 0
 568 947 568 947 542 950 c 0
 516 953 516 953 488 936 c 0
 479 931 479 931 466 918.5 c 0
 453 906 453 906 438 892 c 0
 418 871 418 871 394.5 849 c 0
 371 827 371 827 341 803 c 1
 364 764 l 1
 398 780 398 780 431 792 c 0
EndSplineSet
Refer: 134 85 N 1 0 0 1 0 0 0
Substitution2: "'c2sc' May+APoA-sculas a min+APoA-sculas b+APoA-squeda 35 subtabla" uacute.smcp
AlternateSubs2: "'aalt' Activar todas las variantes b+APoA-squeda 0 subtabla" uacute.smcp
Position2: "'cpsp' Espaciado de may+APoA-sculas b+APoA-squeda 55 subtabla" dx=40 dy=0 dh=40 dv=0
EndChar

StartChar: Ubreve
Encoding: 364 364 136
Width: 837
GlyphClass: 1
Flags: W
AnchorPoint: "Anclaje-42" 520 0 basechar 0
AnchorPoint: "Anclaje-37" 417 858 basechar 0
AnchorPoint: "Anclaje-34" 417 858 basechar 0
AnchorPoint: "Anclaje-33" 425 0 basechar 0
LayerCount: 2
Fore
SplineSet
291.5 801 m 0
 233 830 233 830 198 880 c 1
 243 924 l 1
 281 887 281 887 323 869.5 c 0
 365 852 365 852 417 852 c 256
 469 852 469 852 511 869.5 c 0
 553 887 553 887 591 924 c 1
 636 880 l 1
 601 830 601 830 542.5 801 c 0
 484 772 484 772 417 772 c 256
 350 772 350 772 291.5 801 c 0
EndSplineSet
Refer: 134 85 N 1 0 0 1 0 0 0
Substitution2: "'c2sc' May+APoA-sculas a min+APoA-sculas b+APoA-squeda 35 subtabla" ubreve.smcp
AlternateSubs2: "'aalt' Activar todas las variantes b+APoA-squeda 0 subtabla" ubreve.smcp
Position2: "'cpsp' Espaciado de may+APoA-sculas b+APoA-squeda 55 subtabla" dx=40 dy=0 dh=40 dv=0
EndChar

StartChar: Ucircumflex
Encoding: 219 219 137
Width: 837
GlyphClass: 1
Flags: W
AnchorPoint: "Anclaje-43" 565 856 basechar 0
AnchorPoint: "Anclaje-42" 520 0 basechar 0
AnchorPoint: "Anclaje-34" 417 928 basechar 0
AnchorPoint: "Anclaje-33" 425 0 basechar 0
LayerCount: 2
Fore
SplineSet
201 832 m 1
 357 950 l 1
 477 950 l 1
 618 834 l 1
 578 782 l 1
 357 908 l 1
 424 908 l 1
 236 783 l 1
 201 832 l 1
EndSplineSet
Refer: 134 85 N 1 0 0 1 0 0 0
Substitution2: "'c2sc' May+APoA-sculas a min+APoA-sculas b+APoA-squeda 35 subtabla" ucircumflex.smcp
AlternateSubs2: "'aalt' Activar todas las variantes b+APoA-squeda 0 subtabla" ucircumflex.smcp
Position2: "'cpsp' Espaciado de may+APoA-sculas b+APoA-squeda 55 subtabla" dx=40 dy=0 dh=40 dv=0
EndChar

StartChar: Udieresis
Encoding: 220 220 138
Width: 837
GlyphClass: 1
Flags: W
AnchorPoint: "Anclaje-42" 520 0 basechar 0
AnchorPoint: "Anclaje-34" 417 928 basechar 0
AnchorPoint: "Anclaje-33" 425 0 basechar 0
LayerCount: 2
Fore
SplineSet
472.5 781.5 m 0
 453 801 453 801 453 831 c 0
 453 860 453 860 472.5 879.5 c 0
 492 899 492 899 523 899 c 256
 554 899 554 899 573.5 879.5 c 0
 593 860 593 860 593 831 c 0
 593 801 593 801 573.5 781.5 c 0
 554 762 554 762 523 762 c 256
 492 762 492 762 472.5 781.5 c 0
260.5 781.5 m 0
 241 801 241 801 241 831 c 0
 241 860 241 860 260.5 879.5 c 0
 280 899 280 899 311 899 c 256
 342 899 342 899 361.5 879.5 c 0
 381 860 381 860 381 831 c 0
 381 801 381 801 361.5 781.5 c 0
 342 762 342 762 311 762 c 256
 280 762 280 762 260.5 781.5 c 0
EndSplineSet
Refer: 134 85 N 1 0 0 1 0 0 0
Substitution2: "'c2sc' May+APoA-sculas a min+APoA-sculas b+APoA-squeda 35 subtabla" udieresis.smcp
AlternateSubs2: "'aalt' Activar todas las variantes b+APoA-squeda 0 subtabla" udieresis.smcp
Position2: "'cpsp' Espaciado de may+APoA-sculas b+APoA-squeda 55 subtabla" dx=40 dy=0 dh=40 dv=0
EndChar

StartChar: Ugrave
Encoding: 217 217 140
Width: 837
GlyphClass: 1
Flags: W
AnchorPoint: "Anclaje-42" 520 0 basechar 0
AnchorPoint: "Anclaje-34" 417 928 basechar 0
AnchorPoint: "Anclaje-33" 425 0 basechar 0
LayerCount: 2
Fore
SplineSet
403 792 m 0
 370 804 370 804 343 813 c 0
 325 820 325 820 309 826 c 0
 293 832 293 832 285 837 c 0
 257 855 257 855 248 879.5 c 0
 239 904 239 904 252 925 c 0
 266 947 266 947 292 950 c 0
 318 953 318 953 346 936 c 0
 355 931 355 931 368 918.5 c 0
 381 906 381 906 396 892 c 0
 416 871 416 871 439.5 849 c 0
 463 827 463 827 493 803 c 1
 470 764 l 1
 436 780 436 780 403 792 c 0
EndSplineSet
Refer: 134 85 N 1 0 0 1 0 0 0
Substitution2: "'c2sc' May+APoA-sculas a min+APoA-sculas b+APoA-squeda 35 subtabla" ugrave.smcp
AlternateSubs2: "'aalt' Activar todas las variantes b+APoA-squeda 0 subtabla" ugrave.smcp
Position2: "'cpsp' Espaciado de may+APoA-sculas b+APoA-squeda 55 subtabla" dx=40 dy=0 dh=40 dv=0
EndChar

StartChar: uni1EE6
Encoding: 7910 7910 141
Width: 837
GlyphClass: 1
Flags: W
AnchorPoint: "Anclaje-42" 520 0 basechar 0
AnchorPoint: "Anclaje-34" 417 708 basechar 0
AnchorPoint: "Anclaje-33" 425 0 basechar 0
LayerCount: 2
Fore
SplineSet
446 829 m 0
 461 847 461 847 461 876 c 0
 461 899 461 899 449 912 c 0
 437 925 437 925 415 925 c 0
 401 925 401 925 392 919.5 c 0
 383 914 383 914 383 905 c 0
 383 901 383 901 384 896.5 c 0
 385 892 385 892 387 888 c 0
 389 883 389 883 390.5 877 c 0
 392 871 392 871 392 866 c 0
 392 852 392 852 381 843 c 0
 370 834 370 834 352 834 c 0
 330 834 330 834 316.5 848.5 c 0
 303 863 303 863 303 887 c 0
 303 925 303 925 335.5 948.5 c 0
 368 972 368 972 421 972 c 256
 474 972 474 972 507 946 c 0
 540 920 540 920 540 878 c 256
 540 836 540 836 507 804 c 0
 474 772 474 772 413 754 c 1
 394 796 l 1
 431 811 431 811 446 829 c 0
EndSplineSet
Refer: 134 85 N 1 0 0 1 0 0 0
Substitution2: "'c2sc' May+APoA-sculas a min+APoA-sculas b+APoA-squeda 35 subtabla" uni1EE7.smcp
AlternateSubs2: "'aalt' Activar todas las variantes b+APoA-squeda 0 subtabla" uni1EE7.smcp
Position2: "'cpsp' Espaciado de may+APoA-sculas b+APoA-squeda 55 subtabla" dx=40 dy=0 dh=40 dv=0
EndChar

StartChar: uni1EE8
Encoding: 7912 7912 142
Width: 827
GlyphClass: 1
Flags: W
AnchorPoint: "Anclaje-42" 505 0 basechar 0
AnchorPoint: "Anclaje-34" 417 928 basechar 0
AnchorPoint: "Anclaje-33" 425 0 basechar 0
LayerCount: 2
Fore
SplineSet
278.5 15.5 m 0
 225 45 225 45 199 105 c 0
 173 165 173 165 173 258 c 2
 173 552 l 2
 173 589 173 589 163 606 c 0
 153 623 153 623 124.5 629.5 c 0
 96 636 96 636 32 638 c 1
 32 708 l 1
 82 705 82 705 219 705 c 0
 331 705 331 705 377 708 c 1
 377 638 l 1
 327 636 327 636 304.5 629.5 c 0
 282 623 282 623 274 606 c 0
 266 589 266 589 266 552 c 2
 266 292 l 2
 266 167 266 167 303.5 111 c 0
 341 55 341 55 424 55 c 0
 508 55 508 55 549.5 114 c 0
 591 173 591 173 591 294 c 2
 591 662 l 1
 664 662 l 1
 664 281 l 2
 664 131 664 131 602.5 58.5 c 0
 541 -14 541 -14 414 -14 c 0
 332 -14 332 -14 278.5 15.5 c 0
547.5 631 m 0
 511 633 511 633 473 637 c 1
 478 708 l 1
 514 705 514 705 547 704 c 0
 580 703 580 703 610 703 c 0
 648 703 648 703 668 711.5 c 0
 688 720 688 720 688 737 c 0
 688 744 688 744 684.5 752 c 0
 681 760 681 760 676 768 c 0
 668 781 668 781 664 791 c 0
 660 801 660 801 660 813 c 0
 660 836 660 836 675 850 c 0
 690 864 690 864 714 864 c 0
 746 864 746 864 765.5 838.5 c 0
 785 813 785 813 785 773 c 0
 785 709 785 709 739.5 669 c 0
 694 629 694 629 622 629 c 0
 584 629 584 629 547.5 631 c 0
431 792 m 0
 464 804 464 804 491 813 c 0
 509 820 509 820 525 826 c 0
 541 832 541 832 549 837 c 0
 577 855 577 855 586 879.5 c 0
 595 904 595 904 582 925 c 0
 568 947 568 947 542 950 c 0
 516 953 516 953 488 936 c 0
 479 931 479 931 466 918.5 c 0
 453 906 453 906 438 892 c 0
 418 871 418 871 394.5 849 c 0
 371 827 371 827 341 803 c 1
 364 764 l 1
 398 780 398 780 431 792 c 0
EndSplineSet
Substitution2: "'c2sc' May+APoA-sculas a min+APoA-sculas b+APoA-squeda 35 subtabla" uni1EE9.smcp
AlternateSubs2: "'aalt' Activar todas las variantes b+APoA-squeda 0 subtabla" uni1EE9.smcp
Position2: "'cpsp' Espaciado de may+APoA-sculas b+APoA-squeda 55 subtabla" dx=40 dy=0 dh=40 dv=0
EndChar

StartChar: uni1EF0
Encoding: 7920 7920 143
Width: 827
GlyphClass: 1
Flags: W
AnchorPoint: "Anclaje-42" 505 0 basechar 0
AnchorPoint: "Anclaje-34" 417 708 basechar 0
AnchorPoint: "Anclaje-33" 425 -204 basechar 0
LayerCount: 2
Fore
SplineSet
278.5 15.5 m 0
 225 45 225 45 199 105 c 0
 173 165 173 165 173 258 c 2
 173 552 l 2
 173 589 173 589 163 606 c 0
 153 623 153 623 124.5 629.5 c 0
 96 636 96 636 32 638 c 1
 32 708 l 1
 82 705 82 705 219 705 c 0
 331 705 331 705 377 708 c 1
 377 638 l 1
 327 636 327 636 304.5 629.5 c 0
 282 623 282 623 274 606 c 0
 266 589 266 589 266 552 c 2
 266 292 l 2
 266 167 266 167 303.5 111 c 0
 341 55 341 55 424 55 c 0
 508 55 508 55 549.5 114 c 0
 591 173 591 173 591 294 c 2
 591 662 l 1
 664 662 l 1
 664 281 l 2
 664 131 664 131 602.5 58.5 c 0
 541 -14 541 -14 414 -14 c 0
 332 -14 332 -14 278.5 15.5 c 0
547.5 631 m 0
 511 633 511 633 473 637 c 1
 478 708 l 1
 514 705 514 705 547 704 c 0
 580 703 580 703 610 703 c 0
 648 703 648 703 668 711.5 c 0
 688 720 688 720 688 737 c 0
 688 744 688 744 684.5 752 c 0
 681 760 681 760 676 768 c 0
 668 781 668 781 664 791 c 0
 660 801 660 801 660 813 c 0
 660 836 660 836 675 850 c 0
 690 864 690 864 714 864 c 0
 746 864 746 864 765.5 838.5 c 0
 785 813 785 813 785 773 c 0
 785 709 785 709 739.5 669 c 0
 694 629 694 629 622 629 c 0
 584 629 584 629 547.5 631 c 0
EndSplineSet
Refer: 535 803 N 1 0 0 1 278 0 0
Substitution2: "'c2sc' May+APoA-sculas a min+APoA-sculas b+APoA-squeda 35 subtabla" uni1EF1.smcp
AlternateSubs2: "'aalt' Activar todas las variantes b+APoA-squeda 0 subtabla" uni1EF1.smcp
Position2: "'cpsp' Espaciado de may+APoA-sculas b+APoA-squeda 55 subtabla" dx=40 dy=0 dh=40 dv=0
EndChar

StartChar: uni1EEA
Encoding: 7914 7914 144
Width: 827
GlyphClass: 1
Flags: W
AnchorPoint: "Anclaje-42" 505 0 basechar 0
AnchorPoint: "Anclaje-34" 417 928 basechar 0
AnchorPoint: "Anclaje-33" 425 0 basechar 0
LayerCount: 2
Fore
SplineSet
278.5 15.5 m 0
 225 45 225 45 199 105 c 0
 173 165 173 165 173 258 c 2
 173 552 l 2
 173 589 173 589 163 606 c 0
 153 623 153 623 124.5 629.5 c 0
 96 636 96 636 32 638 c 1
 32 708 l 1
 82 705 82 705 219 705 c 0
 331 705 331 705 377 708 c 1
 377 638 l 1
 327 636 327 636 304.5 629.5 c 0
 282 623 282 623 274 606 c 0
 266 589 266 589 266 552 c 2
 266 292 l 2
 266 167 266 167 303.5 111 c 0
 341 55 341 55 424 55 c 0
 508 55 508 55 549.5 114 c 0
 591 173 591 173 591 294 c 2
 591 662 l 1
 664 662 l 1
 664 281 l 2
 664 131 664 131 602.5 58.5 c 0
 541 -14 541 -14 414 -14 c 0
 332 -14 332 -14 278.5 15.5 c 0
547.5 631 m 0
 511 633 511 633 473 637 c 1
 478 708 l 1
 514 705 514 705 547 704 c 0
 580 703 580 703 610 703 c 0
 648 703 648 703 668 711.5 c 0
 688 720 688 720 688 737 c 0
 688 744 688 744 684.5 752 c 0
 681 760 681 760 676 768 c 0
 668 781 668 781 664 791 c 0
 660 801 660 801 660 813 c 0
 660 836 660 836 675 850 c 0
 690 864 690 864 714 864 c 0
 746 864 746 864 765.5 838.5 c 0
 785 813 785 813 785 773 c 0
 785 709 785 709 739.5 669 c 0
 694 629 694 629 622 629 c 0
 584 629 584 629 547.5 631 c 0
403 792 m 0
 370 804 370 804 343 813 c 0
 325 820 325 820 309 826 c 0
 293 832 293 832 285 837 c 0
 257 855 257 855 248 879.5 c 0
 239 904 239 904 252 925 c 0
 266 947 266 947 292 950 c 0
 318 953 318 953 346 936 c 0
 355 931 355 931 368 918.5 c 0
 381 906 381 906 396 892 c 0
 416 871 416 871 439.5 849 c 0
 463 827 463 827 493 803 c 1
 470 764 l 1
 436 780 436 780 403 792 c 0
EndSplineSet
Substitution2: "'c2sc' May+APoA-sculas a min+APoA-sculas b+APoA-squeda 35 subtabla" uni1EEB.smcp
AlternateSubs2: "'aalt' Activar todas las variantes b+APoA-squeda 0 subtabla" uni1EEB.smcp
Position2: "'cpsp' Espaciado de may+APoA-sculas b+APoA-squeda 55 subtabla" dx=40 dy=0 dh=40 dv=0
EndChar

StartChar: uni1EEC
Encoding: 7916 7916 145
Width: 827
GlyphClass: 1
Flags: W
AnchorPoint: "Anclaje-42" 505 0 basechar 0
AnchorPoint: "Anclaje-34" 417 708 basechar 0
AnchorPoint: "Anclaje-33" 425 0 basechar 0
LayerCount: 2
Fore
SplineSet
278.5 15.5 m 0
 225 45 225 45 199 105 c 0
 173 165 173 165 173 258 c 2
 173 552 l 2
 173 589 173 589 163 606 c 0
 153 623 153 623 124.5 629.5 c 0
 96 636 96 636 32 638 c 1
 32 708 l 1
 82 705 82 705 219 705 c 0
 331 705 331 705 377 708 c 1
 377 638 l 1
 327 636 327 636 304.5 629.5 c 0
 282 623 282 623 274 606 c 0
 266 589 266 589 266 552 c 2
 266 292 l 2
 266 167 266 167 303.5 111 c 0
 341 55 341 55 424 55 c 0
 508 55 508 55 549.5 114 c 0
 591 173 591 173 591 294 c 2
 591 662 l 1
 664 662 l 1
 664 281 l 2
 664 131 664 131 602.5 58.5 c 0
 541 -14 541 -14 414 -14 c 0
 332 -14 332 -14 278.5 15.5 c 0
547.5 631 m 0
 511 633 511 633 473 637 c 1
 478 708 l 1
 514 705 514 705 547 704 c 0
 580 703 580 703 610 703 c 0
 648 703 648 703 668 711.5 c 0
 688 720 688 720 688 737 c 0
 688 744 688 744 684.5 752 c 0
 681 760 681 760 676 768 c 0
 668 781 668 781 664 791 c 0
 660 801 660 801 660 813 c 0
 660 836 660 836 675 850 c 0
 690 864 690 864 714 864 c 0
 746 864 746 864 765.5 838.5 c 0
 785 813 785 813 785 773 c 0
 785 709 785 709 739.5 669 c 0
 694 629 694 629 622 629 c 0
 584 629 584 629 547.5 631 c 0
446 829 m 0
 461 847 461 847 461 876 c 0
 461 899 461 899 449 912 c 0
 437 925 437 925 415 925 c 0
 401 925 401 925 392 919.5 c 0
 383 914 383 914 383 905 c 0
 383 901 383 901 384 896.5 c 0
 385 892 385 892 387 888 c 0
 389 883 389 883 390.5 877 c 0
 392 871 392 871 392 866 c 0
 392 852 392 852 381 843 c 0
 370 834 370 834 352 834 c 0
 330 834 330 834 316.5 848.5 c 0
 303 863 303 863 303 887 c 0
 303 925 303 925 335.5 948.5 c 0
 368 972 368 972 421 972 c 256
 474 972 474 972 507 946 c 0
 540 920 540 920 540 878 c 256
 540 836 540 836 507 804 c 0
 474 772 474 772 413 754 c 1
 394 796 l 1
 431 811 431 811 446 829 c 0
EndSplineSet
Substitution2: "'c2sc' May+APoA-sculas a min+APoA-sculas b+APoA-squeda 35 subtabla" uni1EED.smcp
AlternateSubs2: "'aalt' Activar todas las variantes b+APoA-squeda 0 subtabla" uni1EED.smcp
Position2: "'cpsp' Espaciado de may+APoA-sculas b+APoA-squeda 55 subtabla" dx=40 dy=0 dh=40 dv=0
EndChar

StartChar: uni1EEE
Encoding: 7918 7918 146
Width: 827
GlyphClass: 1
Flags: W
AnchorPoint: "Anclaje-42" 505 0 basechar 0
AnchorPoint: "Anclaje-34" 417 928 basechar 0
AnchorPoint: "Anclaje-33" 425 0 basechar 0
LayerCount: 2
Fore
SplineSet
278.5 15.5 m 0
 225 45 225 45 199 105 c 0
 173 165 173 165 173 258 c 2
 173 552 l 2
 173 589 173 589 163 606 c 0
 153 623 153 623 124.5 629.5 c 0
 96 636 96 636 32 638 c 1
 32 708 l 1
 82 705 82 705 219 705 c 0
 331 705 331 705 377 708 c 1
 377 638 l 1
 327 636 327 636 304.5 629.5 c 0
 282 623 282 623 274 606 c 0
 266 589 266 589 266 552 c 2
 266 292 l 2
 266 167 266 167 303.5 111 c 0
 341 55 341 55 424 55 c 0
 508 55 508 55 549.5 114 c 0
 591 173 591 173 591 294 c 2
 591 662 l 1
 664 662 l 1
 664 281 l 2
 664 131 664 131 602.5 58.5 c 0
 541 -14 541 -14 414 -14 c 0
 332 -14 332 -14 278.5 15.5 c 0
547.5 631 m 0
 511 633 511 633 473 637 c 1
 478 708 l 1
 514 705 514 705 547 704 c 0
 580 703 580 703 610 703 c 0
 648 703 648 703 668 711.5 c 0
 688 720 688 720 688 737 c 0
 688 744 688 744 684.5 752 c 0
 681 760 681 760 676 768 c 0
 668 781 668 781 664 791 c 0
 660 801 660 801 660 813 c 0
 660 836 660 836 675 850 c 0
 690 864 690 864 714 864 c 0
 746 864 746 864 765.5 838.5 c 0
 785 813 785 813 785 773 c 0
 785 709 785 709 739.5 669 c 0
 694 629 694 629 622 629 c 0
 584 629 584 629 547.5 631 c 0
255 851 m 0
 287 882 287 882 332 882 c 0
 355 882 355 882 377 874 c 0
 399 866 399 866 428 851 c 0
 451 838 451 838 467.5 831.5 c 0
 484 825 484 825 500 825 c 0
 521 825 521 825 534.5 837.5 c 0
 548 850 548 850 556 876 c 1
 616 858 l 1
 611 811 611 811 579 780 c 0
 547 749 547 749 502 749 c 0
 479 749 479 749 457 757 c 0
 435 765 435 765 406 780 c 0
 382 793 382 793 365.5 799.5 c 0
 349 806 349 806 333 806 c 0
 313 806 313 806 299 793.5 c 0
 285 781 285 781 278 755 c 1
 218 773 l 1
 223 820 223 820 255 851 c 0
EndSplineSet
Substitution2: "'c2sc' May+APoA-sculas a min+APoA-sculas b+APoA-squeda 35 subtabla" uni1EEF.smcp
AlternateSubs2: "'aalt' Activar todas las variantes b+APoA-squeda 0 subtabla" uni1EEF.smcp
Position2: "'cpsp' Espaciado de may+APoA-sculas b+APoA-squeda 55 subtabla" dx=40 dy=0 dh=40 dv=0
EndChar

StartChar: Uhungarumlaut
Encoding: 368 368 147
Width: 837
GlyphClass: 1
Flags: W
AnchorPoint: "Anclaje-42" 520 0 basechar 0
AnchorPoint: "Anclaje-34" 418 928 basechar 0
AnchorPoint: "Anclaje-33" 425 0 basechar 0
LayerCount: 2
Fore
SplineSet
502.5 849 m 0
 526 871 526 871 546 892 c 0
 561 906 561 906 574 918.5 c 0
 587 931 587 931 596 936 c 0
 623 953 623 953 650.5 949 c 0
 678 945 678 945 690 925 c 0
 704 904 704 904 694.5 878.5 c 0
 685 853 685 853 657 837 c 0
 646 830 646 830 629 823.5 c 0
 612 817 612 817 593 811 c 0
 568 802 568 802 536 790.5 c 0
 504 779 504 779 472 764 c 1
 449 803 l 1
 479 827 479 827 502.5 849 c 0
282.5 849 m 0
 306 871 306 871 326 892 c 0
 341 906 341 906 354 918.5 c 0
 367 931 367 931 376 936 c 0
 403 953 403 953 430.5 949 c 0
 458 945 458 945 470 925 c 0
 483 904 483 904 473.5 879 c 0
 464 854 464 854 437 837 c 0
 427 831 427 831 411 824.5 c 0
 395 818 395 818 375 812 c 0
 350 803 350 803 317.5 791 c 0
 285 779 285 779 252 764 c 1
 229 803 l 1
 259 827 259 827 282.5 849 c 0
EndSplineSet
Refer: 134 85 N 1 0 0 1 0 0 0
Substitution2: "'c2sc' May+APoA-sculas a min+APoA-sculas b+APoA-squeda 35 subtabla" uhungarumlaut.smcp
AlternateSubs2: "'aalt' Activar todas las variantes b+APoA-squeda 0 subtabla" uhungarumlaut.smcp
Position2: "'cpsp' Espaciado de may+APoA-sculas b+APoA-squeda 55 subtabla" dx=40 dy=0 dh=40 dv=0
EndChar

StartChar: Umacron
Encoding: 362 362 148
Width: 837
GlyphClass: 1
Flags: W
AnchorPoint: "Anclaje-42" 520 0 basechar 0
AnchorPoint: "Anclaje-34" 418 928 basechar 0
AnchorPoint: "Anclaje-33" 425 0 basechar 0
LayerCount: 2
Fore
SplineSet
241 869 m 1
 593 869 l 1
 593 794 l 1
 241 794 l 1
 241 869 l 1
EndSplineSet
Refer: 134 85 N 1 0 0 1 0 0 0
Substitution2: "'c2sc' May+APoA-sculas a min+APoA-sculas b+APoA-squeda 35 subtabla" umacron.smcp
AlternateSubs2: "'aalt' Activar todas las variantes b+APoA-squeda 0 subtabla" umacron.smcp
Position2: "'cpsp' Espaciado de may+APoA-sculas b+APoA-squeda 55 subtabla" dx=40 dy=0 dh=40 dv=0
EndChar

StartChar: Uogonek
Encoding: 370 370 149
Width: 837
GlyphClass: 1
Flags: W
AnchorPoint: "Anclaje-42" 520 0 basechar 0
AnchorPoint: "Anclaje-34" 417 708 basechar 0
AnchorPoint: "Anclaje-33" 425 0 basechar 0
LayerCount: 2
Fore
SplineSet
278.5 15.5 m 128,-1,1
 225 45 225 45 199 105 c 128,-1,2
 173 165 173 165 173 258 c 2,3,-1
 173 552 l 2,4,5
 173 589 173 589 163 606 c 128,-1,6
 153 623 153 623 124.5 629.5 c 128,-1,7
 96 636 96 636 32 638 c 1,8,-1
 32 708 l 1,9,10
 82 705 82 705 219 705 c 0,11,12
 331 705 331 705 377 708 c 1,13,-1
 377 638 l 1,14,15
 327 636 327 636 304.5 629.5 c 128,-1,16
 282 623 282 623 274 606 c 128,-1,17
 266 589 266 589 266 552 c 2,18,-1
 266 292 l 2,19,20
 266 204 266 204 281 152.5 c 128,-1,21
 296 101 296 101 329.5 78 c 128,-1,22
 363 55 363 55 421 55 c 0,23,24
 483 55 483 55 520 79 c 128,-1,25
 557 103 557 103 574 155 c 128,-1,26
 591 207 591 207 591 294 c 2,27,-1
 591 552 l 2,28,29
 591 589 591 589 583 606 c 128,-1,30
 575 623 575 623 552.5 629.5 c 128,-1,31
 530 636 530 636 480 638 c 1,32,-1
 480 708 l 1,33,34
 519 705 519 705 614 705 c 0,35,36
 759 705 759 705 805 708 c 1,37,-1
 805 638 l 1,38,39
 744 636 744 636 715 628.5 c 128,-1,40
 686 621 686 621 675 601.5 c 128,-1,41
 664 582 664 582 664 542 c 2,42,-1
 664 281 l 2,43,44
 664 131 664 131 602.5 58.5 c 128,-1,45
 541 -14 541 -14 414 -14 c 0,46,0
 332 -14 332 -14 278.5 15.5 c 128,-1,1
432 -221.5 m 128,-1,48
 406 -198 406 -198 406 -159 c 0,49,50
 406 -130 406 -130 416.5 -102 c 128,-1,51
 427 -74 427 -74 449 -44 c 0,52,53
 463 -25 463 -25 481.5 -4.5 c 128,-1,54
 500 16 500 16 527 41 c 1,55,-1
 585 41 l 1,56,57
 540 -6 540 -6 519.5 -50.5 c 128,-1,58
 499 -95 499 -95 499 -125 c 0,59,60
 499 -147 499 -147 508.5 -158.5 c 128,-1,61
 518 -170 518 -170 536 -170 c 0,62,63
 548 -170 548 -170 561 -165.5 c 128,-1,64
 574 -161 574 -161 583 -154 c 1,65,-1
 608 -209 l 1,66,67
 589 -225 589 -225 560 -235 c 128,-1,68
 531 -245 531 -245 502 -245 c 0,69,47
 458 -245 458 -245 432 -221.5 c 128,-1,48
EndSplineSet
Substitution2: "'c2sc' May+APoA-sculas a min+APoA-sculas b+APoA-squeda 35 subtabla" uogonek.smcp
AlternateSubs2: "'aalt' Activar todas las variantes b+APoA-squeda 0 subtabla" uogonek.smcp
Position2: "'cpsp' Espaciado de may+APoA-sculas b+APoA-squeda 55 subtabla" dx=40 dy=0 dh=40 dv=0
EndChar

StartChar: Uring
Encoding: 366 366 150
Width: 837
GlyphClass: 1
Flags: W
AnchorPoint: "Anclaje-42" 520 0 basechar 0
AnchorPoint: "Anclaje-34" 417 927 basechar 0
AnchorPoint: "Anclaje-33" 425 0 basechar 0
LayerCount: 2
Fore
SplineSet
323.5 772.5 m 0
 285 804 285 804 285 855 c 256
 285 906 285 906 323.5 937 c 0
 362 968 362 968 417 968 c 256
 472 968 472 968 511 937 c 0
 550 906 550 906 550 855 c 0
 550 803 550 803 511 772 c 0
 472 741 472 741 417 741 c 256
 362 741 362 741 323.5 772.5 c 0
477 801.5 m 0
 501 820 501 820 501 854 c 256
 501 888 501 888 477 907 c 0
 453 926 453 926 417 926 c 0
 382 926 382 926 358 907 c 0
 334 888 334 888 334 854 c 256
 334 820 334 820 357.5 801.5 c 0
 381 783 381 783 417 783 c 256
 453 783 453 783 477 801.5 c 0
EndSplineSet
Refer: 134 85 N 1 0 0 1 0 0 0
Substitution2: "'c2sc' May+APoA-sculas a min+APoA-sculas b+APoA-squeda 35 subtabla" uring.smcp
AlternateSubs2: "'aalt' Activar todas las variantes b+APoA-squeda 0 subtabla" uring.smcp
Position2: "'cpsp' Espaciado de may+APoA-sculas b+APoA-squeda 55 subtabla" dx=40 dy=0 dh=40 dv=0
EndChar

StartChar: Utilde
Encoding: 360 360 151
Width: 837
GlyphClass: 1
Flags: W
AnchorPoint: "Anclaje-42" 520 0 basechar 0
AnchorPoint: "Anclaje-34" 417 928 basechar 0
AnchorPoint: "Anclaje-33" 425 0 basechar 0
LayerCount: 2
Fore
SplineSet
455.5 780.5 m 0
 432 789 432 789 404 804 c 0
 379 817 379 817 362.5 823 c 0
 346 829 346 829 330 829 c 0
 310 829 310 829 296 816.5 c 0
 282 804 282 804 275 778 c 1
 215 796 l 1
 220 843 220 843 252 874 c 0
 284 905 284 905 329 905 c 0
 353 905 353 905 376.5 896.5 c 0
 400 888 400 888 427 873 c 0
 453 860 453 860 469 854 c 0
 485 848 485 848 501 848 c 0
 522 848 522 848 535.5 860.5 c 0
 549 873 549 873 557 899 c 1
 617 881 l 1
 612 834 612 834 580 803 c 0
 548 772 548 772 503 772 c 0
 479 772 479 772 455.5 780.5 c 0
EndSplineSet
Refer: 134 85 N 1 0 0 1 0 0 0
Substitution2: "'c2sc' May+APoA-sculas a min+APoA-sculas b+APoA-squeda 35 subtabla" utilde.smcp
AlternateSubs2: "'aalt' Activar todas las variantes b+APoA-squeda 0 subtabla" utilde.smcp
Position2: "'cpsp' Espaciado de may+APoA-sculas b+APoA-squeda 55 subtabla" dx=40 dy=0 dh=40 dv=0
EndChar

StartChar: V
Encoding: 86 86 152
Width: 803
GlyphClass: 1
Flags: W
AnchorPoint: "Anclaje-34" 411 708 basechar 0
AnchorPoint: "Anclaje-33" 411 0 basechar 0
LayerCount: 2
Fore
SplineSet
118 615.5 m 128,-1,1
 84 638 84 638 20 638 c 1,2,-1
 20 708 l 1,3,-1
 60 706 l 2,4,5
 92 705 92 705 187 705 c 0,6,7
 318 705 318 705 369 708 c 1,8,-1
 369 638 l 1,9,10
 313 638 313 638 287.5 631 c 128,-1,11
 262 624 262 624 257.5 606.5 c 128,-1,12
 253 589 253 589 266 554 c 2,13,-1
 434 114 l 1,14,-1
 407 99 l 1,15,-1
 559 496 l 2,16,17
 582 554 582 554 581.5 583.5 c 128,-1,18
 581 613 581 613 556 625 c 128,-1,19
 531 637 531 637 473 638 c 1,20,-1
 473 708 l 1,21,22
 581 705 581 705 658 705 c 0,23,24
 724 705 724 705 793 708 c 1,25,-1
 793 638 l 1,26,27
 752 638 752 638 725.5 627.5 c 128,-1,28
 699 617 699 617 680 592.5 c 128,-1,29
 661 568 661 568 644 524 c 2,30,-1
 444 0 l 1,31,-1
 378 0 l 1,32,-1
 173 538 l 2,33,0
 152 593 152 593 118 615.5 c 128,-1,1
EndSplineSet
Substitution2: "'c2sc' May+APoA-sculas a min+APoA-sculas b+APoA-squeda 35 subtabla" v.smcp
AlternateSubs2: "'aalt' Activar todas las variantes b+APoA-squeda 0 subtabla" v.smcp
Position2: "'cpsp' Espaciado de may+APoA-sculas b+APoA-squeda 55 subtabla" dx=40 dy=0 dh=40 dv=0
EndChar

StartChar: W
Encoding: 87 87 153
Width: 1087
GlyphClass: 1
Flags: W
AnchorPoint: "Anclaje-34" 563 708 basechar 0
AnchorPoint: "Anclaje-33" 558 0 basechar 0
LayerCount: 2
Fore
SplineSet
478 616.5 m 128,-1,1
 454 638 454 638 409 638 c 1,2,-1
 409 708 l 1,3,-1
 442 706 l 2,4,5
 468 705 468 705 546 705 c 0,6,7
 662 705 662 705 707 708 c 1,8,-1
 707 638 l 1,9,10
 654 638 654 638 630.5 631.5 c 128,-1,11
 607 625 607 625 603 607.5 c 128,-1,12
 599 590 599 590 611 554 c 2,13,-1
 751 128 l 1,14,-1
 732 136 l 1,15,-1
 846 496 l 2,16,17
 865 556 865 556 863.5 585.5 c 128,-1,18
 862 615 862 615 838 626 c 128,-1,19
 814 637 814 637 757 638 c 1,20,-1
 757 708 l 1,21,22
 865 705 865 705 942 705 c 0,23,24
 1005 705 1005 705 1077 708 c 1,25,-1
 1077 638 l 1,26,27
 1034 638 1034 638 1006.5 627 c 128,-1,28
 979 616 979 616 960.5 591.5 c 128,-1,29
 942 567 942 567 928 524 c 2,30,-1
 763 0 l 1,31,-1
 697 0 l 1,32,-1
 521 538 l 2,33,0
 502 595 502 595 478 616.5 c 128,-1,1
119 615.5 m 128,-1,35
 85 638 85 638 20 638 c 1,36,-1
 20 708 l 1,37,-1
 60 706 l 2,38,39
 92 705 92 705 187 705 c 0,40,41
 311 705 311 705 359 708 c 1,42,-1
 359 638 l 1,43,44
 306 638 306 638 282 631.5 c 128,-1,45
 258 625 258 625 254 607.5 c 128,-1,46
 250 590 250 590 262 554 c 2,47,-1
 409 106 l 1,48,-1
 376 111 l 1,49,-1
 535 603 l 1,50,-1
 575 499 l 1,51,-1
 414 0 l 1,52,-1
 348 0 l 1,53,-1
 171 538 l 2,54,34
 153 593 153 593 119 615.5 c 128,-1,35
EndSplineSet
Substitution2: "'c2sc' May+APoA-sculas a min+APoA-sculas b+APoA-squeda 35 subtabla" w.smcp
AlternateSubs2: "'aalt' Activar todas las variantes b+APoA-squeda 0 subtabla" w.smcp
Position2: "'cpsp' Espaciado de may+APoA-sculas b+APoA-squeda 55 subtabla" dx=40 dy=0 dh=40 dv=0
EndChar

StartChar: Wacute
Encoding: 7810 7810 154
Width: 1087
GlyphClass: 1
Flags: W
AnchorPoint: "Anclaje-34" 563 928 basechar 0
AnchorPoint: "Anclaje-33" 558 0 basechar 0
LayerCount: 2
Fore
SplineSet
577 792 m 0
 610 804 610 804 637 813 c 0
 655 820 655 820 671 826 c 0
 687 832 687 832 695 837 c 0
 723 855 723 855 732 879.5 c 0
 741 904 741 904 728 925 c 0
 714 947 714 947 688 950 c 0
 662 953 662 953 634 936 c 0
 625 931 625 931 612 918.5 c 0
 599 906 599 906 584 892 c 0
 564 871 564 871 540.5 849 c 0
 517 827 517 827 487 803 c 1
 510 764 l 1
 544 780 544 780 577 792 c 0
EndSplineSet
Refer: 153 87 N 1 0 0 1 0 0 0
Substitution2: "'c2sc' May+APoA-sculas a min+APoA-sculas b+APoA-squeda 35 subtabla" wacute.smcp
AlternateSubs2: "'aalt' Activar todas las variantes b+APoA-squeda 0 subtabla" wacute.smcp
Position2: "'cpsp' Espaciado de may+APoA-sculas b+APoA-squeda 55 subtabla" dx=40 dy=0 dh=40 dv=0
EndChar

StartChar: Wcircumflex
Encoding: 372 372 155
Width: 1087
GlyphClass: 1
Flags: W
AnchorPoint: "Anclaje-43" 711 856 basechar 0
AnchorPoint: "Anclaje-34" 563 928 basechar 0
AnchorPoint: "Anclaje-33" 558 0 basechar 0
LayerCount: 2
Fore
SplineSet
347 832 m 1
 503 950 l 1
 623 950 l 1
 764 834 l 1
 724 782 l 1
 503 908 l 1
 570 908 l 1
 382 783 l 1
 347 832 l 1
EndSplineSet
Refer: 153 87 N 1 0 0 1 0 0 0
Substitution2: "'c2sc' May+APoA-sculas a min+APoA-sculas b+APoA-squeda 35 subtabla" wcircumflex.smcp
AlternateSubs2: "'aalt' Activar todas las variantes b+APoA-squeda 0 subtabla" wcircumflex.smcp
Position2: "'cpsp' Espaciado de may+APoA-sculas b+APoA-squeda 55 subtabla" dx=40 dy=0 dh=40 dv=0
EndChar

StartChar: Wdieresis
Encoding: 7812 7812 156
Width: 1087
GlyphClass: 1
Flags: W
AnchorPoint: "Anclaje-34" 563 928 basechar 0
AnchorPoint: "Anclaje-33" 558 0 basechar 0
LayerCount: 2
Fore
SplineSet
618.5 781.5 m 0
 599 801 599 801 599 831 c 0
 599 860 599 860 618.5 879.5 c 0
 638 899 638 899 669 899 c 256
 700 899 700 899 719.5 879.5 c 0
 739 860 739 860 739 831 c 0
 739 801 739 801 719.5 781.5 c 0
 700 762 700 762 669 762 c 256
 638 762 638 762 618.5 781.5 c 0
406.5 781.5 m 0
 387 801 387 801 387 831 c 0
 387 860 387 860 406.5 879.5 c 0
 426 899 426 899 457 899 c 256
 488 899 488 899 507.5 879.5 c 0
 527 860 527 860 527 831 c 0
 527 801 527 801 507.5 781.5 c 0
 488 762 488 762 457 762 c 256
 426 762 426 762 406.5 781.5 c 0
EndSplineSet
Refer: 153 87 N 1 0 0 1 0 0 0
Substitution2: "'c2sc' May+APoA-sculas a min+APoA-sculas b+APoA-squeda 35 subtabla" wdieresis.smcp
AlternateSubs2: "'aalt' Activar todas las variantes b+APoA-squeda 0 subtabla" wdieresis.smcp
Position2: "'cpsp' Espaciado de may+APoA-sculas b+APoA-squeda 55 subtabla" dx=40 dy=0 dh=40 dv=0
EndChar

StartChar: Wgrave
Encoding: 7808 7808 157
Width: 1087
GlyphClass: 1
Flags: W
AnchorPoint: "Anclaje-34" 563 928 basechar 0
AnchorPoint: "Anclaje-33" 558 0 basechar 0
LayerCount: 2
Fore
SplineSet
549 792 m 0
 516 804 516 804 489 813 c 0
 471 820 471 820 455 826 c 0
 439 832 439 832 431 837 c 0
 403 855 403 855 394 879.5 c 0
 385 904 385 904 398 925 c 0
 412 947 412 947 438 950 c 0
 464 953 464 953 492 936 c 0
 501 931 501 931 514 918.5 c 0
 527 906 527 906 542 892 c 0
 562 871 562 871 585.5 849 c 0
 609 827 609 827 639 803 c 1
 616 764 l 1
 582 780 582 780 549 792 c 0
EndSplineSet
Refer: 153 87 N 1 0 0 1 0 0 0
Substitution2: "'c2sc' May+APoA-sculas a min+APoA-sculas b+APoA-squeda 35 subtabla" wgrave.smcp
AlternateSubs2: "'aalt' Activar todas las variantes b+APoA-squeda 0 subtabla" wgrave.smcp
Position2: "'cpsp' Espaciado de may+APoA-sculas b+APoA-squeda 55 subtabla" dx=40 dy=0 dh=40 dv=0
EndChar

StartChar: X
Encoding: 88 88 158
Width: 804
GlyphClass: 1
Flags: W
AnchorPoint: "Anclaje-34" 397 708 basechar 0
AnchorPoint: "Anclaje-33" 397 0 basechar 0
LayerCount: 2
Fore
SplineSet
508.5 80 m 128,-1,1
 525 88 525 88 525 103 c 128,-1,2
 525 118 525 118 508 140 c 2,3,-1
 174 587 l 2,4,5
 152 616 152 616 122.5 627 c 128,-1,6
 93 638 93 638 37 638 c 1,7,-1
 37 708 l 1,8,9
 50 708 50 708 62 707 c 0,10,11
 167 704 167 704 207 704 c 0,12,13
 317 704 317 704 354 708 c 1,14,-1
 354 638 l 1,15,16
 321 636 321 636 304.5 628 c 128,-1,17
 288 620 288 620 288 605 c 128,-1,18
 288 590 288 590 305 568 c 2,19,-1
 639 121 l 2,20,21
 659 94 659 94 689 83 c 128,-1,22
 719 72 719 72 776 70 c 1,23,-1
 776 0 l 1,24,25
 764 1 764 1 751 1 c 0,26,27
 646 4 646 4 606 4 c 0,28,29
 496 4 496 4 459 0 c 1,30,-1
 459 70 l 1,31,0
 492 72 492 72 508.5 80 c 128,-1,1
125 91.5 m 128,-1,33
 163 113 163 113 199 162 c 2,34,-1
 364 383 l 1,35,-1
 414 334 l 1,36,-1
 281 154 l 2,37,38
 259 124 259 124 258.5 106 c 128,-1,39
 258 88 258 88 279.5 79.5 c 128,-1,40
 301 71 301 71 346 70 c 1,41,-1
 346 0 l 1,42,43
 306 3 306 3 181 3 c 0,44,45
 75 3 75 3 36 0 c 1,46,-1
 36 70 l 1,47,32
 87 70 87 70 125 91.5 c 128,-1,33
380 387 m 1,48,-1
 513 568 l 2,49,50
 532 593 532 593 532 608 c 128,-1,51
 532 623 532 623 514 630 c 128,-1,52
 496 637 496 637 456 638 c 1,53,-1
 456 708 l 1,54,55
 510 705 510 705 601 705 c 0,56,57
 707 705 707 705 746 708 c 1,58,-1
 746 638 l 1,59,60
 697 638 697 638 657 615 c 128,-1,61
 617 592 617 592 583 546 c 2,62,-1
 437 346 l 1,63,-1
 380 387 l 1,48,-1
EndSplineSet
Substitution2: "'c2sc' May+APoA-sculas a min+APoA-sculas b+APoA-squeda 35 subtabla" x.smcp
AlternateSubs2: "'aalt' Activar todas las variantes b+APoA-squeda 0 subtabla" x.smcp
Position2: "'cpsp' Espaciado de may+APoA-sculas b+APoA-squeda 55 subtabla" dx=40 dy=0 dh=40 dv=0
EndChar

StartChar: Y
Encoding: 89 89 159
Width: 731
GlyphClass: 1
Flags: W
AnchorPoint: "Anclaje-39" 388 255 basechar 0
AnchorPoint: "Anclaje-34" 386 708 basechar 0
AnchorPoint: "Anclaje-33" 387 0 basechar 0
LayerCount: 2
Fore
SplineSet
93.5 620 m 128,-1,1
 61 638 61 638 0 638 c 1,2,-1
 0 708 l 1,3,-1
 56 706 l 2,4,5
 92 705 92 705 158 705 c 0,6,7
 288 705 288 705 358 708 c 1,8,-1
 358 638 l 1,9,10
 309 638 309 638 282.5 628.5 c 128,-1,11
 256 619 256 619 252 599.5 c 128,-1,12
 248 580 248 580 266 551 c 2,13,-1
 419 300 l 1,14,-1
 370 284 l 1,15,-1
 485 499 l 2,16,17
 514 552 514 552 516 581.5 c 128,-1,18
 518 611 518 611 493 623.5 c 128,-1,19
 468 636 468 636 411 638 c 1,20,-1
 411 708 l 1,21,22
 450 705 450 705 596 705 c 0,23,24
 631 705 631 705 731 708 c 1,25,-1
 731 638 l 1,26,27
 693 634 693 634 668 624.5 c 128,-1,28
 643 615 643 615 625 597.5 c 128,-1,29
 607 580 607 580 591 549 c 2,30,-1
 404 199 l 1,31,-1
 372 199 l 1,32,-1
 156 553 l 2,33,0
 126 602 126 602 93.5 620 c 128,-1,1
285 79.5 m 128,-1,35
 318 87 318 87 329.5 106 c 128,-1,36
 341 125 341 125 341 166 c 2,37,-1
 341 311 l 1,38,-1
 395 249 l 1,39,-1
 434 304 l 1,40,-1
 434 166 l 2,41,42
 434 125 434 125 445.5 106 c 128,-1,43
 457 87 457 87 490 79.5 c 128,-1,44
 523 72 523 72 595 70 c 1,45,-1
 595 0 l 1,46,47
 531 3 531 3 388 3 c 0,48,49
 242 3 242 3 180 0 c 1,50,-1
 180 70 l 1,51,34
 252 72 252 72 285 79.5 c 128,-1,35
EndSplineSet
Substitution2: "'c2sc' May+APoA-sculas a min+APoA-sculas b+APoA-squeda 35 subtabla" y.smcp
AlternateSubs2: "'aalt' Activar todas las variantes b+APoA-squeda 0 subtabla" y.smcp
Position2: "'cpsp' Espaciado de may+APoA-sculas b+APoA-squeda 55 subtabla" dx=40 dy=0 dh=40 dv=0
EndChar

StartChar: Yacute
Encoding: 221 221 160
Width: 731
GlyphClass: 1
Flags: W
AnchorPoint: "Anclaje-39" 388 255 basechar 0
AnchorPoint: "Anclaje-34" 386 928 basechar 0
AnchorPoint: "Anclaje-33" 387 0 basechar 0
LayerCount: 2
Fore
SplineSet
400 792 m 0
 433 804 433 804 460 813 c 0
 478 820 478 820 494 826 c 0
 510 832 510 832 518 837 c 0
 546 855 546 855 555 879.5 c 0
 564 904 564 904 551 925 c 0
 537 947 537 947 511 950 c 0
 485 953 485 953 457 936 c 0
 448 931 448 931 435 918.5 c 0
 422 906 422 906 407 892 c 0
 387 871 387 871 363.5 849 c 0
 340 827 340 827 310 803 c 1
 333 764 l 1
 367 780 367 780 400 792 c 0
EndSplineSet
Refer: 159 89 N 1 0 0 1 0 0 0
Substitution2: "'c2sc' May+APoA-sculas a min+APoA-sculas b+APoA-squeda 35 subtabla" yacute.smcp
AlternateSubs2: "'aalt' Activar todas las variantes b+APoA-squeda 0 subtabla" yacute.smcp
Position2: "'cpsp' Espaciado de may+APoA-sculas b+APoA-squeda 55 subtabla" dx=40 dy=0 dh=40 dv=0
EndChar

StartChar: Ycircumflex
Encoding: 374 374 161
Width: 731
GlyphClass: 1
Flags: W
AnchorPoint: "Anclaje-43" 534 856 basechar 0
AnchorPoint: "Anclaje-39" 388 255 basechar 0
AnchorPoint: "Anclaje-34" 386 928 basechar 0
AnchorPoint: "Anclaje-33" 387 0 basechar 0
LayerCount: 2
Fore
SplineSet
170 832 m 1
 326 950 l 1
 446 950 l 1
 587 834 l 1
 547 782 l 1
 326 908 l 1
 393 908 l 1
 205 783 l 1
 170 832 l 1
EndSplineSet
Refer: 159 89 N 1 0 0 1 0 0 0
Substitution2: "'c2sc' May+APoA-sculas a min+APoA-sculas b+APoA-squeda 35 subtabla" ycircumflex.smcp
AlternateSubs2: "'aalt' Activar todas las variantes b+APoA-squeda 0 subtabla" ycircumflex.smcp
Position2: "'cpsp' Espaciado de may+APoA-sculas b+APoA-squeda 55 subtabla" dx=40 dy=0 dh=40 dv=0
EndChar

StartChar: Ydieresis
Encoding: 376 376 162
Width: 731
GlyphClass: 1
Flags: W
AnchorPoint: "Anclaje-39" 388 255 basechar 0
AnchorPoint: "Anclaje-34" 386 928 basechar 0
AnchorPoint: "Anclaje-33" 387 0 basechar 0
LayerCount: 2
Fore
SplineSet
441.5 781.5 m 0
 422 801 422 801 422 831 c 0
 422 860 422 860 441.5 879.5 c 0
 461 899 461 899 492 899 c 256
 523 899 523 899 542.5 879.5 c 0
 562 860 562 860 562 831 c 0
 562 801 562 801 542.5 781.5 c 0
 523 762 523 762 492 762 c 256
 461 762 461 762 441.5 781.5 c 0
229.5 781.5 m 0
 210 801 210 801 210 831 c 0
 210 860 210 860 229.5 879.5 c 0
 249 899 249 899 280 899 c 256
 311 899 311 899 330.5 879.5 c 0
 350 860 350 860 350 831 c 0
 350 801 350 801 330.5 781.5 c 0
 311 762 311 762 280 762 c 256
 249 762 249 762 229.5 781.5 c 0
EndSplineSet
Refer: 159 89 N 1 0 0 1 0 0 0
Substitution2: "'c2sc' May+APoA-sculas a min+APoA-sculas b+APoA-squeda 35 subtabla" ydieresis.smcp
AlternateSubs2: "'aalt' Activar todas las variantes b+APoA-squeda 0 subtabla" ydieresis.smcp
Position2: "'cpsp' Espaciado de may+APoA-sculas b+APoA-squeda 55 subtabla" dx=40 dy=0 dh=40 dv=0
EndChar

StartChar: Ygrave
Encoding: 7922 7922 164
Width: 731
GlyphClass: 1
Flags: W
AnchorPoint: "Anclaje-39" 388 255 basechar 0
AnchorPoint: "Anclaje-34" 386 928 basechar 0
AnchorPoint: "Anclaje-33" 387 0 basechar 0
LayerCount: 2
Fore
SplineSet
372 792 m 0
 339 804 339 804 312 813 c 0
 294 820 294 820 278 826 c 0
 262 832 262 832 254 837 c 0
 226 855 226 855 217 879.5 c 0
 208 904 208 904 221 925 c 0
 235 947 235 947 261 950 c 0
 287 953 287 953 315 936 c 0
 324 931 324 931 337 918.5 c 0
 350 906 350 906 365 892 c 0
 385 871 385 871 408.5 849 c 0
 432 827 432 827 462 803 c 1
 439 764 l 1
 405 780 405 780 372 792 c 0
EndSplineSet
Refer: 159 89 N 1 0 0 1 0 0 0
Substitution2: "'c2sc' May+APoA-sculas a min+APoA-sculas b+APoA-squeda 35 subtabla" ygrave.smcp
AlternateSubs2: "'aalt' Activar todas las variantes b+APoA-squeda 0 subtabla" ygrave.smcp
Position2: "'cpsp' Espaciado de may+APoA-sculas b+APoA-squeda 55 subtabla" dx=40 dy=0 dh=40 dv=0
EndChar

StartChar: uni1EF6
Encoding: 7926 7926 165
Width: 731
GlyphClass: 1
Flags: W
AnchorPoint: "Anclaje-39" 388 255 basechar 0
AnchorPoint: "Anclaje-34" 386 708 basechar 0
AnchorPoint: "Anclaje-33" 387 0 basechar 0
LayerCount: 2
Fore
SplineSet
415 829 m 0
 430 847 430 847 430 876 c 0
 430 899 430 899 418 912 c 0
 406 925 406 925 384 925 c 0
 370 925 370 925 361 919.5 c 0
 352 914 352 914 352 905 c 0
 352 901 352 901 353 896.5 c 0
 354 892 354 892 356 888 c 0
 358 883 358 883 359.5 877 c 0
 361 871 361 871 361 866 c 0
 361 852 361 852 350 843 c 0
 339 834 339 834 321 834 c 0
 299 834 299 834 285.5 848.5 c 0
 272 863 272 863 272 887 c 0
 272 925 272 925 304.5 948.5 c 0
 337 972 337 972 390 972 c 256
 443 972 443 972 476 946 c 0
 509 920 509 920 509 878 c 256
 509 836 509 836 476 804 c 0
 443 772 443 772 382 754 c 1
 363 796 l 1
 400 811 400 811 415 829 c 0
EndSplineSet
Refer: 159 89 N 1 0 0 1 0 0 0
Substitution2: "'c2sc' May+APoA-sculas a min+APoA-sculas b+APoA-squeda 35 subtabla" uni1EF7.smcp
AlternateSubs2: "'aalt' Activar todas las variantes b+APoA-squeda 0 subtabla" uni1EF7.smcp
Position2: "'cpsp' Espaciado de may+APoA-sculas b+APoA-squeda 55 subtabla" dx=40 dy=0 dh=40 dv=0
EndChar

StartChar: uni1EF8
Encoding: 7928 7928 166
Width: 731
GlyphClass: 1
Flags: W
AnchorPoint: "Anclaje-39" 388 255 basechar 0
AnchorPoint: "Anclaje-34" 386 928 basechar 0
AnchorPoint: "Anclaje-33" 387 0 basechar 0
LayerCount: 2
Fore
SplineSet
424.5 780.5 m 0
 401 789 401 789 373 804 c 0
 348 817 348 817 331.5 823 c 0
 315 829 315 829 299 829 c 0
 279 829 279 829 265 816.5 c 0
 251 804 251 804 244 778 c 1
 184 796 l 1
 189 843 189 843 221 874 c 0
 253 905 253 905 298 905 c 0
 322 905 322 905 345.5 896.5 c 0
 369 888 369 888 396 873 c 0
 422 860 422 860 438 854 c 0
 454 848 454 848 470 848 c 0
 491 848 491 848 504.5 860.5 c 0
 518 873 518 873 526 899 c 1
 586 881 l 1
 581 834 581 834 549 803 c 0
 517 772 517 772 472 772 c 0
 448 772 448 772 424.5 780.5 c 0
EndSplineSet
Refer: 159 89 N 1 0 0 1 0 0 0
Substitution2: "'c2sc' May+APoA-sculas a min+APoA-sculas b+APoA-squeda 35 subtabla" uni1EF9.smcp
AlternateSubs2: "'aalt' Activar todas las variantes b+APoA-squeda 0 subtabla" uni1EF9.smcp
Position2: "'cpsp' Espaciado de may+APoA-sculas b+APoA-squeda 55 subtabla" dx=40 dy=0 dh=40 dv=0
EndChar

StartChar: Z
Encoding: 90 90 167
Width: 634
GlyphClass: 1
Flags: W
AnchorPoint: "Anclaje-34" 295 708 basechar 0
AnchorPoint: "Anclaje-33" 299 0 basechar 0
LayerCount: 2
Fore
SplineSet
42 70 m 1,0,-1
 434 635 l 1,1,-1
 251 635 l 2,2,3
 213 635 213 635 187 618 c 128,-1,4
 161 601 161 601 145 564.5 c 128,-1,5
 129 528 129 528 121 468 c 1,6,-1
 48 468 l 1,7,8
 69 598 69 598 70 708 c 1,9,10
 139 705 139 705 302 705 c 0,11,12
 472 705 472 705 545 708 c 1,13,-1
 545 638 l 1,14,-1
 153 73 l 1,15,-1
 277 73 l 2,16,17
 346 73 346 73 382.5 87 c 128,-1,18
 419 101 419 101 440 137.5 c 128,-1,19
 461 174 461 174 481 250 c 1,20,-1
 554 250 l 1,21,22
 540 133 540 133 538 0 c 1,23,24
 464 3 464 3 289 3 c 0,25,26
 118 3 118 3 42 0 c 1,27,-1
 42 70 l 1,0,-1
EndSplineSet
Substitution2: "'c2sc' May+APoA-sculas a min+APoA-sculas b+APoA-squeda 35 subtabla" z.smcp
AlternateSubs2: "'aalt' Activar todas las variantes b+APoA-squeda 0 subtabla" z.smcp
Position2: "'cpsp' Espaciado de may+APoA-sculas b+APoA-squeda 55 subtabla" dx=40 dy=0 dh=40 dv=0
EndChar

StartChar: Zacute
Encoding: 377 377 168
Width: 634
GlyphClass: 1
Flags: W
AnchorPoint: "Anclaje-34" 295 928 basechar 0
AnchorPoint: "Anclaje-33" 299 0 basechar 0
LayerCount: 2
Fore
SplineSet
309 792 m 0
 342 804 342 804 369 813 c 0
 387 820 387 820 403 826 c 0
 419 832 419 832 427 837 c 0
 455 855 455 855 464 879.5 c 0
 473 904 473 904 460 925 c 0
 446 947 446 947 420 950 c 0
 394 953 394 953 366 936 c 0
 357 931 357 931 344 918.5 c 0
 331 906 331 906 316 892 c 0
 296 871 296 871 272.5 849 c 0
 249 827 249 827 219 803 c 1
 242 764 l 1
 276 780 276 780 309 792 c 0
EndSplineSet
Refer: 167 90 N 1 0 0 1 0 0 0
Substitution2: "'c2sc' May+APoA-sculas a min+APoA-sculas b+APoA-squeda 35 subtabla" zacute.smcp
Substitution2: "'locl' Formas localizadas en Latin b+APoA-squeda 7 subtabla" Zacute.loclPLK
AlternateSubs2: "'aalt' Activar todas las variantes b+APoA-squeda 0 subtabla" Zacute.loclPLK zacute.smcp
Position2: "'cpsp' Espaciado de may+APoA-sculas b+APoA-squeda 55 subtabla" dx=40 dy=0 dh=40 dv=0
EndChar

StartChar: Zcaron
Encoding: 381 381 169
Width: 634
GlyphClass: 1
Flags: W
AnchorPoint: "Anclaje-34" 295 928 basechar 0
AnchorPoint: "Anclaje-33" 299 0 basechar 0
LayerCount: 2
Fore
SplineSet
498 900 m 1
 342 782 l 1
 222 782 l 1
 81 898 l 1
 121 950 l 1
 342 824 l 1
 275 824 l 1
 463 949 l 1
 498 900 l 1
EndSplineSet
Refer: 167 90 N 1 0 0 1 0 0 0
Substitution2: "'c2sc' May+APoA-sculas a min+APoA-sculas b+APoA-squeda 35 subtabla" zcaron.smcp
AlternateSubs2: "'aalt' Activar todas las variantes b+APoA-squeda 0 subtabla" zcaron.smcp
Position2: "'cpsp' Espaciado de may+APoA-sculas b+APoA-squeda 55 subtabla" dx=40 dy=0 dh=40 dv=0
EndChar

StartChar: Zdotaccent
Encoding: 379 379 170
Width: 634
GlyphClass: 1
Flags: W
AnchorPoint: "Anclaje-34" 295 928 basechar 0
AnchorPoint: "Anclaje-33" 299 0 basechar 0
LayerCount: 2
Fore
SplineSet
242 796 m 0
 220 818 220 818 220 849 c 256
 220 880 220 880 242 902 c 0
 264 924 264 924 295 924 c 256
 326 924 326 924 348 902 c 0
 370 880 370 880 370 849 c 256
 370 818 370 818 348 796 c 0
 326 774 326 774 295 774 c 256
 264 774 264 774 242 796 c 0
EndSplineSet
Refer: 167 90 N 1 0 0 1 0 0 0
Substitution2: "'c2sc' May+APoA-sculas a min+APoA-sculas b+APoA-squeda 35 subtabla" zdotaccent.smcp
AlternateSubs2: "'aalt' Activar todas las variantes b+APoA-squeda 0 subtabla" zdotaccent.smcp
Position2: "'cpsp' Espaciado de may+APoA-sculas b+APoA-squeda 55 subtabla" dx=40 dy=0 dh=40 dv=0
EndChar

StartChar: a
Encoding: 97 97 171
Width: 623
GlyphClass: 1
Flags: W
AnchorPoint: "Anclaje-42" 528 0 basechar 0
AnchorPoint: "Anclaje-34" 285 514 basechar 0
AnchorPoint: "Anclaje-33" 310 0 basechar 0
LayerCount: 2
Fore
SplineSet
404 9 m 128,-1,1
 381 32 381 32 381 81 c 2,2,-1
 381 378 l 2,3,4
 381 419 381 419 354 439 c 128,-1,5
 327 459 327 459 272 459 c 0,6,7
 235 459 235 459 211.5 450 c 128,-1,8
 188 441 188 441 188 427 c 0,9,10
 188 423 188 423 190.5 416.5 c 128,-1,11
 193 410 193 410 196 404 c 0,12,13
 202 395 202 395 205 386 c 128,-1,14
 208 377 208 377 208 367 c 0,15,16
 208 347 208 347 194.5 335 c 128,-1,17
 181 323 181 323 158 323 c 0,18,19
 129 323 129 323 111 343 c 128,-1,20
 93 363 93 363 93 396 c 0,21,22
 93 435 93 435 118.5 465 c 128,-1,23
 144 495 144 495 190 512 c 128,-1,24
 236 529 236 529 295 529 c 0,25,26
 356 529 356 529 395 510 c 128,-1,27
 434 491 434 491 452.5 452 c 128,-1,28
 471 413 471 413 471 351 c 2,29,-1
 471 116 l 2,30,31
 471 91 471 91 479 80 c 128,-1,32
 487 69 487 69 504 69 c 0,33,34
 518 69 518 69 533 75 c 128,-1,35
 548 81 548 81 564 93 c 2,36,-1
 573 100 l 1,37,-1
 608 43 l 1,38,39
 580 14 580 14 547.5 0 c 128,-1,40
 515 -14 515 -14 476 -14 c 0,41,0
 427 -14 427 -14 404 9 c 128,-1,1
121.5 24.5 m 128,-1,43
 80 63 80 63 80 127 c 0,44,45
 80 180 80 180 108.5 212.5 c 128,-1,46
 137 245 137 245 176 260.5 c 128,-1,47
 215 276 215 276 275 290 c 0,48,49
 314 300 314 300 334.5 307 c 128,-1,50
 355 314 355 314 368.5 324.5 c 128,-1,51
 382 335 382 335 382 351 c 1,52,-1
 388 270 l 1,53,54
 381 257 381 257 363 250 c 128,-1,55
 345 243 345 243 306 233 c 0,56,57
 265 222 265 222 239.5 212 c 128,-1,58
 214 202 214 202 195.5 183.5 c 128,-1,59
 177 165 177 165 177 135 c 256,60,61
 177 105 177 105 196.5 87 c 128,-1,62
 216 69 216 69 249 69 c 0,63,64
 288 69 288 69 326 96 c 128,-1,65
 364 123 364 123 395 173 c 1,66,-1
 394 98 l 1,67,68
 366 41 366 41 325.5 13.5 c 128,-1,69
 285 -14 285 -14 231 -14 c 0,70,42
 163 -14 163 -14 121.5 24.5 c 128,-1,43
EndSplineSet
Substitution2: "Single Substitution b+APoA-squeda 93 subtabla" ordfeminine
Substitution2: "'smcp' Min+APoA-sculas a may+APoA-sculas peque+APEA-as b+APoA-squeda 38 subtabla" a.smcp
AlternateSubs2: "'aalt' Activar todas las variantes b+APoA-squeda 0 subtabla" ordfeminine a.smcp
EndChar

